{"glyphs":{"0":{"ha":819,"x_min":183,"x_max":994,"o":"m 364 -69 q 281 -49 321 -68 q 218 0 242 -31 q 183 117 183 50 q 185 145 183 131 q 189 175 186 160 q 256 340 208 264 q 378 485 303 417 q 470 546 418 517 q 586 601 522 575 q 700 640 646 629 q 794 650 754 650 q 842 640 843 650 q 836 635 840 636 q 828 633 832 635 q 637 583 733 624 q 456 476 540 542 q 311 324 371 410 q 231 135 251 238 q 226 97 226 117 q 262 -1 226 42 q 376 -44 297 -44 q 508 -17 438 -44 q 651 58 579 11 q 783 165 722 106 q 886 290 844 225 q 940 417 928 354 q 944 446 943 432 q 946 472 946 460 q 925 533 946 511 q 847 556 904 556 q 716 532 794 556 q 556 460 638 508 q 508 426 540 451 q 440 372 475 401 q 385 317 406 342 q 383 315 383 315 q 382 315 382 315 q 383 340 367 315 q 438 400 400 365 q 519 464 475 435 q 638 525 578 500 q 752 564 699 550 q 842 578 806 578 q 961 538 928 578 q 994 444 994 499 q 993 419 994 432 q 989 394 992 407 q 928 253 972 322 q 819 124 883 185 q 679 19 756 64 q 522 -49 603 -25 q 364 -69 440 -74 z "},"1":{"ha":483,"x_min":43,"x_max":622,"o":"m 71 -69 q 51 -60 58 -69 q 43 -40 43 -51 q 52 -17 43 -29 q 83 3 61 -4 q 174 22 124 15 q 275 31 224 29 l 275 32 q 276 42 275 36 q 347 198 313 111 q 413 369 381 285 q 469 514 444 453 q 449 499 468 514 q 399 463 429 485 q 340 417 369 440 q 290 378 311 394 q 265 361 268 363 q 243 350 254 350 q 236 358 236 350 q 240 368 236 364 q 249 381 243 372 q 286 413 257 389 q 355 469 315 436 q 436 535 394 501 q 512 598 478 569 q 564 642 546 626 q 574 643 565 643 q 622 597 618 643 q 508 422 565 519 q 398 223 450 324 q 306 32 346 122 q 433 34 371 33 q 544 40 494 35 q 555 32 553 40 q 549 25 557 24 q 396 6 481 19 q 228 -27 311 -8 q 83 -67 146 -46 q 71 -69 75 -69 z "},"2":{"ha":933,"x_min":142,"x_max":969,"o":"m 910 -142 q 907 -139 907 -142 q 913 -126 907 -133 q 938 -54 938 -82 q 876 19 938 -1 q 725 39 815 39 q 570 29 653 39 q 409 6 488 19 q 268 -22 331 -8 q 172 -44 206 -36 l 168 -44 q 149 -36 157 -44 q 142 -18 142 -28 q 148 0 142 -8 q 169 14 154 8 l 233 25 q 310 64 268 36 q 392 114 351 92 q 522 197 458 151 q 658 303 586 243 q 876 560 876 475 q 797 615 876 615 q 659 597 725 615 q 540 550 593 578 q 451 497 486 522 q 406 460 417 472 q 437 429 422 446 q 461 394 451 413 q 475 350 475 368 q 465 327 475 335 q 440 319 456 319 q 394 333 419 319 q 352 372 368 347 q 342 428 336 397 q 349 453 344 439 q 364 475 354 467 q 349 488 357 481 q 331 506 342 496 q 325 514 325 510 q 333 521 325 521 q 346 515 340 521 q 378 486 363 496 q 420 526 388 497 q 512 585 453 554 q 654 631 571 615 q 713 639 678 635 q 783 643 747 643 q 862 634 825 643 q 921 601 899 625 q 938 531 943 576 q 877 422 925 475 q 760 318 829 369 q 612 219 690 267 q 460 127 533 171 q 331 43 386 83 q 523 74 426 61 q 713 86 619 86 q 871 74 794 86 q 936 43 903 68 q 969 -28 969 18 q 960 -73 969 -49 q 929 -128 951 -97 q 910 -142 919 -142 m 435 351 q 443 364 443 351 q 438 389 443 375 q 418 417 428 404 q 390 443 408 429 q 392 413 390 438 q 417 361 394 389 q 435 351 428 351 z "},"3":{"ha":750,"x_min":75,"x_max":843,"o":"m 274 -106 q 175 -94 221 -106 q 102 -57 129 -83 q 75 15 75 -31 q 100 92 75 54 q 165 162 125 129 q 251 219 206 194 q 339 257 297 244 q 347 258 342 258 q 353 254 353 258 q 340 240 353 247 q 248 188 296 224 q 167 106 200 153 q 135 8 135 60 q 171 -63 135 -43 q 258 -83 207 -83 q 345 -74 299 -83 q 431 -51 392 -64 q 582 19 519 -22 q 684 108 644 61 q 742 197 724 154 q 761 268 761 239 q 726 350 761 319 q 614 374 692 381 l 611 374 q 555 364 571 367 q 528 360 539 361 q 509 356 518 357 q 493 356 500 354 q 481 369 476 356 q 524 393 483 399 q 531 392 526 392 q 542 389 536 392 q 552 389 547 389 q 560 386 557 389 q 614 397 590 389 q 676 432 638 406 q 744 490 725 464 q 764 535 764 515 q 748 567 764 554 q 707 582 732 581 q 684 584 696 583 q 661 585 672 585 q 541 565 596 585 q 457 510 486 546 q 446 503 450 503 q 440 511 440 503 q 443 522 440 515 q 453 536 446 529 q 578 611 510 593 q 704 629 647 629 q 738 628 722 629 q 765 625 753 626 q 819 601 794 621 q 843 551 843 581 q 814 478 843 511 q 740 422 785 446 q 650 383 696 399 q 717 379 683 385 q 778 359 751 374 q 817 314 806 344 q 826 258 826 289 q 792 149 826 201 q 703 51 757 96 q 593 -25 650 7 q 490 -72 536 -57 q 386 -96 443 -86 q 274 -106 329 -106 z "},"4":{"ha":660,"x_min":69,"x_max":969,"o":"m 379 -103 q 371 -92 371 -103 q 382 -53 371 -82 q 426 44 404 -7 q 471 147 449 94 q 341 170 401 156 q 232 192 281 185 q 190 161 213 169 q 147 153 168 153 q 92 166 115 153 q 69 193 69 179 q 81 208 69 201 q 118 222 99 218 q 160 225 138 225 q 194 224 176 225 q 229 219 211 222 q 307 285 258 243 q 413 380 356 328 q 530 486 471 432 q 640 590 589 540 q 726 674 692 639 q 736 675 728 675 q 770 662 747 675 q 793 633 793 649 q 788 622 793 626 q 653 417 719 535 q 528 181 586 300 q 657 194 592 183 q 780 228 722 206 q 878 284 838 250 q 936 365 919 318 q 944 392 940 379 q 947 415 947 404 q 928 450 947 440 q 921 460 921 456 q 932 465 921 468 q 960 439 951 458 q 969 396 969 419 q 965 364 969 379 q 897 249 944 294 q 785 178 850 203 q 647 144 721 153 q 609 142 628 143 q 571 142 590 142 q 541 142 556 142 q 511 143 526 142 q 458 33 483 86 q 413 -69 433 -21 q 397 -94 407 -85 q 379 -103 386 -103 m 486 178 q 563 358 526 269 q 629 518 600 447 q 562 457 603 492 q 474 385 521 422 q 383 314 428 349 q 306 253 339 279 q 257 214 272 226 q 315 201 288 208 q 368 189 343 193 q 486 178 421 178 z "},"5":{"ha":700,"x_min":101,"x_max":979,"o":"m 300 -83 q 201 -72 247 -83 q 128 -33 156 -60 q 101 39 101 -7 q 126 115 101 78 q 192 185 151 153 q 278 242 232 218 q 365 281 324 267 q 372 282 368 282 q 379 276 379 282 q 367 264 379 271 q 294 228 333 251 q 222 173 256 204 q 165 106 188 142 q 143 32 143 69 q 183 -40 143 -19 q 278 -60 222 -60 q 370 -50 322 -60 q 457 -28 418 -40 q 648 71 575 11 q 755 191 721 131 q 789 292 789 251 q 752 373 789 350 q 667 396 715 396 q 612 390 640 396 q 560 376 583 385 q 529 365 544 371 q 511 360 514 360 l 510 360 l 501 342 q 476 329 490 329 q 467 330 471 329 q 457 332 463 331 q 449 344 449 333 q 452 362 449 353 q 457 376 456 371 q 503 456 476 414 q 569 549 531 499 q 549 566 560 557 q 539 576 538 575 q 555 596 540 585 q 587 615 569 607 q 610 619 604 622 q 613 620 611 619 q 615 621 614 621 q 650 610 633 621 q 699 612 660 610 q 791 617 739 614 q 892 622 843 619 q 968 622 940 624 q 979 613 979 621 q 965 601 979 601 q 869 594 931 601 q 740 576 807 588 q 619 547 674 564 q 576 487 599 526 q 535 415 553 447 q 528 399 532 410 q 518 378 524 389 q 594 400 547 390 q 688 410 640 410 q 783 394 739 410 q 843 336 826 378 q 853 281 853 311 q 818 171 853 224 q 730 74 783 118 q 619 -2 676 29 q 517 -49 563 -33 q 413 -73 469 -62 q 300 -83 356 -83 z "},"6":{"ha":650,"x_min":132,"x_max":828,"o":"m 314 -58 q 216 -36 260 -58 q 149 36 172 -14 q 132 114 132 74 q 175 256 132 183 q 291 396 218 328 q 452 520 364 464 q 633 614 540 576 q 806 664 725 651 l 810 664 q 828 656 828 664 q 803 644 828 649 q 661 603 735 636 q 517 522 588 569 q 386 417 447 474 q 281 306 325 361 q 214 206 236 251 q 194 148 203 179 q 186 85 186 117 q 203 13 186 46 q 261 -28 219 -19 q 296 -32 278 -32 q 408 -6 349 -32 q 519 59 467 19 q 608 143 571 99 q 653 225 644 188 q 654 232 654 228 q 654 239 654 236 q 635 276 654 263 q 585 290 617 290 q 454 248 533 290 q 289 107 375 206 q 274 104 279 101 q 269 110 268 107 q 403 249 338 200 q 527 316 469 297 q 625 335 585 335 q 663 331 647 335 q 689 322 679 328 q 713 297 706 314 q 721 256 721 279 q 708 190 721 225 q 672 128 696 156 q 570 32 631 74 q 442 -34 510 -10 q 314 -58 375 -58 z "},"7":{"ha":600,"x_min":144,"x_max":867,"o":"m 242 -135 q 175 -75 175 -135 q 188 -16 175 -50 q 229 58 201 18 q 274 113 240 75 q 357 201 308 151 q 462 306 406 251 q 575 411 518 361 q 682 500 632 461 q 767 557 732 539 q 711 575 739 567 q 656 586 683 583 q 558 594 614 594 q 415 579 489 594 q 285 532 340 564 q 213 447 229 500 q 201 407 201 422 q 215 382 201 388 q 218 376 218 381 q 210 368 218 371 q 199 367 203 365 q 161 398 178 374 q 144 444 144 422 q 146 456 144 451 q 215 559 165 521 q 334 613 265 597 q 475 629 403 629 q 602 618 540 629 q 708 592 664 607 l 792 568 l 826 578 l 833 578 q 857 565 857 578 q 838 547 857 556 q 867 525 867 535 q 856 519 867 519 q 813 535 840 519 q 763 519 800 543 q 671 449 725 496 q 556 342 617 403 q 435 215 494 281 q 326 89 375 150 q 249 -21 278 28 q 219 -96 219 -69 q 229 -115 219 -108 q 244 -124 236 -119 q 251 -132 251 -129 q 242 -135 251 -135 z "},"8":{"ha":617,"x_min":153,"x_max":886,"o":"m 267 -24 q 184 0 215 -24 q 153 72 153 24 q 179 155 153 115 q 246 231 206 194 q 330 299 286 267 q 410 358 374 331 q 389 419 396 388 q 382 476 382 451 q 437 605 382 551 q 592 658 492 658 q 608 658 599 658 q 625 657 617 658 q 714 638 671 651 q 782 585 757 624 q 824 607 811 600 q 845 617 838 614 q 864 625 853 621 q 878 628 869 628 q 886 622 886 628 q 867 603 886 617 q 823 578 840 589 q 794 565 806 568 q 803 540 800 556 q 807 517 807 524 q 797 489 807 489 q 788 495 792 489 q 783 507 785 501 q 781 519 782 510 q 767 549 779 529 q 716 522 761 549 q 610 456 671 496 q 483 360 486 374 q 532 193 532 267 q 458 39 532 103 q 367 -10 415 4 q 267 -24 318 -24 m 469 392 q 522 425 486 404 q 600 471 557 446 q 685 521 643 496 q 758 564 728 546 q 732 592 753 576 q 681 620 711 608 q 617 632 650 632 q 533 616 575 632 q 463 569 490 600 q 435 493 435 538 q 444 450 435 475 q 469 392 453 425 m 282 -1 q 422 44 371 -1 q 472 167 472 90 q 472 187 472 176 q 469 207 472 197 q 453 260 467 226 q 422 325 439 294 q 363 279 406 311 q 283 206 319 247 q 232 125 244 158 q 219 64 219 92 q 282 -1 219 -1 z "},"9":{"ha":583,"x_min":126,"x_max":758,"o":"m 144 -107 q 126 -99 126 -107 q 150 -89 126 -93 q 320 -24 236 -74 q 477 94 404 26 q 601 233 550 161 q 674 364 653 304 q 691 426 683 392 q 699 493 699 460 q 676 576 699 540 q 592 611 653 611 q 485 590 536 611 q 392 534 435 568 q 319 461 350 500 q 280 394 296 431 q 264 325 264 357 q 282 274 264 294 q 343 254 300 254 q 369 256 356 254 q 400 261 383 257 q 508 310 449 272 q 622 400 567 349 l 625 400 q 633 395 632 400 q 631 386 633 390 q 512 277 572 315 q 398 224 451 239 q 306 210 344 210 q 272 213 288 210 q 247 218 257 215 q 206 249 221 229 q 189 294 192 269 q 188 303 189 299 q 188 313 188 308 q 228 438 188 378 q 331 544 268 497 q 465 619 394 592 q 593 647 535 647 q 715 601 679 647 q 757 482 750 556 q 758 469 758 476 q 758 456 758 463 q 720 306 758 381 q 617 163 682 231 q 474 40 553 96 q 310 -53 394 -15 q 150 -107 226 -92 l 144 -107 z "}," ":{"ha":486,"x_min":0,"x_max":0,"o":""}," ":{"ha":486,"x_min":0,"x_max":0,"o":""},"#":{"ha":1068,"x_min":278,"x_max":1058,"o":"m 417 -112 q 392 -100 399 -112 q 392 -76 390 -94 q 400 -31 394 -58 q 474 208 421 78 q 390 207 431 207 q 308 207 349 207 q 278 219 278 207 q 296 233 278 226 q 357 240 314 239 q 415 241 382 240 q 488 242 449 242 q 567 413 521 324 q 476 411 521 411 q 389 411 432 411 q 357 424 357 411 q 375 437 357 431 q 436 444 393 443 q 503 445 464 444 q 585 446 542 446 q 617 505 600 475 q 651 565 633 535 q 683 619 663 588 q 731 692 703 651 q 749 696 739 697 l 754 696 q 778 682 775 696 l 778 675 l 706 564 q 635 447 667 504 q 745 448 690 447 q 849 449 800 449 q 880 506 864 476 q 914 565 896 535 q 945 619 925 588 q 993 692 965 651 q 1011 696 1001 697 l 1017 696 q 1040 682 1038 696 l 1040 675 l 968 564 q 931 505 949 533 q 897 449 914 476 q 956 448 929 449 q 997 447 982 447 q 1044 444 1031 447 q 1058 438 1058 440 q 1041 430 1058 433 q 997 426 1024 426 l 882 422 q 833 331 856 375 q 792 244 811 286 q 866 244 832 244 q 918 243 900 243 q 979 233 979 242 q 961 226 979 229 q 918 221 943 222 l 779 217 q 729 85 749 146 q 699 -28 710 24 q 694 -56 697 -36 q 689 -104 692 -75 q 679 -112 689 -112 q 654 -100 661 -112 q 655 -76 653 -94 q 663 -31 657 -58 q 693 88 674 26 q 739 215 713 149 l 514 210 q 466 82 485 142 q 436 -28 447 22 q 432 -56 435 -36 q 426 -104 429 -75 q 417 -112 426 -112 m 528 243 q 641 244 583 243 q 750 244 699 244 q 789 330 768 286 q 833 421 810 374 q 726 417 781 419 q 615 414 671 415 q 568 326 589 368 q 528 243 547 283 z "},"$":{"ha":686,"x_min":183,"x_max":869,"o":"m 236 -101 q 226 -96 226 -101 q 286 35 226 -72 q 214 89 244 47 q 183 178 183 131 q 196 210 183 210 q 210 183 207 210 q 240 109 214 146 q 300 67 267 72 q 374 186 332 122 q 464 314 417 250 q 388 397 414 354 q 363 475 363 440 q 407 562 363 517 q 532 636 451 607 q 648 663 588 657 q 756 665 708 668 q 810 718 788 697 q 840 739 833 739 q 860 708 869 735 q 843 689 857 703 q 810 656 829 675 q 844 629 832 649 q 856 589 856 610 q 849 558 856 575 q 797 502 831 519 q 749 485 764 485 q 739 489 739 485 q 747 499 739 493 q 808 567 804 543 q 811 579 811 575 q 769 619 811 610 q 634 471 704 550 q 514 325 564 392 q 554 282 531 307 q 595 228 578 257 q 613 169 613 200 q 612 160 613 164 q 610 150 611 156 q 551 74 596 104 q 452 29 506 43 q 357 19 399 15 q 335 24 346 22 q 315 26 325 25 q 292 -15 301 4 q 276 -51 283 -33 q 263 -83 271 -65 q 236 -101 256 -101 m 489 349 q 599 492 542 422 q 717 622 657 561 q 557 601 639 626 q 428 500 450 567 q 426 490 426 494 q 425 479 425 485 q 441 419 425 453 q 489 349 457 385 m 361 60 q 449 69 400 60 q 536 102 497 79 q 582 161 575 125 q 583 174 583 165 q 558 228 583 200 q 489 292 532 257 q 333 61 396 178 q 347 60 340 60 q 361 60 353 60 z "},"%":{"ha":694,"x_min":154,"x_max":710,"o":"m 199 -39 q 187 -44 196 -44 q 182 -37 178 -44 q 272 120 211 42 q 409 274 332 199 q 560 419 486 349 l 599 453 q 522 443 564 447 q 435 440 479 439 q 382 365 421 397 q 295 314 343 332 q 203 296 247 296 q 166 309 178 296 q 154 340 154 322 q 171 382 154 357 q 211 428 188 407 q 256 453 235 449 q 274 447 260 453 q 288 438 288 440 q 295 426 299 432 q 288 425 292 421 q 267 421 282 429 q 239 400 253 413 q 217 379 225 388 q 198 355 207 369 q 189 329 189 340 q 211 314 189 314 q 218 314 214 314 q 226 315 222 314 q 282 339 246 319 q 353 386 318 358 q 408 442 389 414 q 322 454 363 444 q 254 481 282 464 q 249 489 249 485 q 258 500 249 496 q 274 503 267 504 l 285 499 q 338 518 308 511 q 389 525 368 525 q 426 514 411 524 q 442 481 442 504 q 440 465 442 471 q 472 463 456 464 q 503 463 488 463 q 567 467 536 463 q 629 481 599 471 l 657 503 q 671 507 661 507 l 676 507 q 699 504 688 507 q 710 496 710 501 q 707 494 708 494 q 704 490 706 493 q 669 459 690 479 q 618 414 647 439 q 466 276 547 351 q 313 122 385 201 q 199 -39 242 42 m 421 468 q 423 476 422 472 q 424 485 424 481 q 413 508 424 501 q 386 515 401 515 q 345 508 363 515 q 317 489 328 500 q 367 477 340 483 q 421 468 394 471 m 467 -25 q 431 -12 442 -25 q 419 18 419 1 q 435 60 419 35 q 475 107 451 86 q 519 132 499 128 q 538 126 525 132 q 551 117 551 119 q 559 106 563 111 q 553 104 556 100 q 532 100 546 108 q 504 79 518 92 q 482 57 490 67 q 463 33 472 47 q 454 8 454 19 q 476 -7 454 -7 q 483 -7 479 -7 q 492 -6 488 -7 q 543 15 511 -3 q 609 57 575 32 q 666 110 643 82 q 689 163 689 138 q 678 186 689 178 q 650 194 667 194 q 597 175 617 194 q 556 135 578 156 q 544 129 550 129 q 529 150 529 129 q 543 174 529 165 q 599 195 567 188 q 654 203 632 203 q 691 192 676 203 q 706 158 706 182 q 683 85 706 119 q 624 27 660 51 q 546 -11 588 3 q 467 -25 504 -25 z "},"&":{"ha":933,"x_min":194,"x_max":1264,"o":"m 372 -51 q 284 -39 325 -51 q 219 4 243 -26 q 194 86 194 35 q 228 185 194 136 q 309 274 261 235 q 400 329 357 313 l 401 329 q 353 372 376 344 q 331 446 331 399 q 363 542 331 497 q 447 622 394 586 q 558 682 499 657 q 674 719 618 707 q 838 739 751 739 q 945 728 894 739 q 1028 694 996 717 q 1060 632 1060 671 q 1038 578 1060 606 q 983 528 1017 551 q 913 488 950 504 q 846 465 876 471 q 833 463 839 464 q 821 463 826 463 q 801 469 801 463 q 822 482 801 478 q 888 503 851 489 q 957 537 924 517 q 1012 579 990 557 q 1033 625 1033 601 q 991 684 1033 668 q 890 700 949 700 q 794 693 844 700 q 704 675 744 686 q 525 614 592 649 q 426 542 458 579 q 383 473 393 506 q 372 417 372 440 q 386 366 372 385 q 422 338 400 347 q 458 347 442 344 q 485 349 474 349 q 515 333 515 349 q 498 310 515 324 q 443 283 481 296 q 355 230 399 268 q 283 145 311 192 q 254 58 254 99 q 283 -1 254 24 q 382 -25 313 -25 q 489 -11 431 -25 q 606 30 547 3 q 713 94 664 57 q 790 177 761 131 q 819 276 819 224 q 819 295 819 286 q 817 314 819 304 q 816 316 817 315 q 815 317 815 317 q 824 324 815 324 q 835 315 831 324 q 846 264 846 294 q 821 171 846 217 q 753 86 796 125 q 660 19 711 47 q 583 -12 631 4 q 480 -40 535 -29 q 372 -51 425 -51 m 519 142 q 513 156 513 142 q 542 269 513 222 q 643 342 572 315 q 778 371 703 363 q 934 386 854 379 q 1085 409 1014 393 q 1208 460 1157 425 q 1229 488 1229 476 q 1226 502 1229 494 q 1213 515 1224 510 q 1202 521 1211 517 q 1190 529 1193 525 q 1199 533 1186 533 q 1242 515 1219 533 q 1264 474 1264 497 q 1224 412 1264 439 q 1085 369 1183 385 q 975 354 1036 361 q 850 338 914 347 q 729 315 786 328 q 633 283 672 303 q 557 226 588 261 q 526 153 526 190 q 519 142 526 142 z "},"(":{"ha":442,"x_min":246,"x_max":871,"o":"m 340 -189 q 274 -106 303 -174 q 246 58 246 -39 q 249 124 246 90 q 261 193 253 158 q 312 322 274 251 q 408 465 350 393 q 537 599 465 538 q 689 700 608 660 q 854 746 769 740 l 856 746 q 866 743 861 746 q 871 736 871 740 q 856 726 871 731 q 722 673 790 714 q 590 572 654 632 q 471 442 525 513 q 379 299 417 372 q 328 160 342 226 q 312 65 318 108 q 306 -17 306 21 q 314 -98 306 -61 q 338 -168 322 -135 q 346 -183 339 -172 q 340 -189 353 -193 z "},")":{"ha":514,"x_min":-26,"x_max":599,"o":"m -11 -193 q -22 -190 -17 -193 q -26 -183 -26 -187 q -11 -174 -26 -178 q 122 -120 54 -161 q 255 -19 190 -79 q 374 110 319 40 q 465 253 428 181 q 517 393 503 326 q 533 489 528 446 q 539 569 539 532 q 531 651 539 614 q 507 721 522 688 q 499 735 506 725 q 504 742 492 746 q 570 660 542 728 q 599 494 599 593 q 595 430 599 464 q 583 360 592 396 q 533 231 571 301 q 437 88 494 160 q 308 -46 379 15 q 156 -147 236 -107 q -10 -193 75 -186 l -11 -193 z "},"*":{"ha":694,"x_min":300,"x_max":819,"o":"m 383 407 q 375 413 378 407 q 376 424 372 418 l 507 606 l 310 622 q 300 632 300 622 q 311 644 300 642 l 519 660 l 475 844 q 481 857 471 854 q 494 853 490 864 l 571 686 l 726 854 q 736 858 731 858 q 744 853 742 858 q 743 842 747 849 l 613 660 l 810 644 q 819 633 819 642 q 817 626 819 631 q 807 622 814 622 l 600 606 l 644 422 q 645 420 644 421 q 646 419 646 419 q 639 408 646 413 q 625 414 628 406 l 547 579 l 393 411 q 383 407 389 407 z "},"+":{"ha":524,"x_min":250,"x_max":647,"o":"m 343 14 q 340 22 340 14 q 342 43 340 31 q 346 63 344 56 q 354 94 347 71 q 370 147 361 118 q 388 202 379 176 q 403 240 397 228 q 367 238 392 240 q 317 233 342 235 q 279 231 292 231 q 261 242 272 231 q 250 263 250 256 q 253 265 251 264 q 254 265 254 265 q 292 270 274 268 q 339 274 310 272 q 415 275 368 275 q 438 335 429 311 q 455 383 446 358 q 478 444 464 407 q 494 458 481 451 q 518 464 507 464 q 533 451 533 464 q 520 412 526 431 q 503 363 514 393 q 468 275 492 333 q 581 269 546 274 q 642 258 615 265 q 647 254 647 257 q 632 247 644 247 q 557 246 594 247 q 454 242 519 244 q 407 140 424 176 q 383 88 390 104 q 374 64 376 71 q 367 49 371 57 q 353 22 363 42 q 349 17 353 21 q 343 14 344 14 z "},",":{"ha":425,"x_min":278,"x_max":404,"o":"m 283 -128 q 278 -124 278 -128 q 290 -107 278 -119 q 318 -72 299 -99 q 346 -15 338 -44 q 322 -3 332 -15 q 313 22 313 8 q 329 58 313 44 q 368 71 346 71 q 404 42 404 71 q 392 -1 404 24 q 353 -72 376 -35 q 294 -125 329 -110 q 283 -128 286 -128 z "},"-":{"ha":711,"x_min":296,"x_max":660,"o":"m 310 233 q 296 243 296 233 q 306 258 296 250 q 339 271 317 265 q 390 276 356 274 q 451 278 424 278 q 483 278 467 278 q 519 279 500 279 q 570 277 543 279 q 628 268 597 275 q 660 256 660 260 q 651 251 660 253 q 628 247 642 249 q 472 238 556 243 q 310 233 388 233 z "},".":{"ha":438,"x_min":321,"x_max":408,"o":"m 349 -14 q 321 15 321 -14 q 325 36 321 26 q 355 63 332 56 q 396 67 378 69 q 408 50 408 65 q 400 21 408 38 q 377 -5 392 4 q 349 -14 363 -14 z "},"/":{"ha":624,"x_min":158,"x_max":935,"o":"m 179 -47 q 166 -43 174 -47 q 160 -33 158 -39 q 201 31 163 -21 q 743 567 372 265 q 802 614 767 586 q 886 676 838 642 q 907 681 897 683 q 931 663 935 681 q 926 657 931 661 l 799 560 q 451 263 588 396 q 240 31 315 131 q 222 5 235 22 q 193 -40 210 -12 q 179 -47 189 -47 z "},":":{"ha":408,"x_min":279,"x_max":510,"o":"m 450 364 q 422 393 422 364 q 426 414 422 404 q 456 440 433 433 q 497 444 479 447 q 510 428 510 443 q 501 399 510 415 q 478 373 493 382 q 450 364 464 364 m 307 -14 q 279 15 279 -14 q 283 36 279 26 q 313 63 290 56 q 354 67 336 69 q 367 50 367 65 q 358 21 367 38 q 335 -5 350 4 q 307 -14 321 -14 z "},";":{"ha":408,"x_min":232,"x_max":517,"o":"m 457 364 q 429 393 429 364 q 433 414 429 404 q 463 440 440 433 q 504 444 486 447 q 517 428 517 443 q 508 399 517 415 q 485 373 500 382 q 457 364 471 364 m 238 -128 q 232 -124 232 -128 q 244 -107 232 -119 q 272 -72 253 -99 q 300 -15 292 -44 q 276 -3 286 -15 q 267 22 267 8 q 283 58 267 44 q 322 71 300 71 q 358 42 358 71 q 346 -1 358 24 q 307 -72 331 -35 q 249 -125 283 -110 q 238 -128 240 -128 z "},"<":{"ha":518,"x_min":193,"x_max":506,"o":"m 382 74 q 372 85 378 74 q 325 165 356 121 q 260 251 294 208 q 196 325 225 293 q 196 333 193 328 q 228 368 199 340 q 313 447 257 396 q 403 525 361 492 q 464 575 444 558 q 493 589 482 589 q 506 578 506 589 q 500 565 506 571 q 450 519 483 550 q 379 453 417 489 q 313 387 342 418 q 272 339 283 356 q 322 236 296 282 q 367 163 347 190 q 388 129 386 135 q 392 103 392 117 q 389 83 392 92 q 382 74 386 74 z "},"=":{"ha":524,"x_min":236,"x_max":643,"o":"m 322 318 q 286 328 286 318 q 349 363 286 346 q 385 368 364 367 q 432 369 406 369 q 497 369 464 369 q 590 363 531 368 q 643 349 643 358 q 590 338 643 338 q 454 331 514 338 q 322 318 394 324 m 272 144 q 236 154 236 144 q 300 189 236 172 q 382 197 332 197 q 444 194 414 197 q 535 183 475 190 q 589 169 589 179 q 535 158 589 161 q 442 152 483 156 q 362 147 401 149 q 272 144 322 144 z "},">":{"ha":442,"x_min":210,"x_max":522,"o":"m 222 65 q 210 76 210 65 q 215 89 210 83 q 265 135 232 104 q 336 201 299 165 q 403 267 374 236 q 443 315 433 299 q 394 418 421 372 q 349 492 368 464 q 328 525 331 521 q 324 551 324 538 q 326 572 324 563 q 333 581 329 581 q 343 569 338 581 q 390 490 360 533 q 456 403 421 446 q 519 329 492 361 q 519 321 522 326 q 489 287 518 314 q 403 207 460 260 q 313 129 354 163 q 251 79 271 96 q 222 65 233 65 z "},"!":{"ha":519,"x_min":278,"x_max":660,"o":"m 390 214 q 382 222 382 214 q 397 257 382 225 q 434 338 411 289 q 484 443 457 388 q 535 547 511 499 q 578 628 560 596 q 600 661 596 660 q 634 658 610 664 q 660 640 658 651 q 528 440 590 543 q 408 229 465 336 q 390 214 401 214 m 306 -14 q 278 15 278 -14 q 282 36 278 26 q 312 63 289 56 q 353 67 335 69 q 365 50 365 65 q 357 21 365 38 q 334 -5 349 4 q 306 -14 319 -14 z "},"?":{"ha":781,"x_min":371,"x_max":957,"o":"m 458 185 q 450 201 450 185 q 454 222 450 210 q 510 307 472 264 q 597 392 549 350 q 692 471 644 433 q 844 613 786 546 q 903 714 903 679 q 833 760 903 760 q 713 744 771 760 q 608 704 656 728 q 531 659 561 681 q 490 626 500 638 q 518 599 506 613 q 539 569 531 585 q 550 531 550 547 q 521 504 550 504 q 481 517 503 504 q 444 551 458 529 q 435 599 431 572 q 441 620 438 608 q 454 639 444 632 q 442 650 449 643 q 425 665 435 657 q 421 672 421 669 q 426 678 421 676 q 438 674 432 679 l 465 649 q 498 678 474 657 q 565 724 522 700 q 669 765 607 747 q 811 782 731 782 q 842 782 826 782 q 875 779 858 782 q 934 759 911 776 q 957 706 957 742 q 957 697 957 701 q 956 686 957 692 q 900 585 946 638 q 790 481 854 533 q 660 379 726 429 q 543 284 594 329 q 471 203 492 239 q 458 185 469 185 m 515 532 q 522 544 522 532 q 518 564 522 556 q 502 589 511 579 q 478 613 493 599 q 480 585 478 607 q 500 542 482 564 q 515 532 510 532 m 399 -14 q 371 15 371 -14 q 375 36 371 26 q 405 63 382 56 q 446 67 428 69 q 458 50 458 65 q 450 21 458 38 q 427 -5 442 4 q 399 -14 413 -14 z "},"@":{"ha":935,"x_min":332,"x_max":1081,"o":"m 561 -6 q 397 42 463 -6 q 332 169 332 89 q 333 193 332 181 q 338 218 335 206 q 396 338 353 279 q 501 448 439 397 q 635 535 564 499 q 776 585 707 571 q 842 595 811 592 q 899 599 872 599 q 1037 560 993 599 q 1081 464 1081 521 q 1044 347 1081 410 q 942 231 1008 285 q 882 193 911 204 q 832 182 853 182 q 786 221 786 182 q 793 265 786 242 q 808 306 800 288 q 768 267 794 292 q 708 216 742 242 q 641 173 675 190 q 576 156 607 156 q 525 178 546 156 q 511 215 511 192 q 531 276 511 243 q 581 340 550 308 q 648 397 611 372 q 719 432 685 421 q 796 447 769 447 q 840 431 826 447 q 857 386 853 415 l 857 385 q 849 369 857 374 q 842 375 842 365 q 837 400 842 383 q 804 417 832 417 q 730 395 772 417 q 647 341 688 374 q 578 274 606 308 q 546 214 550 239 q 574 169 540 169 q 615 181 592 169 q 658 206 638 192 q 686 226 678 219 l 833 346 q 846 349 839 349 q 868 342 861 349 q 871 335 871 339 q 868 322 871 329 q 863 306 865 315 q 838 229 838 256 q 858 208 838 204 q 883 221 869 213 q 911 239 897 229 q 995 346 965 288 q 1025 456 1025 404 q 992 542 1025 507 q 889 576 960 576 q 842 573 867 576 q 788 561 817 569 q 663 507 726 544 q 542 421 599 469 q 447 317 486 372 q 397 210 408 263 q 394 185 396 197 q 392 161 392 172 q 430 60 392 101 q 556 18 468 18 q 740 42 663 18 q 878 110 818 67 q 986 211 938 153 q 1018 238 1008 238 q 1024 228 1024 238 q 1019 206 1024 214 q 928 100 997 149 q 764 23 860 51 q 561 -6 668 -6 z "},"A":{"ha":1397,"x_min":-114,"x_max":1563,"o":"m -7 -299 q -62 -284 -31 -299 q -107 -233 -93 -269 q -114 -199 -114 -215 q -85 -111 -114 -158 q -8 -14 -56 -64 q 125 106 43 39 q 310 245 207 172 q 526 390 413 318 q 756 526 640 463 q 980 639 872 590 q 1178 714 1088 688 q 1332 736 1269 740 q 1420 689 1383 733 q 1457 575 1457 644 q 1438 448 1457 518 q 1390 304 1419 378 q 1324 165 1360 231 q 1433 185 1381 172 q 1517 222 1485 199 q 1547 278 1550 244 l 1547 281 q 1553 293 1547 293 q 1563 271 1563 293 q 1526 207 1563 233 q 1432 165 1489 181 q 1314 142 1375 150 q 1293 89 1306 124 q 1276 29 1281 54 q 1275 20 1275 25 q 1275 10 1275 15 q 1277 -15 1275 -4 q 1279 -31 1279 -26 q 1266 -64 1282 -50 q 1235 -78 1250 -78 q 1214 -60 1215 -78 q 1213 -44 1213 -57 q 1190 3 1206 -25 q 1156 60 1174 32 q 1123 108 1139 88 q 1100 129 1107 128 q 1035 142 1090 132 q 945 157 1000 149 q 838 178 890 165 q 754 210 786 192 q 715 258 715 232 q 722 279 715 271 q 755 301 735 294 q 801 308 775 308 q 890 294 842 308 q 984 258 938 281 q 1069 210 1031 236 q 1126 160 1107 185 q 1154 158 1138 158 q 1192 157 1171 157 q 1283 161 1233 157 q 1340 313 1313 232 q 1384 470 1367 394 q 1401 597 1401 546 q 1370 678 1401 656 q 1290 701 1339 701 q 1117 671 1213 701 q 917 588 1022 640 q 703 467 811 535 q 490 324 594 399 q 295 176 386 250 q 132 38 204 103 q 15 -76 60 -28 q -32 -189 -32 -128 q -22 -236 -32 -214 q 11 -274 -11 -258 q 21 -287 21 -282 q -7 -299 21 -299 m 1057 168 q 999 203 1036 183 q 919 238 961 222 q 836 256 876 253 l 821 256 q 790 244 790 256 q 802 228 790 238 q 825 215 814 219 q 897 195 853 206 q 987 177 942 185 q 1057 168 1032 169 m 1231 6 q 1233 22 1232 14 q 1236 40 1235 31 q 1248 89 1242 64 q 1263 136 1254 114 q 1197 133 1228 135 q 1146 133 1167 132 q 1190 76 1165 111 q 1231 6 1214 42 z "},"B":{"ha":2190,"x_min":10,"x_max":2453,"o":"m 1778 -183 q 1602 -169 1688 -183 q 1453 -132 1517 -156 q 1333 -72 1394 -110 q 1217 16 1271 -35 q 1131 126 1164 67 q 1099 250 1099 186 q 1102 290 1099 269 q 1114 332 1106 311 q 1047 345 1074 335 q 1021 383 1021 356 q 1040 409 1021 403 q 1085 415 1060 415 q 1119 414 1103 415 q 1147 413 1136 413 q 1164 415 1158 413 q 1169 417 1165 417 q 1179 406 1179 417 q 1174 397 1179 401 q 1158 389 1169 392 l 1150 360 q 1165 358 1157 358 q 1181 358 1172 358 q 1210 359 1196 358 q 1235 360 1225 360 q 1273 359 1244 360 q 1331 356 1301 358 q 1371 349 1360 354 q 1383 336 1383 342 q 1376 332 1383 332 q 1365 333 1371 332 q 1297 338 1335 338 q 1219 335 1260 338 q 1143 332 1179 333 q 1135 251 1135 290 q 1222 40 1135 122 q 1460 -92 1310 -43 q 1589 -121 1517 -110 q 1738 -132 1661 -132 q 1906 -116 1824 -132 q 2057 -63 1989 -100 q 2163 35 2125 -26 q 2185 81 2178 58 q 2192 126 2192 104 q 2152 226 2192 183 q 2051 294 2113 269 q 1925 318 1990 318 q 1916 316 1917 318 q 1906 314 1915 314 q 1871 333 1883 314 q 1858 360 1858 351 q 1874 377 1858 374 q 1905 381 1889 381 q 1924 381 1921 381 q 2007 407 1954 388 q 2120 452 2060 426 q 2235 503 2181 478 q 2340 567 2308 538 q 2371 619 2371 596 q 2328 674 2371 651 q 2219 713 2285 697 q 2081 735 2153 728 q 1953 743 2010 743 q 1626 731 1800 743 q 1270 694 1451 718 q 916 636 1089 671 q 592 558 743 601 q 325 463 440 515 q 144 351 210 410 q 79 225 79 292 q 103 172 79 196 q 164 131 126 147 q 244 104 201 114 q 328 94 288 94 q 358 89 358 94 q 343 81 358 85 q 311 76 328 76 q 208 88 261 76 q 110 122 156 100 q 38 175 65 144 q 10 242 10 206 q 74 369 10 308 q 254 482 139 429 q 522 578 369 535 q 851 657 675 622 q 1215 715 1028 692 q 1586 751 1401 739 q 1938 764 1771 764 q 2209 747 2093 764 q 2389 701 2325 731 q 2453 629 2453 671 q 2410 559 2453 597 q 2272 479 2367 521 q 2176 440 2229 460 q 2072 403 2124 419 q 1980 374 2021 386 q 1919 360 1939 363 q 2090 308 2015 346 q 2208 215 2165 269 q 2250 96 2250 160 q 2242 42 2250 69 q 2217 -14 2235 14 q 2110 -113 2179 -76 q 1954 -167 2040 -150 q 1778 -183 1868 -183 m 1540 56 q 1499 97 1510 76 q 1492 140 1489 117 q 1496 156 1493 147 q 1499 171 1499 164 q 1541 258 1507 207 q 1622 364 1575 310 q 1714 464 1668 418 q 1789 536 1760 510 q 1863 581 1850 583 q 1890 566 1876 579 q 1903 542 1903 553 q 1898 529 1903 532 q 1890 524 1893 526 q 1811 474 1856 508 q 1720 395 1767 440 q 1633 301 1674 350 q 1567 204 1593 251 q 1536 119 1540 157 q 1539 93 1535 106 q 1553 67 1543 81 q 1556 58 1556 61 q 1540 56 1556 47 m 1128 363 q 1135 376 1132 369 q 1144 389 1139 383 l 1132 389 q 1119 387 1125 389 q 1111 376 1113 385 l 1111 375 q 1128 363 1111 367 z "},"C":{"ha":1424,"x_min":35,"x_max":1779,"o":"m 625 -175 q 308 -137 440 -175 q 106 -24 176 -99 q 35 156 35 50 q 97 379 35 271 q 274 574 160 488 q 544 709 388 660 q 889 754 700 758 q 974 737 929 753 q 1039 707 1019 721 q 1111 757 1075 732 q 1169 808 1147 782 q 1200 829 1189 829 q 1204 825 1204 829 q 1196 807 1204 819 q 1138 749 1174 778 q 1061 693 1101 721 q 1092 642 1092 668 q 1063 572 1092 603 q 995 522 1033 540 q 926 504 957 504 q 885 536 885 504 q 914 601 885 561 q 955 645 931 625 q 1007 685 979 665 q 968 699 993 694 q 907 707 943 704 q 881 709 893 708 q 854 710 868 710 q 639 678 749 710 q 428 591 529 646 q 246 465 326 536 q 118 313 165 393 q 71 151 71 232 q 191 -49 71 25 q 569 -122 311 -122 q 686 -118 624 -122 q 969 -83 824 -110 q 1257 -6 1114 -56 q 1531 118 1400 43 q 1769 299 1661 193 q 1774 300 1771 300 q 1778 296 1776 300 q 1775 286 1779 292 q 1545 90 1675 174 q 1269 -51 1415 6 q 976 -138 1124 -108 q 693 -174 828 -168 q 658 -175 675 -175 q 625 -175 642 -175 m 942 547 q 969 561 951 547 q 1015 624 1007 593 q 1024 665 1022 656 q 979 629 997 644 q 946 593 961 614 q 933 558 933 575 q 942 547 933 547 z "},"D":{"ha":2679,"x_min":19,"x_max":2776,"o":"m 1851 -132 q 1658 -115 1749 -132 q 1503 -62 1568 -97 q 1481 -43 1481 -50 q 1485 -40 1481 -40 q 1495 -42 1489 -40 q 1511 -46 1501 -43 q 1683 -78 1601 -69 q 1844 -86 1764 -87 q 1957 -76 1889 -85 q 2107 -52 2025 -68 q 2275 -12 2189 -36 q 2442 43 2361 11 q 2588 115 2524 75 q 2696 208 2653 156 q 2739 317 2739 260 q 2701 417 2739 365 q 2578 521 2664 469 q 2368 608 2490 575 q 2101 656 2246 640 q 1796 671 1956 671 q 1457 656 1631 671 q 1114 615 1283 642 q 789 553 944 589 q 501 474 633 517 q 271 383 369 431 q 117 288 172 336 q 61 190 61 239 q 85 138 61 161 q 146 100 108 115 q 225 77 183 85 q 301 69 267 69 q 328 68 307 69 q 371 68 350 67 l 374 68 q 393 65 385 68 q 401 56 401 61 q 389 44 401 49 q 351 37 374 39 q 306 35 328 35 q 212 49 261 35 q 119 88 163 63 q 47 145 75 113 q 19 214 19 178 q 91 344 19 282 q 290 463 163 407 q 583 563 417 518 q 942 641 750 608 q 1334 691 1133 674 q 1729 708 1535 708 q 2077 691 1911 708 q 2378 637 2243 674 q 2604 542 2514 600 q 2729 425 2682 492 q 2776 271 2776 358 q 2738 151 2776 204 q 2632 56 2699 97 q 2481 -17 2565 14 q 2307 -71 2397 -49 q 2130 -106 2217 -93 q 1971 -126 2043 -119 q 1851 -132 1899 -132 m 1240 -143 q 1206 -116 1222 -136 q 1190 -81 1190 -96 q 1201 -41 1190 -65 q 1229 9 1213 -17 q 1261 57 1246 35 q 1285 90 1276 79 q 1350 176 1313 128 q 1428 274 1388 224 q 1504 367 1468 324 q 1510 376 1511 375 q 1503 383 1510 378 q 1500 390 1500 385 q 1507 407 1500 400 q 1572 461 1539 440 q 1608 482 1606 482 q 1635 463 1619 482 q 1651 433 1651 444 q 1638 415 1651 432 q 1601 372 1624 397 q 1553 318 1578 346 q 1508 267 1529 290 q 1374 106 1439 190 q 1261 -51 1308 22 q 1247 -81 1247 -74 q 1251 -85 1247 -85 q 1282 -71 1258 -85 q 1326 -49 1294 -64 q 1393 -13 1357 -33 q 1454 24 1429 7 q 1465 25 1463 28 q 1460 15 1467 22 q 1431 -7 1450 6 q 1392 -33 1413 -19 q 1358 -58 1381 -40 q 1310 -96 1335 -75 q 1268 -135 1285 -117 q 1251 -144 1260 -144 q 1240 -143 1243 -144 z "},"E":{"ha":1493,"x_min":35,"x_max":1813,"o":"m 761 -156 q 474 -122 590 -156 q 298 -30 357 -87 q 239 100 239 28 q 276 240 239 174 q 210 241 240 240 q 161 242 181 242 q 108 253 122 242 q 92 279 94 264 q 107 301 90 294 q 150 307 124 307 q 244 292 192 307 q 271 289 256 290 q 306 285 286 288 q 454 417 361 358 q 663 519 547 476 q 900 589 778 563 q 843 607 871 599 q 789 625 815 615 q 638 669 724 647 q 463 706 553 690 q 294 721 374 721 q 153 700 214 721 q 69 629 92 679 q 64 600 64 617 q 74 563 64 582 q 107 519 83 543 q 177 463 133 492 q 260 415 221 435 q 281 404 269 413 q 297 391 292 396 q 290 389 301 386 q 229 413 271 393 q 145 459 188 432 q 79 513 103 486 q 46 570 57 542 q 35 622 35 599 q 42 658 35 644 q 135 740 68 717 q 290 764 203 764 q 453 749 368 764 q 622 712 539 735 q 772 664 704 689 q 858 634 808 650 q 963 600 907 618 q 1106 619 1035 613 q 1242 626 1176 626 q 1268 626 1256 626 q 1293 625 1281 625 q 1498 587 1418 619 q 1604 513 1578 554 q 1613 483 1613 500 q 1598 449 1613 465 q 1546 433 1583 433 q 1531 434 1539 433 q 1514 436 1524 435 q 1259 486 1397 451 q 992 560 1121 521 q 758 503 876 540 q 541 410 640 465 q 382 281 442 356 q 525 276 447 278 q 679 275 603 275 q 811 276 749 275 q 914 282 874 278 l 925 282 q 940 278 940 282 q 926 270 940 275 q 876 258 911 265 q 767 246 833 250 q 622 240 700 242 q 468 239 544 239 l 354 239 q 315 100 315 174 q 371 -15 315 36 q 557 -90 426 -65 q 664 -104 606 -100 q 790 -108 722 -108 q 1045 -87 911 -108 q 1315 -21 1179 -65 q 1575 93 1450 24 q 1803 257 1700 163 q 1807 258 1804 258 q 1811 254 1810 258 q 1808 246 1813 250 q 1660 116 1743 174 q 1483 13 1576 58 q 1260 -76 1375 -40 q 1031 -132 1144 -112 q 817 -154 918 -151 q 789 -155 803 -154 q 761 -156 775 -156 m 1510 463 q 1549 474 1538 463 q 1560 497 1560 485 q 1556 514 1560 508 q 1455 568 1532 550 q 1275 586 1378 586 q 1175 582 1229 586 q 1060 571 1121 578 q 1217 526 1139 547 q 1365 488 1296 504 q 1482 465 1433 472 q 1497 463 1489 464 q 1510 463 1504 463 z "},"F":{"ha":1713,"x_min":17,"x_max":1886,"o":"m 1218 -172 q 1211 -167 1211 -172 q 1231 -139 1211 -157 q 1311 -58 1258 -112 q 1428 71 1364 -3 q 1551 225 1492 144 q 1343 197 1449 210 q 1142 183 1238 183 q 1106 184 1124 183 q 1072 186 1089 185 q 1008 202 1029 189 q 988 228 988 215 q 999 244 988 238 q 1033 250 1011 251 q 1211 246 1113 246 q 1394 249 1300 246 q 1576 258 1488 253 q 1680 414 1646 344 q 1714 536 1714 483 q 1619 669 1714 626 q 1342 713 1525 713 q 1153 705 1261 713 q 924 682 1046 697 q 680 643 803 667 q 446 587 557 619 q 247 514 335 554 q 109 424 160 474 q 58 317 58 375 q 103 247 58 275 q 217 206 149 219 q 356 193 286 193 q 385 194 371 193 q 414 196 400 194 l 422 196 q 446 188 446 196 q 429 178 446 182 q 385 173 417 175 q 324 170 354 171 q 282 169 294 169 q 160 187 222 169 q 58 237 99 204 q 17 315 17 269 q 63 442 17 386 q 191 542 110 499 q 378 619 272 586 q 604 674 483 651 q 849 710 725 697 q 1092 730 974 724 q 1311 736 1210 736 q 1547 718 1443 736 q 1712 653 1651 700 q 1772 519 1772 607 q 1743 399 1772 464 q 1664 265 1714 333 l 1876 289 l 1878 289 q 1886 281 1886 289 q 1876 271 1886 272 q 1832 265 1864 269 q 1761 256 1800 261 q 1689 246 1722 250 q 1643 239 1656 242 q 1508 82 1582 158 q 1366 -56 1435 6 q 1247 -158 1297 -118 q 1218 -172 1231 -172 z "},"G":{"ha":1632,"x_min":88,"x_max":1736,"o":"m 669 -690 q 580 -679 625 -692 q 506 -636 535 -667 q 476 -554 476 -606 q 476 -541 476 -547 q 478 -529 476 -535 q 542 -385 490 -453 q 674 -259 594 -318 q 847 -151 753 -200 q 1037 -65 942 -103 q 1217 0 1132 -26 q 1363 40 1303 26 q 1449 53 1407 51 q 1499 192 1481 117 q 1518 326 1518 268 q 1506 396 1518 374 q 1399 251 1474 321 q 1224 122 1325 182 q 1006 16 1122 61 q 774 -54 890 -29 q 557 -79 658 -79 q 303 -19 390 -79 q 217 135 217 42 q 232 217 217 174 q 278 304 247 260 q 132 376 176 324 q 88 490 88 429 q 118 590 88 538 q 207 672 149 642 q 231 678 217 678 q 240 675 238 678 q 232 667 242 672 q 142 585 178 635 q 107 490 107 535 q 152 390 107 435 q 294 329 197 344 q 319 359 306 344 q 347 389 333 374 q 513 518 414 456 q 728 629 613 581 q 963 706 844 678 q 1186 735 1082 735 q 1277 721 1239 735 q 1315 671 1315 707 q 1299 622 1315 647 q 1259 576 1282 597 q 1217 539 1236 554 q 1064 451 1158 494 q 852 374 969 408 q 605 318 735 339 q 346 297 475 297 q 285 209 304 250 q 265 132 265 168 q 307 35 265 75 q 419 -24 349 -4 q 572 -44 489 -44 q 778 -18 668 -44 q 1000 54 889 8 q 1210 159 1111 100 q 1381 283 1308 218 q 1486 414 1454 349 q 1484 415 1485 414 q 1482 415 1483 415 q 1476 426 1476 418 q 1488 451 1476 438 q 1531 465 1500 465 q 1578 435 1563 465 q 1594 351 1594 404 q 1579 228 1594 299 q 1528 82 1564 158 l 1515 56 q 1553 53 1535 54 q 1589 50 1571 53 q 1681 30 1638 44 q 1735 -11 1725 15 q 1736 -15 1736 -12 q 1730 -23 1736 -21 q 1721 -19 1724 -25 q 1672 11 1711 0 q 1585 25 1632 22 q 1543 28 1564 28 q 1501 26 1522 28 q 1385 -170 1454 -69 q 1231 -363 1315 -271 q 1053 -529 1147 -456 q 862 -646 960 -603 q 669 -690 764 -689 m 369 322 l 386 322 q 572 338 468 322 q 786 385 676 354 q 996 463 896 417 q 1171 572 1096 510 q 1226 626 1199 596 q 1253 678 1253 656 q 1237 702 1253 693 q 1181 711 1221 711 q 1062 697 1128 711 q 926 658 996 682 q 790 606 856 635 q 672 547 725 576 q 511 442 592 500 q 369 322 431 383 m 647 -665 q 833 -621 740 -665 q 1015 -502 926 -576 q 1183 -337 1104 -428 q 1324 -154 1261 -247 q 1431 19 1388 -61 q 1356 7 1393 15 q 1135 -59 1251 -14 q 905 -167 1019 -104 q 690 -304 790 -229 q 549 -442 593 -376 q 506 -556 506 -507 q 544 -635 506 -606 q 647 -665 583 -665 z "},"H":{"ha":2401,"x_min":25,"x_max":2713,"o":"m 2232 -82 q 2213 -65 2217 -82 q 2211 -59 2211 -62 q 2210 -50 2211 -56 q 2183 -1 2201 -31 q 2143 57 2164 28 q 2104 107 2122 86 q 2079 129 2086 128 q 2014 142 2069 132 q 1925 157 1979 149 q 1818 178 1871 165 q 1733 210 1765 192 q 1694 258 1694 232 q 1701 279 1694 271 q 1761 300 1717 300 q 1850 285 1800 300 q 1950 249 1900 271 q 2040 204 2000 228 q 2099 163 2081 181 q 2185 158 2128 158 q 2216 158 2200 158 q 2249 160 2232 158 q 2333 363 2285 263 q 2436 551 2382 464 q 2542 694 2490 638 q 2572 719 2550 704 q 2620 748 2593 735 q 2669 761 2647 761 q 2701 746 2689 761 q 2708 692 2713 731 q 2699 687 2707 688 q 2690 690 2690 686 q 2691 697 2690 693 q 2692 701 2692 700 q 2678 724 2692 724 q 2649 710 2667 724 q 2615 680 2632 697 q 2585 649 2597 663 q 2571 632 2572 635 q 2474 497 2525 575 q 2376 331 2422 418 q 2300 163 2331 244 q 2411 181 2358 168 q 2497 217 2464 193 q 2526 278 2529 240 l 2526 281 q 2532 293 2526 293 q 2542 271 2542 293 q 2505 207 2542 233 q 2411 165 2468 181 q 2293 142 2354 150 q 2275 78 2283 108 q 2267 19 2267 47 q 2270 -12 2267 3 q 2275 -31 2274 -26 q 2264 -66 2281 -50 q 2232 -82 2247 -82 m 1189 -174 q 1182 -168 1182 -174 q 1203 -140 1182 -160 q 1274 -67 1229 -115 q 1374 44 1319 -19 q 1485 179 1429 108 q 1586 320 1540 250 q 1660 451 1632 390 q 1689 554 1689 511 q 1685 583 1689 571 q 1617 658 1668 631 q 1490 698 1565 686 q 1325 710 1415 710 q 1128 699 1231 710 q 924 673 1025 689 q 733 638 822 657 q 578 603 644 619 q 478 575 511 586 q 276 498 364 539 q 135 413 188 457 q 74 318 82 368 q 92 267 69 289 q 155 230 115 244 q 240 208 194 215 q 325 200 285 200 q 355 199 331 200 q 401 199 379 197 l 406 199 q 425 195 417 199 q 433 186 433 192 q 418 175 433 181 q 374 167 400 169 q 324 165 347 165 q 222 179 275 165 q 123 217 168 193 q 51 274 78 242 q 29 342 25 306 q 425 617 50 503 q 519 641 456 626 q 669 672 582 656 q 858 703 757 689 q 1065 728 958 718 q 1271 738 1171 738 q 1458 726 1371 738 q 1609 686 1544 714 q 1708 612 1674 658 q 1733 496 1742 565 q 1688 364 1726 436 q 1592 217 1650 292 q 1466 70 1533 142 q 1334 -60 1399 -1 q 1219 -160 1269 -119 q 1189 -174 1201 -174 m 2036 168 q 1929 221 1985 200 q 1814 246 1874 242 q 1803 247 1808 247 q 1793 247 1797 247 q 1769 240 1769 247 q 1781 227 1769 235 q 1804 215 1793 219 q 1876 196 1832 207 q 1966 177 1921 185 q 2036 168 2011 169 m 2210 6 q 2213 22 2211 14 q 2215 40 2214 31 q 2227 89 2221 64 q 2242 136 2233 114 q 2176 133 2207 135 q 2125 133 2146 132 q 2169 76 2144 111 q 2210 6 2193 42 z "},"I":{"ha":1290,"x_min":19,"x_max":1474,"o":"m 307 -218 q 89 -157 158 -218 q 19 -10 19 -96 q 122 215 19 104 q 51 227 79 217 q 24 267 24 238 q 43 292 24 286 q 88 299 63 299 q 122 297 106 299 q 150 296 139 296 q 167 299 161 296 q 172 300 169 300 q 182 290 182 300 q 174 278 182 285 q 147 272 167 272 l 135 272 q 122 270 128 272 q 114 260 115 268 l 114 258 q 125 248 114 251 q 151 243 136 244 l 171 260 q 200 275 190 275 q 213 265 213 275 q 204 253 213 260 l 192 242 q 217 242 206 242 q 238 243 229 243 q 276 242 247 243 q 333 240 304 242 q 374 232 363 238 q 386 219 386 225 q 379 215 386 215 q 368 217 374 215 q 301 221 338 221 q 232 219 268 221 q 161 215 196 217 q 85 115 110 165 q 61 18 61 64 q 131 -115 61 -61 q 332 -169 201 -169 q 563 -129 444 -169 q 793 -27 682 -89 q 996 101 904 35 q 992 134 994 117 q 990 169 990 151 q 1006 317 990 238 q 1054 476 1022 397 q 1133 619 1086 554 q 1240 723 1179 683 q 1375 763 1301 763 q 1447 735 1419 763 q 1474 657 1474 707 q 1453 563 1474 617 q 1386 443 1433 508 q 1241 277 1329 364 q 1056 115 1153 190 q 1067 45 1058 85 q 1089 -31 1075 6 q 1125 -92 1103 -68 q 1176 -115 1147 -115 q 1228 -101 1201 -115 q 1281 -63 1256 -86 q 1321 -17 1306 -40 q 1329 -11 1325 -11 q 1333 -17 1332 -11 q 1329 -28 1333 -22 q 1249 -122 1289 -92 q 1157 -151 1210 -151 q 1078 -117 1111 -151 q 1025 -31 1044 -82 q 999 72 1006 21 q 788 -65 901 1 q 551 -175 674 -132 q 307 -218 429 -218 m 1053 144 q 1217 290 1139 211 q 1346 442 1294 369 q 1426 578 1401 519 q 1450 675 1450 638 q 1435 724 1450 707 q 1393 740 1419 740 q 1308 708 1358 740 q 1201 611 1258 676 q 1117 472 1151 553 q 1067 305 1083 390 q 1053 144 1050 219 z "},"J":{"ha":1736,"x_min":31,"x_max":1817,"o":"m 610 -639 q 510 -627 560 -639 q 429 -587 461 -615 q 397 -512 397 -560 q 398 -499 397 -506 q 400 -487 399 -493 q 497 -324 417 -401 q 697 -185 578 -247 q 874 -103 776 -143 q 1081 -29 972 -62 q 1301 26 1190 4 q 1514 54 1411 49 q 1547 104 1532 79 q 1576 153 1563 129 q 1668 338 1629 244 q 1707 504 1707 432 q 1681 585 1707 553 q 1614 635 1656 617 q 1524 663 1572 654 q 1426 675 1475 672 q 1340 678 1378 678 q 1082 658 1221 678 q 802 604 943 639 q 533 521 661 569 q 303 414 404 472 q 143 290 201 356 q 85 153 85 224 q 115 72 85 103 q 194 26 146 40 q 290 11 242 11 q 346 15 319 11 q 355 17 350 17 q 364 17 360 17 q 383 15 375 17 q 390 11 390 14 q 371 1 390 7 q 272 -11 324 -11 q 153 9 208 -11 q 65 68 99 29 q 31 161 31 107 q 78 310 31 242 q 207 435 125 379 q 396 535 289 490 q 624 612 503 579 q 870 666 746 644 q 1111 698 994 688 q 1325 708 1228 708 q 1485 697 1408 708 q 1620 660 1561 686 q 1713 590 1679 633 q 1747 485 1747 547 q 1732 376 1747 439 q 1690 248 1717 314 q 1631 125 1664 182 q 1610 90 1621 107 q 1588 56 1599 72 q 1619 55 1603 56 q 1650 53 1635 54 q 1755 34 1706 47 q 1815 -4 1804 21 q 1817 -8 1817 -6 q 1810 -16 1817 -14 q 1800 -12 1803 -18 q 1745 17 1790 7 q 1647 31 1700 26 q 1610 32 1629 32 q 1571 32 1590 32 q 1415 -164 1503 -67 q 1228 -347 1328 -261 q 1024 -498 1129 -432 q 813 -601 918 -564 q 610 -639 708 -639 m 590 -615 q 783 -577 683 -615 q 983 -473 883 -539 q 1177 -324 1083 -407 q 1352 -149 1271 -240 q 1496 28 1433 -58 q 1201 -25 1353 17 q 908 -130 1050 -67 q 646 -268 765 -193 q 484 -399 533 -336 q 435 -510 435 -461 q 477 -586 435 -557 q 590 -615 519 -615 z "},"K":{"ha":1875,"x_min":3,"x_max":2567,"o":"m 813 -396 q 799 -392 807 -396 q 793 -385 792 -389 q 923 -188 825 -297 q 1158 35 1021 -79 l 1140 49 q 1024 -78 1078 -22 q 940 -158 969 -135 q 910 -172 922 -172 q 903 -167 903 -172 q 922 -139 903 -157 q 960 -97 931 -131 q 1031 -16 990 -62 q 1108 75 1071 31 q 1037 139 1072 107 q 967 206 1001 171 q 963 215 963 210 q 979 231 963 231 q 997 222 988 231 q 1131 101 1063 158 q 1167 144 1150 125 q 1193 176 1183 164 q 1256 251 1219 207 q 1329 345 1293 294 q 1389 447 1365 396 q 1413 544 1413 499 q 1410 566 1413 556 q 1406 586 1408 576 q 1292 685 1379 657 q 1089 713 1204 713 q 915 701 1006 713 q 737 674 825 690 q 572 638 649 657 q 440 601 496 618 q 360 574 385 585 q 138 452 225 518 q 42 311 51 386 q 56 259 38 282 q 106 221 75 236 q 173 198 138 206 q 239 190 208 190 q 262 189 243 190 q 299 189 281 188 l 301 189 q 318 185 311 189 q 325 176 325 182 q 313 165 325 172 q 278 158 299 160 q 239 156 258 156 q 158 169 200 156 q 81 208 117 183 q 24 265 44 233 q 7 335 3 297 q 103 485 15 414 q 338 614 190 556 q 415 639 360 624 q 545 673 469 654 q 710 708 621 692 q 891 734 799 724 q 1071 744 983 744 q 1258 726 1174 744 q 1393 661 1343 707 q 1443 536 1443 615 q 1443 522 1443 529 q 1442 507 1443 514 q 1413 422 1438 472 q 1349 314 1388 372 q 1262 194 1310 256 q 1164 76 1214 133 l 1188 58 q 1446 254 1307 157 q 1728 441 1585 351 q 2010 606 1872 531 q 2268 735 2147 681 q 2479 817 2389 790 q 2525 825 2504 825 q 2567 794 2567 825 q 2547 744 2567 774 q 2529 724 2542 735 q 2510 713 2517 713 q 2507 717 2507 713 q 2511 731 2507 721 q 2529 781 2529 767 q 2514 793 2529 793 q 2501 792 2508 793 q 2486 788 2494 790 q 2297 713 2410 767 q 2051 583 2185 660 q 1774 416 1917 507 q 1491 226 1631 325 q 1229 29 1351 126 q 1661 -175 1429 -106 q 2143 -244 1893 -244 q 2202 -240 2168 -244 q 2269 -222 2236 -235 q 2322 -188 2301 -210 q 2343 -135 2343 -167 q 2338 -101 2343 -118 q 2335 -92 2336 -96 q 2335 -83 2335 -87 q 2343 -67 2335 -67 q 2360 -87 2351 -67 q 2372 -151 2372 -122 q 2342 -232 2372 -200 q 2266 -282 2313 -264 q 2168 -308 2219 -300 q 2074 -315 2117 -315 q 1608 -226 1829 -312 q 1197 4 1388 -139 q 951 -216 1053 -112 q 821 -393 849 -319 q 813 -396 819 -396 z "},"L":{"ha":685,"x_min":24,"x_max":1421,"o":"m 1215 -358 q 1160 -356 1188 -358 q 1104 -349 1132 -353 q 913 -285 1008 -332 q 720 -171 817 -237 q 530 -28 624 -104 q 344 119 436 47 q 317 63 335 103 q 274 -22 299 22 q 224 -99 250 -67 q 172 -131 197 -131 q 140 -114 156 -131 q 108 -55 124 -94 q 78 33 92 -15 q 53 131 64 82 q 35 220 42 181 q 26 279 28 260 q 38 351 24 332 q 67 369 53 369 q 160 315 100 369 q 313 182 219 261 l 385 317 q 365 328 382 319 q 328 353 349 336 q 291 396 307 369 q 275 460 275 422 q 276 472 275 465 q 278 485 276 479 q 290 506 282 506 q 297 493 297 506 q 297 481 297 486 q 296 469 296 475 q 310 410 296 433 q 342 372 324 386 q 376 352 361 358 q 396 343 392 346 q 519 578 456 464 q 656 783 583 692 q 811 926 728 874 q 993 979 894 979 q 1096 944 1065 979 q 1126 857 1126 908 q 1109 769 1126 815 q 1063 685 1092 724 q 949 560 1018 626 q 795 437 879 494 q 620 344 711 379 q 443 311 529 310 q 419 262 435 293 q 386 199 403 231 q 358 147 369 168 q 593 -35 474 53 q 838 -187 713 -122 q 1094 -283 964 -253 q 1166 -297 1131 -292 q 1233 -301 1201 -301 q 1350 -276 1303 -301 q 1397 -194 1397 -251 q 1390 -151 1397 -176 q 1386 -129 1386 -139 q 1392 -115 1386 -115 q 1406 -139 1397 -115 q 1421 -219 1421 -187 q 1392 -303 1421 -272 q 1316 -346 1363 -333 q 1215 -358 1269 -358 m 453 332 q 612 373 536 340 q 751 448 688 406 q 863 533 815 490 q 936 601 910 575 q 1042 741 1004 671 q 1079 861 1079 811 q 1060 917 1079 896 q 999 938 1040 938 q 883 902 942 938 q 767 809 824 867 q 660 683 711 751 q 568 546 610 614 q 497 421 526 478 q 453 332 467 364 m 154 -58 q 210 -1 174 -61 q 299 157 247 60 q 174 264 224 219 q 97 310 125 308 l 94 310 q 71 279 71 310 q 77 211 71 258 q 94 109 83 164 q 121 8 106 54 q 154 -58 136 -39 z "},"M":{"ha":2407,"x_min":51,"x_max":2768,"o":"m 1267 -222 q 1242 -212 1253 -222 q 1231 -186 1231 -201 q 1254 -127 1231 -172 q 1317 -14 1278 -82 q 1402 134 1356 54 q 1495 298 1449 214 q 1581 458 1542 382 q 1635 586 1613 522 q 1658 701 1658 650 q 1622 793 1658 758 q 1496 828 1586 828 q 1251 802 1382 828 q 986 731 1121 776 q 723 624 851 685 q 482 494 594 564 q 284 349 369 424 q 150 201 199 275 q 101 61 101 128 q 133 -19 101 1 q 208 -40 165 -40 q 273 -33 240 -40 q 332 -21 306 -26 q 343 -19 336 -19 q 363 -28 363 -19 q 351 -37 363 -33 q 285 -53 319 -47 q 217 -60 250 -60 q 100 -29 149 -60 q 51 78 51 1 q 100 219 51 146 q 235 369 149 293 q 435 515 321 444 q 681 646 549 585 q 955 753 814 707 q 1235 826 1096 800 q 1503 851 1375 851 q 1673 810 1624 851 q 1722 700 1722 769 q 1697 576 1722 644 q 1635 435 1672 508 q 1571 313 1606 376 q 1504 193 1536 250 q 1450 96 1472 136 q 1424 42 1428 56 q 1486 126 1447 74 q 1575 240 1525 178 q 1681 366 1625 303 q 1794 483 1738 429 q 1906 573 1851 538 q 2007 614 1961 608 q 2021 615 2014 615 q 2033 615 2028 615 q 2084 602 2065 615 q 2103 564 2103 589 q 2088 514 2103 544 q 2051 444 2075 490 q 2003 344 2028 397 q 1961 245 1978 290 q 1944 179 1944 200 q 1978 208 1951 183 q 2040 263 2006 232 q 2102 320 2074 294 q 2142 353 2131 346 q 2172 364 2157 364 q 2214 333 2201 364 q 2231 272 2224 311 q 2246 191 2239 233 q 2261 113 2253 149 q 2281 63 2269 78 q 2306 42 2290 49 q 2340 35 2322 35 q 2380 40 2360 35 q 2419 56 2400 46 q 2540 128 2478 85 q 2658 219 2601 172 l 2746 292 q 2760 300 2757 300 q 2747 269 2768 300 q 2676 197 2725 238 q 2551 102 2617 149 q 2424 28 2486 56 q 2348 -1 2381 8 q 2292 -10 2315 -10 q 2226 19 2247 -10 q 2194 97 2204 47 q 2174 207 2185 146 q 2160 275 2168 247 q 2135 303 2153 303 q 2111 293 2125 303 q 2060 252 2092 281 q 1996 191 2029 224 q 1938 132 1963 158 q 1907 96 1914 106 q 1885 81 1896 81 q 1865 111 1865 81 q 1876 148 1865 118 q 1903 222 1886 178 q 1939 315 1919 267 q 1978 410 1958 364 q 2011 486 1997 456 q 2019 509 2015 494 q 2022 538 2022 524 q 2016 564 2022 553 q 1994 575 2010 575 q 1953 561 1979 575 q 1809 456 1883 524 q 1662 303 1735 388 q 1521 127 1589 218 q 1394 -51 1453 36 q 1293 -207 1336 -137 q 1267 -222 1283 -222 z "},"N":{"ha":1379,"x_min":-6,"x_max":1960,"o":"m 332 -229 q 231 -217 279 -229 q 116 -158 167 -197 q 40 -57 65 -119 q 38 -46 39 -50 q 38 -39 38 -42 q 42 -29 38 -29 q 57 -53 50 -29 q 128 -151 81 -114 q 240 -199 175 -187 q 276 -204 258 -203 q 311 -206 293 -206 q 430 -187 372 -206 q 535 -143 488 -169 q 667 -48 594 -111 q 818 98 740 15 q 969 274 896 181 q 1101 460 1042 367 q 1197 636 1161 553 q 1086 747 1158 714 q 924 779 1014 779 q 851 775 889 779 q 499 663 663 753 q 204 454 336 574 q 118 371 160 414 q 51 289 76 328 q 25 221 25 250 q 17 213 25 213 q 6 224 10 213 q -2 251 1 239 q -6 274 -6 264 q -3 289 -6 281 q 40 363 8 324 q 114 442 71 403 q 201 517 157 482 q 506 701 342 626 q 843 793 669 775 q 925 797 885 797 q 1091 772 1015 797 q 1217 685 1167 746 l 1225 710 q 1240 736 1235 736 q 1247 728 1244 736 q 1250 711 1250 721 q 1249 700 1250 703 l 1233 661 q 1258 614 1247 639 q 1276 560 1269 589 q 1292 463 1288 513 q 1297 361 1297 413 q 1294 278 1297 319 q 1288 197 1292 238 q 1372 366 1322 278 q 1481 537 1421 454 q 1608 684 1540 619 q 1747 785 1675 749 q 1893 814 1819 821 q 1939 795 1918 813 q 1960 750 1960 778 q 1956 728 1960 740 q 1951 719 1954 724 q 1944 715 1947 715 q 1942 731 1940 715 q 1923 769 1947 763 q 1869 776 1899 776 q 1750 735 1814 776 q 1620 626 1686 693 q 1493 477 1554 558 q 1383 315 1432 396 q 1301 167 1333 233 q 1288 135 1294 151 q 1275 104 1282 119 q 1263 37 1269 69 q 1249 -25 1256 4 q 1226 -49 1246 -36 q 1214 -153 1214 -107 q 1203 -168 1213 -168 q 1193 -158 1193 -168 q 1192 -144 1192 -151 q 1192 -131 1192 -137 q 1200 -60 1192 -97 l 1196 -60 q 1181 -42 1175 -60 q 1207 81 1194 10 q 1228 231 1219 151 q 1238 392 1238 311 q 1235 465 1238 429 q 1228 536 1233 501 q 1220 573 1225 556 q 1210 607 1215 590 q 1081 367 1156 489 q 922 138 1007 246 q 749 -53 836 29 q 579 -174 661 -135 q 463 -213 528 -197 q 332 -229 397 -229 z "},"O":{"ha":1513,"x_min":-8,"x_max":1678,"o":"m 879 -69 q 715 -12 768 -69 q 663 131 663 46 q 709 310 663 214 q 843 489 756 406 q 949 572 888 531 q 1081 649 1010 614 q 1226 704 1151 683 q 1372 725 1301 725 q 1439 715 1407 725 q 1471 679 1471 704 q 1469 667 1471 671 q 1445 631 1463 644 q 1408 604 1428 617 q 1401 604 1407 603 q 1400 611 1394 606 l 1417 631 q 1428 663 1428 650 q 1357 694 1428 694 q 1228 669 1297 694 q 1090 603 1158 644 q 962 515 1021 563 q 864 424 903 468 q 742 245 779 325 q 704 107 704 165 q 753 -6 704 33 q 878 -44 801 -44 q 1002 -23 929 -44 q 1157 39 1075 -1 q 1318 135 1239 79 q 1461 258 1397 190 q 1564 403 1525 325 q 1603 564 1603 481 q 1551 715 1603 654 q 1413 813 1500 775 q 1216 866 1326 850 q 986 882 1106 882 q 732 862 863 882 q 480 802 601 842 q 262 703 358 763 q 108 567 165 644 q 51 392 51 489 q 76 292 51 340 q 178 219 101 243 q 247 203 206 211 q 311 196 289 194 l 317 196 q 338 190 338 196 q 321 182 338 186 q 301 180 311 181 q 279 179 290 179 q 189 190 236 179 q 44 273 96 217 q -8 393 -8 329 q 49 565 -8 486 q 206 709 107 644 q 434 819 306 774 q 705 888 563 864 q 989 913 847 913 q 1121 908 1047 913 q 1272 892 1194 904 q 1421 856 1349 879 q 1551 794 1493 832 q 1644 703 1610 757 q 1678 572 1678 649 q 1640 403 1678 485 q 1538 249 1603 321 q 1392 119 1474 178 q 1220 19 1310 61 q 1043 -47 1131 -24 q 879 -69 956 -69 z "},"P":{"ha":1815,"x_min":86,"x_max":2229,"o":"m 343 215 q 228 230 285 215 q 135 278 172 244 q 93 365 97 311 q 154 526 86 454 q 349 651 222 597 q 646 742 475 706 q 1018 796 817 778 q 1436 814 1219 814 q 1635 810 1535 814 q 1847 790 1742 806 q 2039 749 1953 775 q 2177 688 2125 722 q 2229 610 2229 653 q 2188 536 2229 575 q 2054 454 2147 497 q 1878 394 1976 418 q 1677 357 1781 369 q 1478 340 1574 344 q 1432 342 1444 339 q 1419 350 1419 344 q 1433 363 1419 357 q 1456 368 1446 369 q 1521 364 1485 364 q 1677 378 1592 364 q 1849 422 1763 393 q 2007 490 1935 450 q 2104 561 2075 528 q 2133 621 2133 594 q 2102 676 2133 651 q 2019 720 2071 701 q 1906 752 1968 739 q 1779 773 1843 765 q 1661 783 1715 781 q 1566 788 1614 786 q 1469 789 1518 789 q 1159 776 1317 789 q 853 740 1001 764 q 576 679 704 715 q 349 594 447 643 q 197 485 251 546 q 142 351 142 424 q 163 286 142 310 q 219 252 185 263 q 290 239 253 242 q 360 236 328 236 q 380 232 371 236 q 389 222 389 228 q 378 217 389 218 q 360 215 369 215 q 343 215 351 215 m 1243 -31 q 1201 -5 1215 -28 q 1188 56 1188 18 q 1205 147 1188 94 q 1252 257 1222 199 q 1318 369 1282 315 q 1404 491 1361 435 q 1487 581 1447 547 q 1556 615 1526 615 q 1588 601 1571 615 q 1606 574 1606 588 q 1601 560 1606 564 q 1594 553 1597 556 q 1509 485 1557 532 q 1411 379 1461 439 q 1319 256 1361 319 q 1252 137 1278 193 q 1226 43 1226 81 q 1231 14 1226 29 q 1249 -8 1235 -1 q 1256 -21 1256 -11 q 1243 -31 1256 -32 z "},"Q":{"ha":1300,"x_min":17,"x_max":1564,"o":"m 1324 -383 q 1288 -382 1306 -383 q 1257 -379 1271 -381 q 1070 -326 1160 -368 q 897 -227 981 -285 q 732 -111 814 -169 q 710 -113 721 -112 q 688 -114 699 -114 q 510 -54 560 -114 q 468 94 460 6 q 349 191 397 153 q 274 231 300 229 l 271 231 q 247 200 247 231 q 256 131 247 172 q 280 53 264 89 q 318 7 296 18 q 325 0 325 4 q 321 -4 325 -3 q 310 -3 317 -6 q 260 46 283 10 q 221 124 236 82 q 203 200 206 167 q 215 272 200 253 q 243 290 229 290 q 331 242 275 290 q 471 119 386 193 q 539 306 485 207 q 671 490 593 406 q 804 601 728 553 q 965 678 881 650 q 1128 707 1049 707 q 1170 697 1151 706 q 1189 668 1189 688 q 1172 628 1189 643 q 1140 599 1156 613 q 1135 598 1139 597 q 1133 604 1131 599 l 1146 624 q 1154 651 1154 639 q 1107 679 1154 679 q 998 656 1057 679 q 880 592 939 632 q 769 505 821 553 q 679 408 717 457 q 563 227 604 308 q 511 85 522 146 q 560 46 535 67 q 613 6 585 25 q 673 -38 643 -17 q 733 -79 703 -60 q 922 -15 819 -64 q 1123 110 1024 33 q 1297 285 1222 186 q 1394 447 1363 371 q 1426 586 1426 522 q 1299 801 1426 719 q 939 899 1171 882 q 833 903 888 903 q 632 889 733 903 q 438 848 531 875 q 271 778 346 821 q 148 680 196 736 q 89 551 100 624 q 88 541 88 546 q 88 531 88 536 q 113 453 88 488 q 182 395 139 418 q 274 363 225 372 q 294 356 294 361 q 279 350 294 351 q 222 353 250 349 q 167 365 193 357 q 53 445 90 393 q 24 551 17 497 q 88 682 36 622 q 222 788 140 742 q 403 865 303 833 q 616 913 504 896 q 840 929 728 929 q 944 925 893 929 q 1159 890 1060 917 q 1334 821 1258 864 q 1452 717 1410 778 q 1494 576 1494 656 q 1460 428 1494 508 q 1347 253 1425 347 q 1173 84 1271 158 q 972 -40 1075 10 q 775 -106 868 -89 q 1054 -251 932 -203 q 1289 -322 1176 -299 q 1328 -328 1306 -325 q 1374 -331 1350 -331 q 1447 -322 1411 -331 q 1506 -289 1483 -312 q 1529 -224 1529 -265 q 1517 -153 1529 -186 q 1486 -94 1506 -121 q 1483 -86 1483 -92 q 1489 -82 1483 -82 q 1508 -90 1496 -82 q 1552 -153 1540 -114 q 1564 -222 1564 -193 q 1541 -304 1564 -272 q 1482 -353 1518 -336 q 1403 -377 1446 -371 q 1324 -383 1361 -383 m 667 -86 q 681 -85 674 -86 q 696 -85 689 -85 l 608 -18 l 508 61 q 543 -49 503 -11 q 667 -86 583 -86 z "},"R":{"ha":1894,"x_min":79,"x_max":2600,"o":"m 2310 -250 q 2283 -250 2296 -250 q 2260 -249 2271 -250 q 2042 -206 2149 -243 q 1838 -112 1936 -169 q 1655 10 1740 -56 q 1500 142 1569 76 q 1382 263 1431 208 q 1196 50 1292 143 q 1014 -85 1100 -43 q 796 -131 914 -131 q 665 -112 728 -131 q 555 -52 601 -93 q 488 54 508 -11 q 485 65 486 61 q 485 72 485 69 q 489 82 485 82 q 504 58 497 82 q 575 -40 528 -3 q 688 -87 622 -76 q 723 -93 706 -92 q 758 -94 740 -94 q 877 -76 819 -94 q 982 -32 935 -58 q 1155 99 1057 8 q 1347 301 1253 189 q 1253 398 1297 357 q 1189 440 1208 439 l 1186 440 q 1163 410 1163 440 q 1179 334 1163 367 q 1229 286 1196 301 q 1235 279 1235 283 q 1219 276 1235 269 q 1149 331 1181 296 q 1118 419 1118 365 q 1139 474 1118 464 q 1174 485 1160 485 q 1249 440 1200 486 q 1361 317 1297 393 q 1523 533 1447 422 q 1642 742 1599 644 q 1306 724 1481 740 q 963 675 1132 707 q 642 598 793 643 q 376 495 492 553 q 193 367 260 438 q 126 217 126 297 q 151 156 126 176 q 213 128 175 135 q 288 122 250 122 q 315 123 301 122 q 340 124 328 124 l 343 124 q 361 119 354 124 q 368 111 368 115 q 357 104 368 106 q 296 100 326 100 q 191 114 240 100 q 110 160 142 128 q 79 243 79 192 q 140 392 79 322 q 310 521 200 463 q 567 625 419 579 q 891 703 715 671 q 1259 751 1067 735 q 1650 768 1451 768 l 1653 768 l 1672 821 q 1688 847 1682 847 q 1694 840 1692 847 q 1697 822 1697 832 q 1696 811 1697 814 q 1688 790 1692 801 q 1678 768 1683 779 q 1879 758 1781 768 q 2058 726 1978 747 q 2185 674 2138 706 q 2233 603 2233 643 q 2191 525 2233 568 q 2051 433 2149 482 q 1872 364 1971 393 q 1668 317 1772 335 q 1467 289 1564 299 q 1449 288 1457 288 q 1435 288 1442 288 q 1408 296 1407 288 q 1401 287 1404 292 q 1394 278 1397 282 q 1538 142 1454 208 q 1719 19 1622 76 q 1913 -83 1815 -37 q 2099 -158 2011 -129 q 2251 -196 2186 -187 q 2324 -204 2289 -201 q 2390 -207 2360 -207 q 2526 -185 2475 -207 q 2578 -115 2578 -162 q 2571 -78 2578 -101 q 2569 -69 2569 -74 q 2568 -61 2568 -65 q 2575 -49 2568 -49 q 2588 -65 2582 -49 q 2600 -119 2600 -96 q 2572 -185 2600 -160 q 2498 -225 2543 -211 q 2403 -244 2453 -239 q 2310 -250 2353 -250 m 1413 303 q 1446 315 1428 315 q 1463 314 1454 314 q 1481 314 1471 314 q 1644 333 1553 314 q 1830 386 1735 351 q 2006 468 1925 421 q 2109 546 2078 511 q 2140 608 2140 581 q 2110 661 2140 639 q 2028 699 2079 683 q 1917 725 1978 715 q 1792 739 1856 735 q 1675 743 1729 743 l 1667 743 q 1554 522 1619 636 q 1413 303 1489 408 z "},"S":{"ha":760,"x_min":-96,"x_max":1250,"o":"m 443 -182 q 259 -134 343 -182 q 119 -10 175 -86 q 43 151 63 67 q -52 178 -11 158 q -96 219 -93 197 q -88 240 -96 232 q -58 249 -81 249 q -15 243 -39 249 q 28 222 14 238 q 47 192 43 206 q 216 176 110 185 q 446 165 322 168 q 443 174 444 169 q 440 182 442 178 q 428 219 433 201 q 417 250 422 236 q 358 437 386 340 q 335 619 331 533 q 385 749 339 696 q 504 834 432 801 q 658 881 576 867 q 814 896 740 896 q 974 883 896 896 q 1114 843 1051 869 q 1213 777 1176 817 q 1250 685 1250 738 q 1219 615 1250 647 q 1139 557 1188 582 q 1040 518 1090 532 q 949 504 989 504 q 936 509 940 504 q 932 519 932 514 q 949 535 932 535 q 1033 545 988 535 q 1122 575 1079 556 q 1191 621 1164 594 q 1218 681 1218 647 q 1178 758 1218 728 q 1077 806 1139 789 q 947 831 1015 824 q 822 838 879 838 q 601 814 686 838 q 467 754 515 790 q 399 678 419 718 q 374 604 378 638 q 369 553 369 571 q 392 397 369 475 q 440 249 414 319 q 454 216 446 235 q 468 181 463 197 l 474 165 l 518 165 q 724 172 622 165 q 915 198 826 179 q 1068 249 1004 217 q 1075 250 1071 250 q 1078 247 1078 250 q 1064 229 1078 240 q 929 177 1019 199 q 724 144 839 156 q 489 131 610 133 q 535 24 511 83 q 558 -86 558 -36 q 533 -155 558 -128 q 443 -182 508 -182 m 404 -128 q 469 -107 446 -128 q 493 -46 493 -86 q 483 38 493 -8 q 458 129 474 83 q 243 133 347 128 q 61 151 139 139 q 157 -2 101 57 q 273 -90 213 -61 q 385 -126 333 -119 q 395 -128 390 -128 q 404 -128 400 -128 z "},"T":{"ha":1060,"x_min":-25,"x_max":1806,"o":"m 290 -239 q 183 -225 231 -239 q 61 -160 115 -204 q -21 -46 7 -115 q -25 -26 -25 -33 q -19 -15 -25 -15 q -3 -42 -10 -15 q 73 -151 22 -110 q 193 -204 124 -192 q 269 -212 233 -212 q 397 -192 335 -212 q 510 -142 458 -172 q 632 -53 565 -111 q 771 83 699 6 q 914 247 843 160 q 1047 425 985 335 q 1159 601 1110 515 q 1236 757 1208 686 q 1069 761 1161 761 q 851 754 965 761 q 623 733 736 747 q 409 694 510 718 q 231 638 308 671 q 108 561 153 604 q 63 463 63 518 q 96 398 63 426 q 183 349 129 369 q 299 315 236 328 q 421 299 363 303 q 444 294 435 297 q 453 286 453 290 q 438 279 453 281 q 424 278 432 278 q 408 278 417 278 q 336 282 375 278 q 282 288 297 286 q 160 319 221 294 q 60 382 100 343 q 21 468 21 421 q 76 597 21 543 q 228 688 132 651 q 444 747 324 725 q 696 779 565 769 q 951 789 826 789 q 1243 776 1117 789 l 1251 800 q 1267 826 1261 826 q 1274 819 1271 826 q 1276 801 1276 811 q 1275 790 1276 793 q 1272 782 1274 786 q 1269 775 1271 778 q 1283 773 1276 774 q 1294 772 1289 772 q 1544 728 1433 757 q 1723 660 1654 699 q 1801 576 1792 622 q 1806 543 1806 558 q 1799 509 1806 521 q 1786 497 1793 497 q 1768 524 1774 497 q 1710 623 1756 582 q 1599 690 1664 664 q 1460 730 1533 715 q 1322 750 1388 744 l 1261 756 q 1159 543 1219 656 q 1025 319 1099 431 q 872 108 951 207 q 711 -65 792 10 q 557 -176 631 -140 q 431 -221 501 -203 q 290 -239 360 -239 z "},"U":{"ha":1733,"x_min":39,"x_max":1854,"o":"m 1621 -149 q 1561 -131 1583 -149 q 1528 -86 1539 -112 q 1515 -33 1518 -60 q 1513 11 1513 -6 q 1526 135 1513 71 q 1560 260 1539 199 q 1604 372 1582 322 q 1615 398 1610 385 q 1626 424 1621 411 q 1553 339 1597 389 q 1456 235 1508 289 q 1347 132 1403 182 q 1242 46 1292 82 q 1156 -1 1200 15 q 1076 -17 1113 -17 q 1024 -2 1044 -17 q 1003 43 1003 13 q 1021 111 1003 71 q 1082 207 1039 151 q 1139 278 1103 235 q 1217 376 1175 322 q 1296 486 1258 429 q 1357 598 1333 543 q 1381 699 1381 653 q 1338 785 1381 751 q 1188 819 1294 819 q 926 787 1058 819 q 672 697 794 754 q 442 565 549 639 q 256 409 336 492 q 131 242 176 326 q 86 82 86 158 q 111 -2 86 19 q 172 -24 136 -24 q 225 -17 197 -24 q 275 -4 253 -10 q 285 -3 278 -3 q 301 -11 301 -3 q 292 -21 301 -17 q 236 -36 265 -31 q 179 -42 207 -42 q 80 -11 121 -42 q 39 99 39 19 q 85 261 39 176 q 213 429 131 346 q 406 587 296 513 q 645 718 517 661 q 913 808 774 775 q 1190 842 1051 842 q 1389 806 1318 842 q 1460 703 1460 769 q 1450 651 1460 676 q 1394 547 1433 606 q 1308 427 1356 489 q 1218 309 1261 365 q 1149 213 1175 253 q 1092 112 1110 153 q 1074 47 1074 71 q 1104 17 1074 17 q 1197 52 1136 17 q 1331 149 1258 88 q 1392 205 1351 167 q 1482 296 1432 243 q 1583 410 1532 349 q 1675 536 1633 472 q 1729 619 1707 588 q 1786 650 1751 650 q 1813 644 1796 650 q 1842 629 1829 638 q 1849 611 1854 621 q 1828 581 1842 599 q 1801 549 1814 563 q 1781 532 1788 535 q 1691 408 1733 481 q 1617 251 1649 335 q 1568 85 1585 168 q 1558 35 1565 68 q 1550 -31 1550 3 q 1569 -99 1550 -69 q 1644 -122 1589 -129 q 1719 -104 1689 -115 q 1763 -83 1749 -93 q 1775 -78 1769 -78 q 1781 -82 1781 -78 q 1761 -101 1781 -90 q 1695 -135 1728 -122 q 1621 -149 1663 -149 z "},"V":{"ha":1639,"x_min":-7,"x_max":2201,"o":"m 1160 -83 q 1119 -77 1140 -83 q 1099 -57 1099 -71 q 1106 -42 1099 -51 l 1181 53 q 1268 178 1225 110 q 1346 317 1311 246 q 1401 453 1381 388 q 1421 568 1421 518 q 1410 628 1421 601 q 1297 712 1383 689 q 1075 735 1210 735 q 1035 735 1056 735 q 993 733 1014 735 q 901 726 967 732 q 749 706 836 719 q 564 672 661 693 q 374 619 467 650 q 204 547 281 588 q 83 453 128 506 q 38 333 38 400 q 63 270 38 299 q 149 222 89 242 q 254 201 193 208 q 371 194 315 194 q 397 195 385 194 q 421 196 408 196 q 452 194 436 196 q 475 188 468 192 q 467 181 482 185 q 409 172 447 175 q 325 168 371 168 q 214 175 269 168 q 121 197 158 182 q 23 263 53 225 q -7 342 -7 301 q 35 466 -7 411 q 148 565 76 521 q 309 640 219 608 q 495 694 399 672 q 683 731 592 717 q 851 753 775 746 q 975 761 928 760 q 1010 763 993 763 q 1046 763 1028 763 q 1260 743 1163 763 q 1415 674 1357 724 q 1474 535 1474 625 q 1448 410 1474 479 q 1382 272 1422 342 q 1300 140 1342 201 q 1228 39 1258 79 q 1347 164 1276 92 q 1503 317 1418 236 q 1678 476 1588 399 q 1857 618 1769 554 q 2021 720 1944 682 q 2153 758 2097 758 q 2187 750 2172 761 q 2201 719 2201 739 q 2196 697 2201 708 q 2184 685 2193 692 q 2179 692 2175 678 q 2185 713 2185 704 q 2176 721 2185 721 q 2172 720 2175 721 q 2164 718 2168 719 q 1975 639 2079 697 q 1763 499 1871 581 q 1551 322 1654 417 q 1365 133 1449 228 q 1305 66 1333 97 q 1276 17 1276 35 q 1247 -19 1267 3 q 1208 -60 1226 -42 q 1183 -81 1190 -79 q 1160 -83 1172 -83 z "},"W":{"ha":2153,"x_min":17,"x_max":2331,"o":"m 1160 -83 q 1119 -77 1140 -83 q 1099 -57 1099 -71 q 1106 -42 1099 -51 l 1181 53 q 1266 183 1225 110 q 1339 334 1307 256 q 1390 486 1371 413 q 1408 617 1408 560 q 1397 686 1408 656 q 1291 779 1369 751 q 1106 807 1213 807 q 1081 807 1093 807 q 1056 806 1068 807 q 867 784 972 803 q 649 733 761 765 q 432 658 538 701 q 242 562 326 615 q 108 447 158 508 q 58 317 58 385 q 86 260 58 283 q 160 223 114 238 q 261 201 206 208 q 372 194 317 194 q 394 195 383 194 q 414 196 404 196 l 418 196 q 438 193 429 196 q 446 188 446 190 q 429 178 446 182 q 377 172 410 174 q 315 169 344 169 q 274 168 286 168 q 154 185 214 168 q 56 236 94 203 q 17 315 17 269 q 61 467 17 397 q 181 592 106 536 q 354 690 257 647 q 559 762 451 732 q 772 808 667 792 q 971 828 878 825 q 1008 829 990 829 q 1043 829 1025 829 q 1251 808 1157 829 q 1403 735 1346 788 q 1460 586 1460 682 q 1436 449 1460 526 q 1375 293 1413 372 q 1298 147 1338 214 q 1228 39 1258 79 q 1347 164 1276 92 q 1503 318 1418 236 q 1678 476 1589 400 l 1696 517 q 1735 581 1721 554 q 1766 620 1750 607 q 1808 633 1782 633 q 1837 627 1818 633 q 1869 611 1856 621 q 1878 592 1883 601 q 1853 558 1871 578 q 1817 522 1835 538 q 1790 506 1799 507 q 1751 468 1772 503 q 1709 379 1729 433 q 1676 263 1689 325 q 1664 144 1664 201 q 1689 26 1664 75 q 1776 -22 1714 -22 q 1910 11 1846 -22 q 2030 98 1974 44 q 2131 215 2086 151 q 2206 340 2175 279 q 2244 448 2228 383 q 2261 576 2261 513 q 2249 665 2261 625 q 2208 730 2238 706 q 2129 754 2179 754 q 2068 743 2104 754 q 2053 749 2053 743 q 2064 758 2053 754 q 2146 774 2107 774 q 2254 746 2214 774 q 2313 672 2294 718 q 2331 572 2331 626 q 2306 425 2331 500 q 2246 297 2282 350 q 2153 177 2207 238 q 2037 67 2100 117 q 1903 -14 1974 17 q 1761 -44 1833 -44 q 1668 -10 1701 -44 q 1622 77 1635 24 q 1608 188 1608 131 q 1619 310 1608 253 q 1642 394 1631 368 l 1656 428 q 1502 282 1576 357 q 1371 142 1428 207 q 1308 70 1339 106 q 1276 17 1276 35 q 1247 -19 1267 3 q 1208 -60 1226 -42 q 1183 -81 1190 -79 q 1160 -83 1172 -83 z "},"X":{"ha":1639,"x_min":72,"x_max":1926,"o":"m 694 -199 q 660 -185 675 -199 q 644 -151 644 -172 q 651 -126 644 -140 q 665 -111 656 -119 q 672 -119 675 -103 q 665 -146 665 -140 q 674 -154 665 -154 q 690 -150 681 -154 q 846 -80 753 -132 q 1049 49 939 -28 q 1274 222 1158 126 q 1499 424 1390 318 q 1475 623 1503 536 q 1371 758 1447 710 q 1151 807 1294 807 q 1132 806 1142 807 q 1111 806 1122 806 q 922 784 1028 803 q 705 733 817 765 q 488 658 593 701 q 298 562 382 615 q 164 447 214 508 q 114 317 114 385 q 142 260 114 283 q 215 223 169 238 q 317 201 261 208 q 428 194 372 194 q 449 195 439 194 q 469 196 460 196 l 474 196 q 493 193 485 196 q 501 188 501 190 q 485 178 501 182 q 433 172 465 174 q 371 169 400 169 q 329 168 342 168 q 210 185 269 168 q 111 236 150 203 q 72 315 72 269 q 117 467 72 397 q 237 592 161 536 q 410 690 313 647 q 615 762 507 732 q 828 808 722 792 q 1026 828 933 825 q 1061 829 1044 829 q 1094 829 1078 829 q 1363 790 1263 829 q 1510 676 1463 751 q 1565 490 1557 600 q 1744 694 1664 592 q 1876 890 1825 796 q 1894 908 1881 899 q 1918 918 1908 918 q 1926 908 1926 918 q 1916 875 1926 899 q 1878 811 1906 851 q 1813 726 1858 781 q 1705 603 1768 672 q 1567 457 1642 535 q 1568 436 1568 447 q 1568 414 1568 425 q 1560 279 1568 350 q 1464 -47 1531 13 q 1442 -58 1450 -58 q 1422 -47 1431 -58 q 1414 -15 1414 -35 q 1426 36 1414 7 q 1459 130 1444 76 q 1482 243 1474 183 q 1492 315 1488 279 q 1497 386 1496 351 q 1324 219 1414 303 q 1144 62 1233 136 q 974 -70 1056 -12 q 823 -162 892 -128 q 706 -197 754 -196 q 694 -199 701 -199 z "},"Y":{"ha":1151,"x_min":14,"x_max":1338,"o":"m 238 -772 q 156 -760 196 -772 q 89 -719 115 -747 q 63 -644 63 -692 q 63 -631 63 -637 q 65 -615 64 -624 q 133 -470 79 -539 q 269 -341 188 -401 q 445 -230 350 -281 q 637 -140 540 -179 q 819 -72 733 -100 q 965 -28 904 -43 q 1008 -19 988 -22 q 1051 -14 1029 -15 q 1054 -8 1051 -11 q 1103 101 1079 35 q 1149 243 1128 168 q 1182 388 1169 318 q 1194 508 1194 458 q 1193 537 1194 524 q 1189 560 1192 550 q 1022 351 1103 444 q 858 167 940 257 q 730 33 794 94 q 604 -67 665 -29 q 514 -94 561 -94 q 440 -65 471 -94 q 410 31 410 -35 q 422 128 410 68 q 452 253 433 189 q 492 368 471 318 l 533 481 l 558 528 q 408 419 488 468 q 253 340 328 369 q 121 311 178 311 q 38 332 63 311 q 14 383 14 353 q 38 460 14 418 q 101 540 63 501 q 182 603 140 579 q 206 611 193 610 q 213 608 219 613 q 154 553 185 586 q 101 483 124 521 q 74 407 79 446 q 85 359 72 376 q 135 343 97 342 q 294 390 210 347 q 462 499 379 433 q 614 633 544 564 l 621 640 q 669 720 644 682 q 714 782 693 758 q 747 806 735 806 q 774 799 757 806 q 805 784 792 793 q 813 767 818 775 q 752 679 790 736 q 670 549 714 622 q 585 392 626 475 q 517 226 544 310 q 498 169 510 207 q 477 88 486 131 q 468 8 468 44 q 478 -42 468 -22 q 511 -61 488 -61 q 546 -53 526 -61 q 592 -26 565 -44 q 697 61 632 0 q 832 194 761 122 q 1008 380 921 283 q 1171 583 1094 476 l 1157 590 q 1143 610 1143 596 q 1155 628 1143 619 q 1197 636 1167 636 q 1263 595 1240 636 q 1282 485 1285 554 q 1266 393 1281 451 q 1228 264 1251 335 q 1177 121 1206 193 q 1119 -11 1149 49 q 1156 -12 1138 -11 q 1192 -14 1174 -12 q 1283 -33 1240 -19 q 1336 -72 1326 -46 q 1338 -74 1338 -74 q 1338 -75 1338 -75 q 1331 -83 1338 -81 q 1322 -81 1324 -86 q 1273 -51 1313 -61 q 1186 -39 1233 -40 q 1166 -38 1176 -39 q 1144 -37 1156 -37 q 1125 -38 1135 -37 q 1104 -39 1115 -39 q 922 -326 1022 -193 q 710 -559 822 -458 q 478 -716 597 -660 q 238 -772 358 -772 m 235 -747 q 417 -701 326 -743 q 594 -587 508 -658 q 760 -428 681 -517 q 908 -241 839 -339 q 1032 -46 976 -143 q 995 -53 1014 -49 q 957 -61 976 -57 q 735 -131 853 -83 q 502 -243 618 -178 q 283 -385 386 -308 q 137 -528 182 -461 q 92 -643 92 -594 q 131 -721 92 -693 q 235 -747 171 -749 z "},"Z":{"ha":886,"x_min":36,"x_max":1469,"o":"m 1289 -467 q 1267 -466 1278 -467 q 1246 -464 1257 -465 q 1213 -460 1236 -462 q 1166 -453 1190 -457 q 1126 -444 1142 -449 q 1115 -436 1115 -440 q 1124 -432 1115 -433 q 1142 -432 1132 -431 q 1240 -440 1192 -440 q 1352 -424 1304 -440 q 1407 -369 1400 -407 q 1408 -359 1408 -364 q 1408 -349 1408 -354 q 1356 -233 1408 -292 q 1213 -119 1303 -174 q 1013 -19 1124 -64 q 786 55 903 25 q 563 92 669 85 q 537 94 550 93 q 510 94 524 94 q 397 -1 456 43 q 281 -73 338 -46 q 172 -100 224 -100 q 138 -92 151 -100 q 128 -75 124 -83 q 144 -77 131 -72 q 183 -79 157 -82 q 258 -49 211 -75 q 356 16 304 -22 q 453 93 408 54 q 292 67 372 89 q 151 6 211 46 q 72 -97 90 -35 q 53 -122 64 -122 q 36 -83 36 -122 q 43 -42 36 -67 q 115 28 56 -6 q 269 86 175 63 q 474 113 363 110 q 594 230 531 164 q 724 365 657 296 q 857 498 790 433 q 988 613 924 563 q 1110 692 1051 664 q 1042 713 1078 703 q 969 728 1007 722 q 904 735 939 732 q 831 738 869 738 q 678 728 757 738 q 528 697 599 718 q 406 643 457 676 q 335 563 354 610 q 325 538 329 550 q 321 514 321 525 q 342 483 321 493 q 351 475 351 478 q 347 470 351 472 q 338 469 342 468 q 306 494 315 476 q 296 535 296 513 q 300 564 296 550 q 397 689 328 643 q 558 754 465 735 q 746 774 650 774 q 905 763 828 774 q 1042 733 982 751 l 1140 704 q 1167 703 1151 707 q 1192 701 1182 700 q 1204 703 1196 703 q 1229 689 1229 703 q 1206 667 1229 676 q 1231 653 1219 661 q 1253 635 1243 644 q 1257 625 1257 631 q 1253 617 1257 619 q 1240 619 1249 614 q 1176 654 1215 638 q 1037 565 1115 624 q 871 431 958 507 q 695 273 783 356 q 528 113 607 190 l 594 110 q 832 78 710 106 q 1068 4 954 50 q 1272 -99 1182 -42 q 1416 -222 1363 -157 q 1469 -356 1469 -287 q 1469 -368 1469 -361 q 1467 -382 1468 -375 q 1403 -446 1457 -425 q 1289 -467 1350 -467 z "},"[":{"ha":613,"x_min":172,"x_max":997,"o":"m 401 -135 q 334 -133 368 -135 q 269 -129 300 -132 q 199 -112 226 -125 q 172 -79 172 -99 q 192 24 172 -40 q 248 169 213 89 q 328 335 283 249 q 423 506 374 422 q 521 663 472 590 q 613 787 569 735 q 689 860 657 839 q 782 883 722 883 q 884 879 829 883 q 971 868 939 875 q 997 854 997 864 q 969 846 997 846 q 922 847 951 846 q 857 849 892 849 q 781 845 818 849 q 725 831 743 842 q 655 749 700 808 q 556 608 610 690 q 449 435 503 526 q 349 253 394 343 q 275 90 303 164 q 247 -31 247 15 q 274 -80 247 -65 q 340 -101 300 -94 q 388 -106 363 -104 q 438 -107 413 -107 q 521 -104 482 -107 q 582 -100 560 -101 l 586 -100 q 600 -108 600 -100 q 588 -122 600 -114 q 550 -131 576 -129 q 494 -133 536 -132 q 401 -135 453 -135 z "},"\\":{"ha":564,"x_min":199,"x_max":603,"o":"m 599 -108 q 569 -89 586 -108 q 513 -3 549 -62 q 435 134 478 56 q 351 298 393 213 q 272 463 308 383 q 214 604 236 543 q 199 672 199 650 q 219 699 199 699 q 244 685 239 699 q 284 556 257 628 q 346 404 311 483 q 419 247 381 325 q 492 102 457 169 q 554 -15 526 35 q 596 -87 582 -65 q 603 -104 603 -99 q 599 -108 603 -108 z "},"]":{"ha":694,"x_min":121,"x_max":1022,"o":"m 369 -140 q 296 -137 339 -140 q 213 -131 253 -135 q 151 -124 174 -128 q 121 -106 121 -119 q 147 -97 121 -97 q 176 -98 158 -97 q 217 -99 194 -99 q 308 -97 258 -99 q 404 -90 358 -94 q 478 -76 450 -85 q 557 5 510 -56 q 658 151 604 65 q 765 335 713 238 q 861 528 818 433 q 931 700 904 622 q 957 824 957 778 q 910 833 944 829 q 831 838 875 836 q 747 840 788 840 q 706 840 725 840 q 675 838 688 839 l 672 838 q 658 849 658 838 q 666 863 658 856 q 692 871 674 869 q 733 873 703 872 q 801 874 764 874 q 872 875 839 875 q 901 874 888 875 q 925 874 915 874 q 1001 857 981 871 q 1022 824 1022 843 q 1002 720 1022 785 q 947 576 982 656 q 867 409 911 496 q 774 239 822 322 q 678 83 725 156 q 589 -42 631 10 q 518 -115 547 -93 q 478 -129 507 -124 q 419 -137 450 -135 q 369 -140 389 -140 z "},"^":{"ha":514,"x_min":108,"x_max":492,"o":"m 472 443 q 426 490 450 460 q 381 544 401 519 q 351 572 361 569 q 286 538 324 557 q 212 499 249 518 q 149 468 175 481 q 119 456 124 456 q 117 469 108 456 q 138 485 118 472 q 186 515 157 497 q 247 553 215 533 q 305 588 279 572 q 342 608 331 603 q 360 617 350 613 q 379 621 369 621 q 411 600 397 621 q 445 538 425 578 q 489 464 465 497 q 492 456 492 461 q 483 445 492 449 q 472 443 475 442 z "},"_":{"ha":1068,"x_min":1,"x_max":1106,"o":"m 18 -168 q 1 -154 1 -168 q 10 -142 1 -147 q 40 -135 19 -136 q 138 -133 75 -133 q 283 -133 201 -133 q 453 -132 364 -132 q 646 -133 549 -132 q 831 -134 743 -133 q 984 -137 918 -135 q 1083 -142 1050 -139 q 1098 -147 1090 -143 q 1106 -156 1106 -151 q 1083 -162 1106 -162 q 992 -162 1057 -162 q 837 -163 926 -162 q 646 -165 747 -164 q 443 -166 544 -165 q 254 -167 342 -167 q 104 -168 167 -168 q 18 -168 42 -168 z "},"`":{"ha":557,"x_min":178,"x_max":400,"o":"m 400 532 q 382 531 400 526 q 353 540 364 535 q 295 566 328 551 q 232 596 263 581 q 182 622 201 611 q 194 643 178 629 q 225 654 211 657 q 291 606 251 633 q 372 554 331 579 q 400 532 400 538 z "},"a":{"ha":774,"x_min":168,"x_max":1083,"o":"m 644 -15 q 572 6 603 -15 q 540 83 540 26 q 551 144 542 113 q 571 203 560 175 q 517 147 553 182 q 435 77 481 113 q 343 17 390 42 q 254 -8 296 -8 q 186 22 213 -8 q 168 75 168 42 q 194 160 168 114 q 262 249 219 206 q 353 328 304 293 q 450 378 403 363 q 553 399 515 399 q 612 377 593 399 q 636 315 631 356 l 636 311 q 631 295 636 301 q 622 289 626 289 q 615 300 615 289 q 613 320 615 307 q 601 345 611 333 q 565 357 590 357 q 486 338 531 357 q 396 285 442 318 q 310 215 350 253 q 243 139 269 176 q 213 72 217 101 q 211 64 211 68 q 211 57 211 60 q 222 22 211 32 q 249 13 232 13 q 306 28 274 13 q 367 63 339 43 q 406 92 394 82 q 506 174 450 129 q 604 258 561 219 q 619 263 611 263 q 651 253 639 263 q 656 242 656 249 q 652 224 656 235 q 643 201 649 214 q 604 114 619 153 q 589 49 589 75 q 635 7 589 7 q 738 32 669 7 q 885 108 811 60 q 1018 207 958 157 q 1046 228 1033 219 q 1072 250 1058 236 q 1079 251 1075 251 q 1083 247 1083 251 q 1078 236 1083 243 q 1038 195 1069 225 q 958 128 1006 165 q 856 58 911 92 q 746 4 801 24 q 698 -9 725 -3 q 644 -15 671 -15 z "},"b":{"ha":806,"x_min":207,"x_max":1076,"o":"m 236 -17 q 215 -3 222 -17 q 207 24 207 11 q 253 164 207 75 q 375 361 301 261 q 538 551 449 461 q 718 706 626 640 q 734 715 725 711 q 753 719 743 719 q 788 693 772 719 q 801 649 803 667 q 798 635 801 644 q 789 626 794 626 q 785 632 788 626 q 781 639 782 638 q 760 650 772 650 q 753 649 756 650 q 615 560 681 617 q 490 435 549 504 q 386 297 432 367 q 308 168 340 228 q 260 71 275 108 q 342 160 293 115 q 451 242 392 204 q 574 302 511 279 q 696 325 638 325 q 774 303 749 325 q 803 258 799 281 q 909 273 857 268 q 1001 281 961 278 q 1058 283 1042 283 q 1069 281 1061 283 q 1076 275 1076 278 q 1058 271 1076 271 q 926 261 990 269 q 804 240 861 253 q 766 145 804 189 q 670 68 728 101 q 551 16 613 35 q 443 -3 490 -3 q 390 10 410 -3 q 371 46 371 24 q 399 103 371 71 q 521 179 428 135 q 758 251 614 224 q 737 294 757 283 q 697 304 717 304 q 636 296 669 304 q 575 276 603 288 q 469 219 526 257 q 360 135 411 182 q 282 44 310 89 l 250 -7 q 236 -17 246 -17 m 451 26 q 524 39 482 26 q 604 75 565 51 q 705 159 665 115 q 754 229 744 203 q 560 167 642 203 q 443 104 479 132 q 403 51 403 72 q 416 33 403 39 q 451 26 429 26 z "},"c":{"ha":588,"x_min":229,"x_max":892,"o":"m 404 -18 q 344 -11 372 -18 q 292 10 315 -4 q 244 57 258 31 q 229 114 229 83 q 258 209 229 161 q 328 296 286 257 q 413 354 371 335 q 488 382 453 374 q 553 390 524 390 q 610 378 588 390 q 632 344 632 367 q 610 292 632 324 q 560 237 589 261 q 513 208 532 213 q 508 217 508 208 q 514 228 508 222 q 538 251 522 235 q 566 286 553 267 q 579 321 579 306 q 542 343 579 343 q 458 320 506 343 q 367 260 411 297 q 293 178 322 222 q 264 93 264 135 q 284 42 264 61 q 335 16 304 24 q 400 8 367 8 q 433 10 417 8 q 464 14 450 11 q 610 67 536 29 q 754 153 685 104 q 879 250 824 201 q 886 251 882 251 q 892 249 892 251 q 886 238 892 244 q 847 194 876 221 q 778 140 817 168 q 704 88 740 113 q 644 50 668 64 q 529 1 593 21 q 404 -18 465 -18 z "},"d":{"ha":789,"x_min":217,"x_max":1108,"o":"m 643 -21 q 562 2 585 -25 q 539 69 539 29 q 556 156 539 110 q 594 238 572 203 q 571 214 592 236 q 518 160 550 192 q 449 96 486 128 q 376 40 413 64 q 311 13 339 17 q 299 11 307 11 q 265 20 281 11 q 238 43 249 29 q 222 69 226 54 q 217 100 217 85 q 242 183 217 139 q 305 268 267 226 q 387 342 343 310 q 468 392 431 375 q 532 404 500 404 q 611 381 576 404 q 633 359 625 371 q 643 331 642 347 l 643 329 q 632 313 643 313 q 621 322 625 313 q 600 356 614 339 q 554 374 586 374 q 462 344 511 374 q 367 271 413 315 q 292 178 322 226 q 256 93 261 131 q 254 82 254 88 q 254 71 254 76 q 281 33 254 33 q 309 40 293 33 q 339 56 325 46 q 493 167 418 104 q 633 300 568 231 q 772 454 707 378 q 924 597 836 531 q 957 611 942 611 q 992 586 976 611 q 1008 540 1008 561 q 1004 525 1008 532 q 994 518 999 518 q 991 522 992 518 q 989 531 990 526 q 974 542 988 542 q 942 533 960 542 q 918 519 925 524 q 751 365 833 460 q 715 322 733 343 q 681 278 697 300 q 646 224 668 261 q 606 145 624 188 q 589 69 589 103 q 603 28 589 44 q 651 11 617 11 q 783 43 721 11 q 899 110 844 75 q 1099 258 1003 176 q 1106 263 1103 263 q 1108 258 1108 263 q 1103 246 1108 254 q 1038 180 1089 228 q 910 82 986 132 q 783 13 846 39 q 643 -21 721 -14 z "},"e":{"ha":519,"x_min":235,"x_max":860,"o":"m 397 -3 q 337 6 367 -3 q 281 36 307 15 q 235 126 235 74 q 266 222 235 174 q 343 311 297 269 q 433 378 389 353 q 473 392 449 388 q 519 397 497 397 q 535 397 528 397 q 549 394 543 397 q 599 365 583 385 q 615 322 615 346 q 593 263 615 288 q 537 223 571 239 q 466 197 503 207 q 398 184 429 188 q 351 181 367 181 q 304 185 319 181 q 274 117 279 147 q 272 108 272 113 q 272 99 272 103 q 298 45 272 68 q 386 22 324 22 q 506 49 443 24 q 631 113 569 74 q 749 197 693 153 q 847 278 804 240 q 854 281 850 281 q 859 276 858 281 q 856 265 860 272 q 803 211 840 243 q 722 146 765 179 q 641 88 678 113 q 589 54 604 63 q 497 15 547 32 q 397 -3 447 -3 m 335 197 q 360 199 346 197 q 389 203 374 200 q 442 217 410 207 q 506 244 474 228 q 561 284 539 261 q 583 335 583 307 q 550 361 583 361 q 486 343 524 361 q 395 283 443 322 q 314 199 347 243 q 324 197 318 197 q 335 197 329 197 z "},"f":{"ha":515,"x_min":19,"x_max":785,"o":"m 118 -408 q 42 -381 64 -408 q 19 -310 19 -353 q 33 -222 19 -269 q 67 -127 46 -175 q 110 -37 88 -79 q 150 35 132 6 q 254 188 200 117 q 360 318 308 258 q 356 332 356 325 q 365 353 356 344 q 390 360 375 363 q 393 359 392 360 q 396 358 394 358 q 481 447 440 407 q 551 514 521 486 q 638 578 601 558 q 696 599 674 599 q 728 581 719 599 q 732 563 732 572 q 722 531 732 544 q 710 521 711 517 q 689 536 706 536 q 622 508 664 536 q 544 443 581 481 l 456 351 q 544 345 497 347 q 636 343 590 343 q 710 344 674 343 q 779 350 747 346 l 782 350 q 785 347 785 350 q 774 336 785 339 q 678 326 732 335 q 567 308 624 317 q 460 297 511 299 q 501 248 488 282 q 514 169 514 214 q 492 30 514 107 q 431 -124 469 -47 q 342 -265 392 -200 q 234 -369 292 -329 q 118 -408 176 -408 m 125 -390 q 222 -349 172 -390 q 316 -242 271 -308 q 397 -98 361 -176 q 454 56 433 -19 q 475 190 475 132 q 462 263 475 235 q 418 297 449 292 q 414 298 417 297 q 408 299 411 299 q 300 163 357 239 q 188 -4 243 88 q 135 -101 164 -43 q 84 -217 106 -158 q 63 -321 63 -276 q 76 -371 63 -351 q 125 -390 90 -390 z "},"g":{"ha":668,"x_min":-75,"x_max":715,"o":"m 58 -544 q -1 -537 29 -544 q -53 -508 -32 -529 q -75 -447 -75 -487 q -47 -349 -75 -396 q 26 -263 -18 -303 q 119 -193 71 -224 q 249 -119 179 -154 q 393 -61 318 -85 q 543 -35 468 -37 q 585 74 569 18 q 601 171 601 129 q 589 222 601 206 q 572 206 576 214 q 519 150 553 185 q 442 79 485 115 q 357 18 400 43 q 276 -7 314 -7 q 241 1 258 -7 q 211 28 224 10 q 196 78 196 50 q 222 165 196 118 q 287 257 247 213 q 372 335 326 301 q 456 382 417 368 q 483 389 468 386 q 514 392 497 392 q 588 375 553 392 q 629 315 624 358 l 629 311 q 624 295 629 301 q 615 289 619 289 q 608 300 608 289 q 605 320 608 307 q 589 344 601 333 q 551 356 576 356 q 456 326 508 356 q 356 250 404 296 q 274 156 307 204 q 235 69 240 107 q 233 60 233 64 q 233 51 233 56 q 264 11 233 11 q 316 28 286 11 q 373 67 346 46 q 411 97 400 88 q 490 165 449 129 q 569 235 531 200 q 565 246 565 238 q 573 265 565 254 q 601 275 581 275 q 651 252 638 275 q 665 194 665 229 q 645 84 665 147 q 599 -36 625 21 q 669 -48 632 -37 q 713 -83 706 -58 q 711 -90 715 -87 q 706 -87 707 -93 q 659 -61 696 -68 q 590 -56 622 -54 q 567 -104 579 -82 q 546 -144 556 -126 q 441 -300 500 -228 q 316 -427 382 -372 q 184 -513 250 -482 q 58 -544 118 -544 m 43 -524 q 184 -484 117 -524 q 313 -378 251 -444 q 429 -228 375 -311 q 529 -60 483 -146 q 289 -136 407 -74 q 72 -281 171 -199 q -15 -373 13 -329 q -42 -450 -42 -417 q -19 -503 -42 -483 q 43 -524 4 -524 z "},"h":{"ha":890,"x_min":185,"x_max":1196,"o":"m 719 -24 q 628 3 663 -24 q 578 76 593 31 q 563 174 563 121 q 568 244 563 208 q 583 314 574 279 q 521 254 560 289 q 438 182 482 219 q 352 110 393 144 q 282 53 311 76 q 244 24 253 29 q 250 6 250 14 q 228 -14 250 -14 q 207 -7 218 -14 q 189 15 196 0 q 185 40 185 26 q 211 139 185 78 q 272 265 238 200 q 263 264 268 264 q 251 269 251 264 q 260 281 251 275 q 297 313 290 299 q 368 439 326 374 q 459 566 410 504 q 561 677 508 628 q 665 756 614 726 q 763 785 717 785 q 803 772 792 785 q 815 740 815 760 q 809 708 815 725 q 794 678 803 692 q 677 531 753 603 q 509 397 601 460 q 324 285 417 333 q 278 189 299 236 q 246 106 257 142 q 239 53 235 69 q 280 85 249 58 q 354 149 311 111 q 444 229 397 188 q 533 308 490 271 q 603 369 575 346 q 636 411 619 411 q 679 369 653 411 q 682 360 682 364 q 679 342 682 351 q 674 329 676 333 q 629 236 644 285 q 614 143 614 188 q 643 44 614 85 q 735 4 672 4 q 806 15 767 4 q 892 53 844 26 q 1015 124 953 82 q 1129 207 1078 165 q 1158 228 1144 219 q 1185 250 1171 236 q 1192 251 1188 251 q 1196 247 1196 251 q 1190 236 1196 243 q 1153 200 1182 226 q 1081 140 1124 174 q 990 75 1039 107 q 890 19 940 43 q 815 -9 863 6 q 719 -24 767 -24 m 340 317 q 466 397 400 353 q 595 495 532 442 q 710 610 658 549 q 790 740 761 672 q 774 758 790 758 q 728 742 757 758 q 665 699 699 725 q 599 645 631 674 q 546 593 567 617 q 477 519 513 558 q 406 426 442 479 q 374 374 390 403 q 340 317 357 346 z "},"i":{"ha":432,"x_min":179,"x_max":735,"o":"m 465 421 q 440 449 440 421 q 446 471 440 460 q 474 490 450 482 q 524 501 497 497 q 567 504 551 504 q 579 503 579 504 q 565 494 579 500 q 536 481 551 489 q 515 461 521 472 q 494 432 508 443 q 465 421 479 421 m 276 -11 q 208 3 238 -11 q 179 57 179 18 q 202 140 179 100 q 254 213 225 181 q 303 263 283 246 q 307 288 290 265 q 356 324 324 310 q 371 326 364 326 q 402 319 386 326 q 418 300 418 313 q 413 286 418 293 q 401 275 407 279 q 340 223 379 258 q 272 153 300 188 q 221 51 221 88 q 283 13 221 13 q 384 28 335 13 q 476 67 433 44 q 603 151 544 101 q 724 250 661 200 q 731 251 726 251 q 735 247 735 251 q 729 236 735 243 q 694 199 721 225 q 628 142 668 174 q 541 78 589 110 q 443 25 493 47 q 369 1 417 14 q 276 -11 321 -11 z "},"j":{"ha":388,"x_min":-637,"x_max":522,"o":"m 408 421 q 383 449 383 421 q 389 471 383 460 q 417 490 393 482 q 467 501 440 497 q 510 504 494 504 q 522 503 522 504 q 508 494 522 500 q 479 481 494 489 q 458 461 464 472 q 437 432 451 443 q 408 421 422 421 m -469 -686 q -547 -675 -508 -686 q -612 -638 -586 -664 q -637 -569 -637 -612 q -637 -558 -637 -564 q -636 -547 -637 -553 q -578 -424 -625 -482 q -459 -316 -531 -367 q -303 -223 -387 -265 q -133 -148 -219 -181 q 29 -92 -47 -115 q 160 -58 106 -69 q 199 -51 179 -54 q 236 -47 218 -49 q 286 78 267 10 q 306 194 306 146 q 299 240 306 222 q 275 260 292 257 q 271 272 271 261 q 283 292 271 282 q 322 301 294 301 q 360 279 349 301 q 372 218 372 257 q 308 -22 372 122 q 303 -33 306 -28 q 297 -46 300 -39 q 363 -50 329 -46 q 446 -67 407 -56 q 494 -103 485 -79 q 495 -105 494 -104 q 496 -106 496 -106 q 490 -113 496 -111 q 482 -110 485 -115 q 438 -83 474 -92 q 360 -71 401 -74 q 322 -68 340 -68 q 285 -69 304 -68 q 178 -240 242 -153 q 39 -406 115 -326 q -122 -549 -37 -486 q -295 -649 -207 -612 q -469 -686 -383 -686 m -485 -664 q -316 -626 -400 -664 q -152 -524 -232 -587 q -2 -382 -72 -460 q 125 -224 68 -304 q 221 -75 182 -144 q 188 -79 204 -76 q 153 -86 171 -82 q -44 -143 60 -104 q -251 -236 -149 -182 q -444 -354 -354 -290 q -572 -472 -533 -417 q -611 -569 -611 -528 q -576 -638 -611 -612 q -485 -664 -540 -664 z "},"k":{"ha":835,"x_min":210,"x_max":1140,"o":"m 242 -28 q 221 -14 226 -28 q 213 15 215 0 q 210 46 210 31 q 228 141 210 90 q 278 249 247 192 q 268 247 274 247 q 257 253 257 247 q 265 264 257 258 q 303 296 296 282 q 375 424 332 357 q 469 556 418 492 q 577 672 521 619 q 690 755 633 724 q 799 786 747 786 q 853 769 836 786 q 871 724 871 751 q 843 643 871 686 q 757 542 811 592 q 635 447 703 493 q 495 362 568 401 q 354 290 422 322 q 301 183 326 238 q 264 75 275 128 q 263 63 264 75 q 263 39 263 51 q 285 64 274 51 q 308 89 297 76 q 383 159 338 118 q 482 243 429 200 q 496 297 486 275 q 514 331 504 321 q 533 340 524 340 q 553 330 544 340 q 564 307 561 319 q 685 391 625 353 q 797 453 746 429 q 878 476 847 476 q 917 447 917 476 q 903 419 917 433 q 863 400 889 404 q 708 353 786 389 q 557 268 629 318 q 538 169 538 221 q 551 92 538 129 q 595 33 565 56 q 674 10 625 10 q 775 29 721 10 q 884 78 829 49 q 988 143 939 108 q 1074 207 1038 178 q 1102 228 1089 219 q 1129 250 1115 236 q 1136 251 1132 251 q 1140 247 1140 251 q 1135 236 1140 243 q 1097 200 1126 226 q 1026 140 1068 174 q 934 75 983 107 q 835 19 885 43 q 759 -9 807 6 q 664 -24 711 -24 q 559 10 601 -24 q 497 98 517 44 q 479 208 478 151 q 384 124 432 169 q 294 29 336 78 q 278 3 288 21 q 261 -19 268 -14 q 242 -28 253 -28 m 371 324 q 559 431 479 383 q 701 533 639 478 q 814 667 763 588 q 828 692 819 674 q 838 726 838 711 q 817 747 838 747 q 763 733 796 747 q 694 695 731 718 q 625 644 658 672 q 568 590 592 617 q 456 460 510 525 q 371 324 403 396 z "},"l":{"ha":622,"x_min":246,"x_max":903,"o":"m 428 -25 q 308 10 357 -25 q 257 129 258 44 q 260 167 257 143 q 265 207 263 190 q 257 206 263 206 q 246 214 246 206 q 251 224 246 218 q 283 254 278 240 q 343 378 306 314 q 428 504 381 443 q 528 614 475 565 q 633 691 581 663 q 731 719 685 719 q 770 708 758 719 q 782 678 782 696 q 754 588 782 635 q 682 493 726 540 q 585 403 638 446 q 480 324 532 360 q 386 263 428 288 q 322 228 344 238 q 307 142 307 189 q 334 41 307 86 q 424 -4 361 -4 q 516 13 465 -4 q 618 56 567 31 q 733 122 678 86 q 831 189 789 157 q 893 239 874 221 q 901 244 899 244 q 903 242 903 244 q 892 218 903 229 q 765 108 833 160 q 619 19 696 56 q 524 -13 574 -1 q 428 -25 474 -25 m 326 257 q 371 284 336 263 q 453 340 406 306 q 553 417 501 375 q 649 504 604 458 q 722 595 694 550 q 750 679 750 640 q 738 692 750 692 q 692 674 721 692 q 628 628 663 656 q 563 571 594 600 q 510 519 531 542 q 412 401 463 468 q 326 257 361 333 z "},"m":{"ha":953,"x_min":129,"x_max":1332,"o":"m 156 -43 q 129 -29 129 -43 q 135 -13 129 -22 q 143 -1 142 -4 q 182 70 154 25 q 247 167 210 115 q 324 265 285 218 q 398 341 364 311 q 453 371 432 371 q 476 362 458 371 q 501 347 493 353 q 508 336 508 343 q 499 325 508 325 l 492 325 q 437 299 472 325 q 360 232 401 272 q 281 149 319 192 q 215 70 242 106 q 181 19 188 35 q 231 69 196 38 q 308 135 265 100 q 396 203 351 171 q 478 256 440 235 q 536 276 515 276 q 583 257 560 276 q 606 217 606 238 q 598 165 606 194 q 581 110 590 136 q 567 71 572 85 q 601 110 579 81 q 649 172 624 139 q 696 222 675 204 q 722 241 711 236 q 738 246 732 246 q 753 235 749 246 q 758 215 757 225 q 768 169 763 199 q 787 106 774 139 q 826 50 800 74 q 851 37 838 40 q 882 33 865 33 q 942 42 910 33 q 997 63 974 51 q 1111 132 1056 92 q 1224 219 1167 172 l 1311 292 q 1325 300 1322 300 q 1310 269 1332 300 q 1242 197 1289 238 q 1164 136 1208 171 q 1070 70 1119 101 q 971 18 1021 39 q 920 1 944 8 q 872 -6 896 -6 q 790 17 821 -6 q 742 74 758 40 q 719 141 726 108 q 704 193 711 174 q 656 141 681 172 q 612 81 632 110 q 581 38 592 51 q 549 19 567 19 q 529 28 538 19 q 521 53 521 36 q 530 101 521 72 q 548 159 539 129 q 557 211 557 189 q 549 238 557 231 q 528 246 540 246 q 490 235 511 246 q 454 215 469 225 q 410 181 440 206 q 344 126 381 157 q 274 61 308 94 q 197 -12 229 19 q 156 -43 165 -43 z "},"n":{"ha":740,"x_min":167,"x_max":1119,"o":"m 186 -11 l 181 -11 q 167 6 167 -11 q 173 34 167 19 q 181 53 179 49 q 216 115 192 76 q 271 198 240 154 q 335 281 301 242 q 397 346 368 321 q 447 371 426 371 q 470 362 453 371 q 496 347 488 353 q 503 336 503 343 q 493 325 503 325 l 486 325 q 478 324 482 325 q 465 319 474 324 q 414 284 444 310 q 350 223 383 258 q 287 151 317 188 q 236 86 257 115 q 208 43 215 57 q 250 91 221 63 q 317 150 279 119 q 397 206 356 181 q 475 247 438 232 q 532 261 507 261 q 580 239 565 261 q 599 184 594 217 q 607 118 604 151 q 629 44 613 65 q 672 24 646 24 q 717 33 692 24 q 771 56 742 42 q 891 128 829 85 q 1010 219 953 172 l 1097 292 q 1111 300 1108 300 q 1098 269 1119 300 q 1028 197 1076 238 q 944 131 990 167 q 847 63 897 94 q 745 10 796 31 q 650 -11 694 -11 q 588 12 608 -11 q 560 69 568 35 q 546 138 551 103 q 528 195 540 172 q 489 218 517 218 q 447 208 471 218 q 390 175 424 199 q 310 113 346 144 q 246 53 275 82 q 222 28 236 43 q 198 1 208 13 q 186 -11 188 -11 z "},"o":{"ha":625,"x_min":168,"x_max":997,"o":"m 261 -25 q 190 1 211 -25 q 168 61 168 28 q 169 83 168 72 q 175 103 171 93 q 210 171 186 136 q 264 232 233 206 q 324 264 294 258 q 344 259 329 265 q 372 245 358 253 q 385 235 385 238 q 388 224 388 232 q 379 224 389 217 q 341 215 367 232 q 290 173 315 199 q 249 131 264 147 q 220 84 233 110 q 207 38 207 58 q 218 10 207 21 q 257 0 229 0 q 272 1 264 0 q 289 3 279 1 q 358 28 317 8 q 444 81 399 49 q 528 149 489 113 q 573 197 551 169 q 608 253 594 225 q 503 258 557 254 q 404 270 450 261 q 331 294 358 279 q 304 317 313 306 q 296 338 296 328 q 302 353 296 347 q 315 360 308 360 q 328 356 322 360 q 338 347 333 351 q 349 340 343 343 q 453 383 401 371 q 542 394 504 394 q 618 376 585 394 q 657 314 651 358 q 657 278 660 294 q 704 276 681 276 q 749 276 728 276 q 835 283 790 276 q 919 299 881 289 q 976 318 957 308 q 992 324 986 324 q 997 319 997 324 q 975 300 997 310 q 881 272 944 286 q 749 254 818 257 q 706 252 731 253 q 651 251 681 251 q 594 144 638 194 q 491 56 550 94 q 371 -3 432 18 q 261 -25 310 -25 m 619 279 q 625 311 625 294 q 607 351 625 335 q 544 369 589 368 q 454 358 497 369 q 375 328 411 347 q 492 293 428 304 q 619 279 556 282 z "},"p":{"ha":786,"x_min":-10,"x_max":1035,"o":"m 78 -386 q 60 -380 75 -386 q 28 -364 44 -374 q 4 -346 13 -354 q -7 -317 -4 -335 q -10 -296 -10 -300 q 19 -165 -10 -237 q 92 -17 47 -92 q 185 126 136 58 q 277 243 235 194 q 343 310 319 292 q 324 308 333 308 q 306 307 314 307 q 292 313 292 307 q 313 342 293 325 q 362 374 333 360 q 414 388 390 388 q 438 382 428 388 q 483 389 451 385 q 556 393 515 393 q 649 383 600 393 q 739 343 699 374 q 770 307 754 332 q 786 253 786 282 q 888 267 840 261 q 974 272 936 272 q 1015 268 1001 272 q 1026 263 1018 267 q 1035 256 1035 258 q 1017 253 1035 253 q 917 247 983 256 q 783 226 850 239 q 740 142 774 179 q 657 77 706 104 q 554 32 608 50 q 450 6 500 14 q 364 -3 400 -3 q 290 12 322 -3 q 258 53 258 26 q 265 76 258 64 q 288 103 272 89 q 385 153 317 128 q 547 204 453 179 q 749 247 642 229 q 754 276 754 260 q 729 328 754 310 q 666 355 704 347 q 585 363 628 363 q 498 356 539 363 q 433 343 457 350 q 385 303 419 338 q 306 214 351 268 q 213 92 260 160 q 125 -47 165 25 q 62 -186 85 -118 q 42 -310 39 -254 q 44 -331 42 -317 q 54 -358 47 -346 q 75 -371 61 -371 q 92 -378 92 -371 q 78 -386 92 -386 m 357 40 q 449 51 394 40 q 554 85 504 63 q 658 144 611 108 q 731 215 706 179 q 591 181 661 200 q 462 142 521 163 q 364 101 403 122 q 322 76 335 88 q 310 57 310 64 q 357 40 310 40 z "},"q":{"ha":774,"x_min":142,"x_max":1072,"o":"m 196 -576 q 142 -524 142 -576 q 153 -467 142 -500 q 192 -392 165 -433 q 244 -305 211 -358 q 319 -186 278 -251 q 406 -51 361 -121 q 493 84 450 18 q 571 203 536 150 q 517 147 553 182 q 435 77 481 113 q 343 17 390 42 q 254 -8 296 -8 q 186 22 213 -8 q 168 75 168 42 q 194 160 168 114 q 262 249 219 206 q 353 328 304 293 q 450 378 403 363 q 553 399 515 399 q 612 377 593 399 q 636 315 631 356 l 636 311 q 631 295 636 301 q 622 289 626 289 q 615 300 615 289 q 613 320 615 307 q 601 345 611 333 q 565 357 590 357 q 486 338 531 357 q 396 285 442 318 q 310 215 350 253 q 243 139 269 176 q 213 72 217 101 q 211 64 211 68 q 211 57 211 60 q 222 22 211 32 q 249 13 232 13 q 306 28 274 13 q 367 63 339 43 q 406 92 394 82 q 506 174 450 129 q 604 258 561 219 q 619 263 611 263 q 651 253 639 263 q 657 239 657 247 q 643 201 657 221 q 594 133 621 171 q 535 53 567 96 q 543 28 539 44 q 619 4 574 4 q 688 15 650 4 q 774 53 726 26 q 896 124 835 82 q 1007 207 957 165 q 1035 228 1022 219 q 1061 250 1047 236 q 1068 251 1064 251 q 1072 247 1072 251 q 1067 236 1072 243 q 1030 200 1058 226 q 960 140 1001 174 q 871 75 919 107 q 774 19 822 43 q 724 -2 756 10 q 657 -23 692 -14 q 590 -32 622 -32 q 546 -26 563 -32 q 534 -149 546 -83 q 499 -280 522 -215 q 443 -399 476 -344 q 333 -526 396 -476 q 196 -576 271 -576 m 222 -549 q 316 -497 258 -544 q 425 -365 374 -450 q 493 -208 465 -300 q 518 -17 521 -117 q 494 -1 506 -11 q 376 -172 440 -78 q 238 -385 311 -267 q 201 -456 213 -424 q 190 -510 190 -487 q 222 -549 190 -551 z "},"r":{"ha":628,"x_min":-106,"x_max":951,"o":"m 485 -18 q 403 -1 439 -18 q 368 64 368 17 q 387 138 368 103 q 432 203 406 174 q 482 253 458 232 q 515 285 506 275 q 450 271 481 271 q 413 276 431 271 q 381 294 394 282 l 371 281 q 337 242 361 267 q 289 197 313 217 q 163 103 229 147 q 33 29 97 58 q -86 -4 -31 0 q -99 -2 -92 -4 q -106 3 -106 0 q -81 13 -106 7 q 27 53 -32 22 q 149 128 86 85 q 271 219 213 172 q 322 264 294 239 q 369 308 349 289 q 354 358 354 329 q 372 423 354 390 q 417 483 389 456 q 476 528 444 511 q 533 546 507 546 q 556 528 556 546 q 544 507 556 515 q 512 476 535 499 q 463 424 489 453 q 415 367 436 394 q 389 324 394 340 q 404 306 394 314 q 442 299 414 299 q 491 308 465 299 q 537 325 517 317 q 564 333 557 333 q 595 324 579 333 q 611 300 611 315 q 601 275 611 283 q 541 228 579 258 q 469 163 503 197 q 418 99 435 128 q 401 50 401 69 q 421 15 401 28 q 475 3 440 3 q 607 32 528 3 q 626 40 617 35 q 646 49 636 44 q 799 138 726 85 q 942 250 871 190 q 947 251 944 251 q 951 247 951 251 q 947 236 951 243 q 907 195 939 225 q 828 128 875 165 q 726 58 781 92 q 615 4 671 24 q 556 -11 592 -4 q 485 -18 521 -18 z "},"s":{"ha":643,"x_min":39,"x_max":964,"o":"m 360 -76 q 275 -40 314 -76 q 210 58 236 -3 q 195 95 200 78 q 185 126 190 113 q 108 72 144 96 q 46 38 71 49 q 39 47 39 38 q 43 60 39 53 q 57 72 47 67 q 110 106 82 88 q 165 143 138 124 q 144 158 154 150 q 129 175 135 165 q 126 189 126 179 q 140 228 126 208 q 165 249 153 249 q 182 228 178 249 l 190 190 l 193 188 q 198 179 196 183 q 203 171 200 175 q 330 274 268 219 q 438 375 392 328 q 438 376 438 375 q 439 378 439 376 q 487 458 451 419 q 569 496 522 496 q 603 490 588 496 q 615 472 615 485 q 603 449 615 460 q 571 443 592 439 q 561 444 565 444 q 553 444 557 444 q 519 437 533 444 q 492 415 506 429 q 460 340 467 389 q 453 232 453 290 q 453 179 453 206 q 454 126 454 153 q 453 72 454 99 q 447 21 451 44 q 462 20 454 21 q 478 19 469 19 q 567 28 522 19 q 651 53 613 36 q 755 109 704 76 q 860 181 806 142 q 906 219 876 193 q 951 257 935 244 q 957 258 954 258 q 964 251 964 258 q 958 240 964 246 q 822 122 900 183 q 651 21 744 61 q 546 -6 600 3 q 439 -12 492 -15 q 410 -59 429 -42 q 360 -76 392 -76 m 376 33 q 398 121 390 69 q 413 230 406 172 q 429 338 419 288 q 329 246 386 296 q 215 150 272 196 q 285 79 246 110 q 376 33 325 49 m 322 -18 q 361 3 343 -18 q 282 44 318 18 q 217 114 246 71 q 263 24 236 65 q 322 -18 290 -18 z "},"t":{"ha":521,"x_min":186,"x_max":828,"o":"m 304 -32 q 222 -14 257 -32 q 186 56 186 4 q 211 140 186 94 q 277 234 236 185 q 365 331 318 283 q 292 335 325 328 q 265 349 274 339 q 256 369 256 360 q 265 388 256 381 q 288 393 274 396 q 348 385 315 389 q 415 379 381 382 q 495 451 456 417 q 565 513 535 485 q 561 524 561 517 q 578 554 561 538 q 621 582 594 571 q 638 585 629 585 q 671 578 654 585 q 688 561 688 572 q 672 536 688 553 q 650 515 657 519 q 578 464 626 501 q 475 376 531 426 l 526 376 q 606 378 567 376 q 678 382 644 379 l 681 382 q 683 379 683 382 q 674 368 683 371 q 560 355 624 367 q 432 336 496 343 q 335 236 381 288 q 260 140 289 185 q 232 61 232 94 q 258 15 232 31 q 328 0 285 0 q 483 32 396 0 q 502 39 493 35 q 521 47 511 43 q 649 120 586 76 q 764 207 713 164 q 792 228 779 219 q 818 250 804 236 q 824 251 821 251 q 828 247 828 251 q 824 236 828 243 q 783 195 815 225 q 704 128 751 165 q 602 58 657 92 q 492 4 547 24 q 410 -19 464 -6 q 304 -32 357 -32 z "},"u":{"ha":772,"x_min":197,"x_max":1088,"o":"m 635 -14 q 554 14 576 -14 q 532 82 532 42 q 542 143 532 111 q 563 203 551 175 q 510 147 543 182 q 436 77 476 113 q 353 17 396 42 q 275 -7 311 -7 q 240 1 257 -7 q 211 28 224 10 q 197 74 197 47 q 230 169 197 118 q 310 268 263 221 q 326 284 314 274 q 346 300 338 294 q 351 321 340 304 q 381 351 363 338 q 414 357 400 365 q 435 342 426 350 q 444 326 444 335 q 432 306 444 318 l 403 278 q 329 205 367 243 q 265 131 292 167 q 235 69 239 96 q 233 60 233 64 q 233 51 233 56 q 264 11 233 11 q 316 28 286 11 q 373 67 346 46 q 411 97 400 88 q 504 177 456 135 q 597 258 553 219 q 613 263 604 263 q 639 253 629 263 q 643 242 643 249 q 628 196 643 225 q 597 133 613 167 q 576 71 581 100 q 575 61 575 65 q 575 53 575 57 q 590 17 575 26 q 626 7 604 7 q 684 16 654 7 q 732 32 714 25 q 880 110 806 60 q 1015 208 954 161 q 1044 230 1031 219 q 1072 253 1058 240 q 1086 261 1083 261 q 1088 260 1088 261 q 1083 250 1088 257 q 1076 238 1079 243 q 1012 171 1060 213 q 901 88 964 129 q 772 18 838 46 q 704 -5 738 4 q 635 -14 671 -14 z "},"v":{"ha":533,"x_min":153,"x_max":694,"o":"m 197 -25 q 172 -20 192 -25 q 156 -6 153 -15 q 172 37 163 15 q 190 78 182 58 q 225 160 208 118 q 254 243 242 201 q 265 279 257 254 q 272 325 272 304 q 257 351 272 351 q 243 338 247 347 q 232 328 239 328 q 225 340 225 328 q 244 367 225 360 q 276 374 263 374 q 318 357 307 374 q 329 315 329 340 q 324 272 329 294 q 313 229 319 249 q 290 172 306 207 q 258 104 275 138 q 231 51 242 71 q 351 188 289 124 q 471 301 413 251 q 580 378 529 350 q 665 406 631 406 q 685 400 676 406 q 694 383 694 394 q 690 367 694 378 q 682 358 689 361 q 679 363 675 356 q 682 369 682 368 q 671 374 682 374 q 602 347 647 374 q 502 276 557 319 q 393 185 447 233 q 297 93 339 136 q 238 22 256 50 q 215 -10 226 4 q 197 -25 204 -25 z "},"w":{"ha":981,"x_min":182,"x_max":1186,"o":"m 260 -15 q 208 -3 233 -15 q 182 40 182 8 q 194 99 182 63 q 224 174 206 135 q 265 249 243 214 q 306 307 286 285 q 338 329 325 329 q 356 323 343 329 q 379 308 368 317 q 390 290 390 299 q 388 281 390 289 q 378 268 386 272 q 328 232 356 258 q 274 171 300 206 q 230 100 247 136 q 213 33 213 64 q 232 14 213 14 q 286 32 251 14 q 360 77 321 50 q 434 131 399 104 q 492 177 469 158 q 517 197 515 196 l 596 256 q 614 263 607 263 q 636 251 628 263 q 644 224 644 239 q 644 203 644 213 q 643 182 643 193 q 669 75 643 122 q 757 28 694 28 q 849 55 807 28 q 916 127 890 82 q 942 228 942 172 q 938 254 942 240 q 897 258 918 254 q 860 273 875 261 q 846 310 846 285 q 867 331 846 331 q 918 315 889 331 q 958 283 947 299 q 985 281 974 282 q 1000 281 997 281 q 1031 279 1015 279 q 1064 279 1047 279 q 1134 281 1101 279 q 1181 289 1167 283 l 1182 289 q 1186 285 1186 289 q 1178 274 1186 276 q 1128 264 1163 268 q 1052 257 1093 260 q 974 254 1011 254 q 978 235 976 244 q 981 214 981 225 q 960 138 981 175 q 907 69 940 100 q 836 21 874 39 q 763 3 799 3 q 658 33 697 3 q 601 110 619 63 q 575 211 582 158 q 523 164 556 192 q 451 105 490 136 q 374 47 413 74 q 306 2 336 19 q 260 -15 275 -15 z "},"x":{"ha":856,"x_min":68,"x_max":1163,"o":"m 76 -114 q 68 -108 68 -114 q 99 -81 68 -94 q 286 24 192 -36 q 472 151 381 85 q 427 228 447 190 q 393 293 407 265 q 361 270 385 289 q 309 228 338 251 q 256 185 281 206 q 222 158 232 165 q 203 150 213 150 q 197 160 194 150 q 224 188 200 169 l 300 257 q 345 303 324 279 q 386 350 367 326 q 413 367 401 367 q 438 352 426 367 q 457 315 449 338 q 487 250 468 283 q 524 188 506 217 q 628 267 576 228 q 729 342 679 306 q 778 380 757 361 q 826 417 800 399 q 827 419 826 418 q 828 422 828 421 q 814 433 828 433 q 793 432 800 432 l 781 432 q 769 439 767 432 q 817 458 789 450 q 853 467 846 467 q 888 443 888 467 q 880 418 888 432 q 863 394 872 404 q 823 363 844 379 q 778 328 801 346 q 666 246 726 289 q 542 158 606 203 q 583 107 564 128 q 611 78 601 86 q 676 34 643 50 q 746 18 708 18 q 818 32 781 18 q 965 108 892 60 q 1097 207 1039 157 q 1126 228 1113 219 q 1153 250 1139 236 q 1158 251 1156 251 q 1163 247 1163 251 q 1158 236 1163 243 q 1118 195 1150 225 q 1039 128 1086 165 q 937 58 992 92 q 826 4 882 24 q 759 -15 790 -10 q 701 -21 728 -21 q 626 -6 658 -21 q 567 33 593 8 q 490 125 528 71 q 294 0 392 58 q 119 -99 197 -58 q 76 -114 90 -114 z "},"y":{"ha":593,"x_min":-339,"x_max":794,"o":"m -171 -686 q -249 -675 -210 -686 q -313 -638 -287 -664 q -339 -569 -339 -612 q -339 -558 -339 -564 q -337 -547 -339 -553 q -279 -424 -326 -482 q -160 -316 -232 -367 q -5 -223 -89 -265 q 165 -148 79 -181 q 328 -92 251 -115 q 458 -58 404 -69 q 497 -51 478 -54 q 535 -47 517 -49 q 582 67 564 7 q 600 171 600 128 q 582 228 600 214 l 578 224 q 513 152 556 201 q 421 63 469 103 q 346 13 383 32 q 276 -7 308 -7 q 240 1 257 -7 q 210 28 222 10 q 196 74 196 47 q 228 169 196 118 q 308 268 261 221 q 324 284 313 274 q 344 300 336 294 q 350 321 339 304 q 380 351 361 338 q 413 357 399 365 q 434 342 425 350 q 443 326 443 335 q 431 306 443 318 l 401 278 q 328 205 365 243 q 264 131 290 167 q 233 69 238 96 q 232 60 232 64 q 232 51 232 56 q 263 11 232 11 q 315 28 285 11 q 372 67 344 46 q 410 97 399 88 q 488 168 450 131 q 564 240 526 206 q 572 262 563 249 q 615 275 582 275 q 667 196 667 275 q 652 101 667 157 q 607 -22 638 44 q 601 -33 604 -28 q 596 -46 599 -39 q 661 -50 628 -46 q 744 -67 706 -56 q 793 -103 783 -79 q 794 -105 793 -104 q 794 -106 794 -106 q 789 -113 794 -111 q 781 -110 783 -115 q 736 -83 772 -92 q 658 -71 700 -74 q 621 -68 639 -68 q 583 -69 603 -68 q 477 -240 540 -153 q 338 -406 414 -326 q 176 -549 261 -486 q 3 -649 92 -612 q -171 -686 -85 -686 m -186 -664 q -17 -626 -101 -664 q 147 -524 67 -587 q 297 -382 226 -460 q 424 -224 367 -304 q 519 -75 481 -144 q 486 -79 503 -76 q 451 -86 469 -82 q 253 -143 358 -104 q 47 -236 149 -182 q -146 -354 -56 -290 q -274 -472 -235 -417 q -312 -569 -312 -528 q -277 -638 -312 -612 q -186 -664 -242 -664 z "},"z":{"ha":692,"x_min":174,"x_max":864,"o":"m 815 -107 q 813 -104 813 -107 q 817 -93 813 -101 q 838 -32 838 -57 q 787 28 838 13 q 661 44 736 44 q 533 37 601 44 q 398 17 464 29 q 280 -6 332 6 q 200 -25 228 -18 l 197 -25 q 181 -18 188 -25 q 174 -3 174 -11 q 197 24 174 15 q 203 24 200 24 q 207 25 206 25 l 211 29 q 291 65 251 49 q 369 100 331 82 q 415 124 382 106 q 491 167 449 142 q 573 218 533 192 q 638 269 613 244 q 664 310 664 293 q 647 326 664 321 q 604 331 631 331 q 516 324 565 331 q 426 308 467 317 q 374 293 386 299 q 352 285 364 289 q 328 269 340 281 q 319 260 324 267 q 315 244 315 253 q 318 229 315 235 q 315 226 318 226 q 306 232 307 226 q 288 256 300 240 q 276 290 276 272 q 319 331 276 313 q 435 358 363 349 q 594 365 507 368 q 642 360 613 365 q 697 343 672 354 q 721 313 721 332 q 713 291 721 303 q 686 264 706 279 q 611 210 656 239 q 516 154 567 182 q 419 103 465 126 q 338 65 372 81 l 275 39 q 460 71 367 57 q 646 85 554 85 q 715 83 681 85 q 782 74 749 81 q 837 49 810 68 q 864 -10 864 29 q 856 -48 864 -26 q 831 -94 849 -69 q 815 -107 824 -107 z "},"{":{"ha":363,"x_min":65,"x_max":618,"o":"m 183 -183 q 126 -176 154 -183 q 81 -149 97 -169 q 71 -85 65 -128 q 93 -21 75 -56 q 135 50 111 14 q 181 121 160 86 q 210 185 201 156 q 214 207 214 197 q 184 251 214 238 q 106 265 154 265 q 103 268 103 265 q 107 275 103 271 q 117 278 111 279 q 247 320 201 285 q 329 436 293 356 q 374 528 356 490 q 408 583 392 565 q 492 639 440 619 q 606 658 543 658 q 618 651 618 658 q 601 642 618 642 q 508 620 543 642 q 452 563 474 599 q 413 481 431 526 q 368 389 394 436 q 293 308 343 343 q 182 271 243 274 q 234 251 213 269 q 256 201 256 232 q 255 190 256 196 q 253 179 254 185 q 215 99 240 143 q 166 10 190 56 q 131 -79 142 -36 q 125 -114 125 -97 q 149 -158 125 -146 q 215 -174 174 -169 q 222 -178 222 -175 q 217 -182 221 -182 q 200 -183 208 -182 q 183 -183 192 -183 z "},"|":{"ha":417,"x_min":164,"x_max":560,"o":"m 169 -133 q 164 -128 164 -133 q 171 -112 164 -124 q 222 -23 188 -86 q 301 125 257 40 q 388 302 344 210 q 465 482 431 394 q 514 636 499 569 q 536 649 517 649 q 560 621 560 649 q 544 553 560 599 q 488 416 524 493 q 412 257 453 339 q 329 99 371 175 q 253 -33 288 24 q 197 -115 218 -90 q 169 -133 182 -133 z "},"}":{"ha":472,"x_min":-14,"x_max":539,"o":"m -1 -187 q -14 -181 -14 -187 q 3 -171 -14 -171 q 96 -149 61 -171 q 152 -92 131 -128 q 192 -10 174 -56 q 236 82 210 35 q 310 163 260 128 q 421 200 361 199 q 369 220 390 203 q 349 268 349 238 q 349 280 349 274 q 351 292 350 286 q 389 372 364 329 q 438 461 414 415 q 474 550 463 507 q 479 585 479 568 q 455 628 479 617 q 389 644 431 640 q 383 649 383 646 q 388 653 383 653 q 404 653 396 653 q 421 654 413 654 q 479 647 451 654 q 523 619 507 640 q 533 556 539 599 q 511 492 529 526 q 469 421 493 457 q 424 350 444 385 q 394 286 403 315 q 390 264 390 274 q 420 219 390 233 q 499 206 450 206 q 501 203 501 206 q 497 196 501 200 q 488 193 493 192 q 357 151 403 186 q 275 35 311 117 q 231 -57 249 -19 q 196 -112 213 -94 q 113 -168 164 -149 q -1 -187 61 -187 z "},"~":{"ha":421,"x_min":67,"x_max":374,"o":"m 281 550 q 213 568 254 550 q 143 588 165 588 q 97 569 119 588 q 68 551 75 551 q 67 556 67 553 q 125 611 67 576 q 176 625 147 625 q 204 622 188 625 q 243 611 221 618 q 281 600 265 604 q 308 596 297 596 q 365 626 343 596 q 374 621 374 626 q 319 563 374 600 q 281 550 301 550 z "},"†":{"ha":694,"x_min":226,"x_max":738,"o":"m 231 15 q 228 24 226 15 q 231 31 228 24 q 245 64 235 38 q 279 148 256 90 q 343 305 303 206 q 447 560 383 404 q 390 558 418 558 q 335 554 363 557 q 274 550 271 550 q 251 561 267 550 q 238 582 238 574 q 243 585 240 585 q 333 591 279 589 q 460 594 388 593 q 503 711 481 649 q 549 844 525 774 q 567 860 551 851 q 596 868 582 868 q 613 853 613 868 q 574 747 599 814 q 513 594 549 681 q 732 578 665 593 q 738 574 738 576 q 719 567 735 567 q 619 565 674 567 q 499 561 564 564 q 408 360 447 451 q 333 189 368 268 q 256 35 297 110 q 244 24 254 33 q 231 15 233 15 z "},"°":{"ha":694,"x_min":239,"x_max":604,"o":"m 360 303 q 272 338 304 303 q 239 425 239 372 q 249 486 239 457 q 304 579 267 538 q 389 646 342 621 q 483 671 436 671 q 572 636 539 671 q 604 549 604 601 q 593 486 604 522 q 539 394 576 436 q 454 328 501 353 q 360 303 407 303 m 378 347 q 474 388 426 347 q 540 485 522 428 q 546 509 544 497 q 547 531 547 521 q 525 597 547 571 q 464 624 503 624 q 367 583 415 624 q 300 485 319 542 q 293 440 293 460 q 316 374 293 400 q 378 347 339 347 z "},"¢":{"ha":686,"x_min":190,"x_max":824,"o":"m 206 -97 q 190 -83 190 -94 q 207 -36 193 -71 q 267 88 238 43 q 314 160 296 132 q 285 198 296 175 q 275 250 275 221 q 400 444 275 349 q 503 502 456 488 q 582 514 550 517 q 620 563 593 529 q 680 633 647 596 q 740 697 713 669 q 781 728 768 724 q 803 736 788 736 q 822 718 824 732 q 821 715 822 717 q 818 711 819 714 q 765 658 793 686 q 699 592 736 631 q 614 493 663 553 q 624 468 624 483 q 612 426 624 449 q 583 389 600 404 q 547 374 565 374 q 543 383 542 375 q 552 404 543 394 q 561 426 561 414 q 555 458 565 449 q 525 467 544 467 q 463 451 497 467 q 408 411 428 435 q 363 344 379 376 q 340 278 347 311 q 338 264 339 271 q 338 250 338 257 q 363 186 338 210 q 440 163 389 163 q 669 282 542 163 q 697 297 689 297 q 707 292 707 297 q 680 258 704 279 q 623 215 656 238 q 558 173 590 192 q 510 147 526 154 q 418 126 464 126 q 340 142 382 126 q 302 87 321 115 q 262 16 283 58 q 210 -94 240 -26 q 208 -96 208 -94 q 206 -97 207 -97 z "},"…":{"ha":1103,"x_min":208,"x_max":1065,"o":"m 1006 -14 q 978 15 978 -14 q 982 36 978 26 q 1012 63 989 56 q 1053 67 1035 69 q 1065 50 1065 65 q 1057 21 1065 38 q 1034 -5 1049 4 q 1006 -14 1019 -14 m 236 -14 q 208 15 208 -14 q 213 36 208 26 q 242 63 219 56 q 283 67 265 69 q 296 50 296 65 q 288 21 296 38 q 265 -5 279 4 q 236 -14 250 -14 m 614 -14 q 586 15 586 -14 q 590 36 586 26 q 620 63 597 56 q 661 67 643 69 q 674 50 674 65 q 665 21 674 38 q 642 -5 657 4 q 614 -14 628 -14 z "},"–":{"ha":865,"x_min":296,"x_max":814,"o":"m 310 233 q 296 243 296 233 q 306 258 296 250 q 339 271 317 265 q 374 274 347 272 q 434 276 400 275 q 499 277 468 276 q 549 278 531 278 q 589 278 568 278 q 635 279 610 279 q 699 277 665 279 q 772 268 733 275 q 814 256 814 260 q 802 251 814 253 q 772 247 790 249 q 664 243 726 246 q 534 238 601 240 q 408 235 467 236 q 310 233 349 233 z "},"—":{"ha":1068,"x_min":296,"x_max":1017,"o":"m 310 233 q 296 243 296 233 q 306 258 296 250 q 339 271 317 265 q 385 273 346 272 q 479 274 424 274 q 592 276 535 275 q 694 276 650 276 q 751 276 738 276 q 792 277 771 276 q 838 278 813 278 q 902 276 868 278 q 975 267 936 274 q 1017 254 1017 258 q 1005 249 1017 251 q 975 246 993 247 q 870 242 939 244 q 718 239 801 240 q 553 236 635 238 q 406 234 471 235 q 310 233 340 233 z "},"€":{"ha":757,"x_min":68,"x_max":915,"o":"m 313 -36 q 215 -18 261 -36 q 142 35 169 0 q 114 119 114 69 q 143 249 114 185 l 110 249 q 68 257 68 249 q 142 289 68 272 q 153 291 147 290 q 167 292 160 292 q 185 322 175 307 q 207 350 196 336 q 186 349 197 350 q 167 349 175 349 q 125 358 125 349 q 199 389 125 372 q 219 392 208 390 q 244 393 231 393 q 408 528 315 468 q 598 622 501 588 q 775 657 694 657 q 880 638 844 657 q 915 574 915 619 q 906 532 915 557 q 881 488 897 507 q 844 468 865 468 q 835 470 839 468 q 832 482 832 472 q 847 504 832 488 q 875 543 861 521 q 889 585 889 565 q 870 617 889 607 q 819 628 851 628 q 715 611 776 628 q 585 563 654 594 q 449 489 517 532 q 324 394 381 446 q 419 393 364 394 q 533 389 475 392 q 594 376 594 385 q 533 367 594 367 q 410 363 474 367 q 285 357 346 360 q 235 294 258 328 l 236 294 q 336 292 272 294 q 469 283 400 290 q 532 272 532 281 q 469 261 532 261 q 339 256 406 260 q 208 250 272 251 q 178 135 178 192 q 222 35 178 71 q 331 0 267 0 q 344 0 338 0 q 357 1 350 0 q 575 64 464 14 q 775 186 686 114 q 782 190 779 190 q 785 186 785 190 q 774 161 785 175 q 644 69 715 110 q 498 1 574 28 q 351 -33 422 -25 q 332 -35 342 -35 q 313 -36 322 -36 z "},"¤":{"ha":746,"x_min":138,"x_max":708,"o":"m 556 207 q 549 208 553 207 q 540 210 546 208 q 528 218 535 211 q 519 232 522 225 q 499 276 510 247 q 476 340 488 304 q 358 303 417 303 q 282 326 314 303 q 220 267 253 296 q 174 228 188 238 q 151 224 161 218 q 138 244 138 232 q 142 257 138 251 q 251 361 157 285 q 236 426 236 389 q 247 486 236 453 q 285 557 260 524 q 342 615 310 590 q 300 729 300 703 q 332 756 300 750 q 334 756 333 756 q 336 757 335 757 q 351 746 346 757 q 367 706 358 732 q 385 644 375 681 q 482 671 435 671 q 554 649 524 671 q 608 710 583 685 q 647 749 632 735 q 672 761 660 761 q 696 739 708 761 q 660 697 689 726 q 582 619 632 667 q 597 587 592 606 q 603 547 603 568 q 592 486 603 519 q 513 368 569 418 q 553 274 540 310 q 568 224 567 238 l 568 218 q 556 207 568 207 m 376 347 q 473 388 425 347 q 539 485 521 428 q 544 509 543 497 q 546 531 546 521 q 524 597 546 571 q 463 624 501 624 q 366 583 414 624 q 299 485 318 542 q 292 440 292 460 q 315 374 292 400 q 376 347 338 347 z "},"'":{"ha":90,"x_min":206,"x_max":379,"o":"m 207 501 q 206 503 206 501 q 210 513 206 506 q 224 533 214 519 q 281 611 254 571 q 325 679 308 651 q 340 683 332 683 q 367 677 354 683 q 376 665 379 671 q 340 623 363 649 q 292 572 317 597 q 246 528 267 546 q 225 510 238 519 q 207 501 213 501 z "},"\"":{"ha":497,"x_min":206,"x_max":525,"o":"m 353 501 q 351 503 351 501 q 356 513 351 506 q 369 533 360 519 q 427 611 400 571 q 471 679 454 651 q 486 683 478 683 q 513 677 500 683 q 522 665 525 671 q 485 623 508 649 q 438 572 463 597 q 392 528 413 546 q 371 510 383 519 q 353 501 358 501 m 207 501 q 206 503 206 501 q 210 513 206 506 q 224 533 214 519 q 281 611 254 571 q 325 679 308 651 q 340 683 332 683 q 367 677 354 683 q 376 665 379 671 q 340 623 363 649 q 292 572 317 597 q 246 528 267 546 q 225 510 238 519 q 207 501 213 501 z "},"®":{"ha":957,"x_min":265,"x_max":1015,"o":"m 510 40 q 333 90 401 40 q 265 257 265 139 q 297 391 265 324 q 381 518 328 458 q 501 624 435 578 q 640 698 568 671 q 778 725 711 725 q 961 665 907 725 q 1015 506 1015 606 q 985 372 1015 439 q 902 246 954 306 q 784 140 850 186 q 647 67 718 93 q 510 40 576 40 m 535 75 q 683 111 608 75 q 822 208 758 147 q 924 342 885 268 q 963 494 963 417 q 919 632 963 578 q 786 686 876 686 q 605 650 690 686 q 455 552 519 614 q 353 413 390 490 q 315 256 315 336 q 376 117 315 158 q 535 75 438 75 m 421 176 q 401 179 411 176 q 389 188 392 182 q 426 222 404 190 q 472 302 447 254 q 519 401 496 350 q 563 496 543 453 q 592 560 582 539 q 619 580 596 569 q 718 608 642 590 q 785 583 764 606 q 806 529 806 560 q 767 444 806 486 q 663 390 729 401 l 615 389 q 654 310 632 350 q 705 242 676 269 q 765 214 733 214 q 815 235 793 214 q 797 212 807 224 q 776 189 788 200 q 738 179 757 179 q 670 209 701 179 q 615 285 639 239 q 572 381 590 332 q 579 391 572 381 q 592 401 586 401 q 690 421 653 401 q 743 468 726 440 q 760 522 760 496 q 746 567 760 549 q 708 585 732 585 q 658 573 674 585 q 626 532 643 561 q 559 401 590 471 q 496 258 528 332 q 466 197 476 213 q 432 176 456 181 l 421 176 z "},"©":{"ha":965,"x_min":265,"x_max":1015,"o":"m 510 40 q 333 90 401 40 q 265 257 265 139 q 297 391 265 324 q 381 518 328 458 q 501 624 435 578 q 640 698 568 671 q 778 725 711 725 q 961 665 907 725 q 1015 506 1015 606 q 985 372 1015 439 q 902 246 954 306 q 784 140 850 186 q 647 67 718 93 q 510 40 576 40 m 535 75 q 683 111 608 75 q 822 208 758 147 q 924 342 885 268 q 963 494 963 417 q 919 632 963 578 q 786 686 876 686 q 605 650 690 686 q 455 552 519 614 q 353 413 390 490 q 315 256 315 336 q 376 117 315 158 q 535 75 438 75 m 531 176 q 455 197 486 176 q 424 265 424 217 q 455 384 424 325 q 537 492 486 443 q 650 569 588 540 q 775 599 713 599 q 835 547 835 599 q 806 515 835 510 q 808 532 807 524 q 810 547 810 540 q 803 569 810 560 q 772 578 796 578 q 683 553 736 578 q 579 472 629 529 q 478 261 478 356 q 533 203 478 203 q 599 216 561 203 q 682 256 636 229 q 765 308 771 307 q 768 306 768 308 q 746 260 768 283 q 688 219 724 238 q 610 188 651 200 q 531 176 568 176 z "},"´":{"ha":407,"x_min":118,"x_max":340,"o":"m 124 526 q 118 529 118 526 q 146 550 118 535 q 227 601 188 574 q 293 650 267 629 q 324 639 308 653 q 336 618 340 625 q 286 592 317 607 q 223 562 256 576 q 165 536 190 547 q 144 530 157 533 q 124 526 131 526 z "},"ˆ":{"ha":514,"x_min":110,"x_max":438,"o":"m 115 464 q 110 469 110 464 q 122 486 110 478 q 177 528 143 503 q 249 580 211 553 q 321 629 288 607 q 386 561 335 628 q 414 521 401 540 q 432 490 426 501 q 438 474 438 483 q 433 463 438 467 q 425 464 428 460 q 389 506 411 482 q 348 551 367 531 q 321 579 329 572 q 279 551 306 569 q 218 511 253 533 q 153 476 179 486 q 119 464 126 465 l 115 464 z "},"˜":{"ha":378,"x_min":40,"x_max":349,"o":"m 256 519 q 186 538 228 519 q 118 557 139 557 q 72 539 94 557 q 42 521 50 521 q 40 524 40 522 q 56 549 40 535 q 100 581 71 563 q 150 594 122 594 q 217 581 175 594 q 255 569 239 574 q 282 565 271 565 q 340 594 315 565 q 349 589 349 594 q 335 564 349 579 q 293 531 322 549 q 256 519 275 519 z "},"¯":{"ha":317,"x_min":26,"x_max":303,"o":"m 54 525 q 26 535 26 525 q 75 569 26 553 q 138 578 99 578 q 194 575 161 578 q 267 567 226 572 q 303 553 303 563 q 267 542 303 542 q 192 538 242 542 q 138 531 171 536 q 61 525 106 525 l 54 525 z "},"˘":{"ha":397,"x_min":69,"x_max":328,"o":"m 186 501 q 102 533 135 501 q 69 604 69 564 q 76 618 69 618 q 86 615 79 618 q 99 600 93 613 q 140 555 115 567 q 192 543 165 543 q 250 557 219 543 q 303 606 281 571 q 318 618 311 618 q 328 608 328 618 q 325 593 328 604 q 272 523 308 544 q 186 501 235 501 z "},"˙":{"ha":226,"x_min":69,"x_max":157,"o":"m 97 513 q 69 542 69 513 q 74 563 69 553 q 101 587 81 581 q 139 593 121 593 q 157 576 157 593 q 149 547 157 564 q 126 522 140 531 q 97 513 111 513 z "},"˚":{"ha":318,"x_min":81,"x_max":265,"o":"m 150 519 q 97 538 113 519 q 81 583 81 557 q 97 651 81 619 q 142 702 114 682 q 206 722 171 722 q 249 701 232 722 q 265 650 265 679 q 248 583 265 613 q 204 536 231 553 q 150 519 178 519 m 153 546 q 208 579 186 546 q 232 647 232 614 q 201 697 232 697 q 171 680 188 697 q 143 636 154 663 q 132 582 132 610 q 153 546 132 546 z "},"¸":{"ha":311,"x_min":21,"x_max":240,"o":"m 33 -389 q 21 -374 21 -389 q 33 -362 21 -367 q 83 -354 58 -358 q 133 -347 108 -350 q 182 -267 182 -332 q 146 -197 182 -249 q 110 -118 110 -144 q 136 -35 110 -69 q 207 3 164 3 q 224 -7 222 3 q 176 -37 193 -12 q 160 -94 160 -62 q 200 -161 160 -110 q 240 -251 240 -214 q 167 -357 240 -317 q 33 -389 106 -389 z "},"˝":{"ha":217,"x_min":28,"x_max":204,"o":"m 117 503 q 115 507 115 503 q 121 531 115 514 q 142 604 133 567 q 156 667 151 642 q 169 676 160 674 q 188 678 178 678 q 204 672 204 678 q 177 604 196 647 q 143 533 158 561 q 129 514 138 525 q 117 503 121 503 m 29 503 q 28 507 28 503 q 33 531 28 514 q 55 604 46 567 q 68 667 64 642 q 81 676 72 674 q 100 678 90 678 q 117 672 117 678 q 90 604 108 647 q 56 533 72 561 q 42 514 50 525 q 29 503 33 503 z "},"˛":{"ha":325,"x_min":53,"x_max":279,"o":"m 129 -211 q 53 -153 53 -211 q 79 -57 53 -115 q 140 11 108 8 l 144 7 q 97 -115 97 -58 q 160 -172 97 -172 q 222 -157 181 -172 q 264 -140 263 -140 q 279 -153 279 -140 q 213 -193 279 -172 q 129 -211 158 -211 z "},"ˇ":{"ha":514,"x_min":114,"x_max":438,"o":"m 226 489 q 161 557 213 490 q 125 609 136 589 q 114 636 114 629 q 128 649 121 649 q 226 539 146 649 q 266 569 240 553 q 329 607 292 586 q 396 642 369 631 q 433 654 422 653 q 438 647 438 653 q 425 632 438 640 q 313 556 361 590 q 233 493 265 521 l 226 489 z "},"Ç":{"ha":833,"x_min":35,"x_max":1779,"o":"m 625 -175 q 308 -137 440 -175 q 106 -24 176 -99 q 35 156 35 50 q 97 379 35 271 q 274 574 160 488 q 544 709 388 660 q 889 754 700 758 q 974 737 929 753 q 1039 707 1019 721 q 1111 757 1075 732 q 1169 808 1147 782 q 1200 829 1189 829 q 1204 825 1204 829 q 1196 807 1204 819 q 1138 749 1174 778 q 1061 693 1101 721 q 1092 642 1092 668 q 1063 572 1092 603 q 995 522 1033 540 q 926 504 957 504 q 885 536 885 504 q 914 601 885 561 q 955 645 931 625 q 1007 685 979 665 q 968 699 993 694 q 907 707 943 704 q 881 709 893 708 q 854 710 868 710 q 639 678 749 710 q 428 591 529 646 q 246 465 326 536 q 118 313 165 393 q 71 151 71 232 q 191 -49 71 25 q 569 -122 311 -122 q 686 -118 624 -122 q 969 -83 824 -110 q 1257 -6 1114 -56 q 1531 118 1400 43 q 1769 299 1661 193 q 1774 300 1771 300 q 1778 296 1776 300 q 1775 286 1779 292 q 1545 90 1675 174 q 1269 -51 1415 6 q 976 -138 1124 -108 q 693 -174 828 -168 q 658 -175 675 -175 q 625 -175 642 -175 m 942 547 q 969 561 951 547 q 1015 624 1007 593 q 1024 665 1022 656 q 979 629 997 644 q 946 593 961 614 q 933 558 933 575 q 942 547 933 547 m 419 -550 q 407 -535 407 -550 q 419 -524 407 -528 q 469 -515 444 -519 q 519 -508 494 -511 q 568 -428 568 -493 q 532 -358 568 -410 q 496 -279 496 -306 q 522 -196 496 -231 q 593 -158 550 -158 q 610 -168 608 -158 q 563 -199 579 -174 q 546 -256 546 -224 q 586 -322 546 -271 q 626 -412 626 -375 q 553 -518 626 -478 q 419 -550 492 -550 z "},"Ñ":{"ha":1379,"x_min":-6,"x_max":1960,"o":"m 332 -229 q 231 -217 279 -229 q 116 -158 167 -197 q 40 -57 65 -119 q 38 -46 39 -50 q 38 -39 38 -42 q 42 -29 38 -29 q 57 -53 50 -29 q 128 -151 81 -114 q 240 -199 175 -187 q 276 -204 258 -203 q 311 -206 293 -206 q 430 -187 372 -206 q 535 -143 488 -169 q 667 -48 594 -111 q 818 98 740 15 q 969 274 896 181 q 1101 460 1042 367 q 1197 636 1161 553 q 1086 747 1158 714 q 924 779 1014 779 q 851 775 889 779 q 499 663 663 753 q 204 454 336 574 q 118 371 160 414 q 51 289 76 328 q 25 221 25 250 q 17 213 25 213 q 6 224 10 213 q -2 251 1 239 q -6 274 -6 264 q -3 289 -6 281 q 40 363 8 324 q 114 442 71 403 q 201 517 157 482 q 506 701 342 626 q 843 793 669 775 q 925 797 885 797 q 1091 772 1015 797 q 1217 685 1167 746 l 1225 710 q 1240 736 1235 736 q 1247 728 1244 736 q 1250 711 1250 721 q 1249 700 1250 703 l 1233 661 q 1258 614 1247 639 q 1276 560 1269 589 q 1292 463 1288 513 q 1297 361 1297 413 q 1294 278 1297 319 q 1288 197 1292 238 q 1372 366 1322 278 q 1481 537 1421 454 q 1608 684 1540 619 q 1747 785 1675 749 q 1893 814 1819 821 q 1939 795 1918 813 q 1960 750 1960 778 q 1956 728 1960 740 q 1951 719 1954 724 q 1944 715 1947 715 q 1942 731 1940 715 q 1923 769 1947 763 q 1869 776 1899 776 q 1750 735 1814 776 q 1620 626 1686 693 q 1493 477 1554 558 q 1383 315 1432 396 q 1301 167 1333 233 q 1288 135 1294 151 q 1275 104 1282 119 q 1263 37 1269 69 q 1249 -25 1256 4 q 1226 -49 1246 -36 q 1214 -153 1214 -107 q 1203 -168 1213 -168 q 1193 -158 1193 -168 q 1192 -144 1192 -151 q 1192 -131 1192 -137 q 1200 -60 1192 -97 l 1196 -60 q 1181 -42 1175 -60 q 1207 81 1194 10 q 1228 231 1219 151 q 1238 392 1238 311 q 1235 465 1238 429 q 1228 536 1233 501 q 1220 573 1225 556 q 1210 607 1215 590 q 1081 367 1156 489 q 922 138 1007 246 q 749 -53 836 29 q 579 -174 661 -135 q 463 -213 528 -197 q 332 -229 397 -229 m 1485 880 q 1426 896 1462 880 q 1368 912 1386 912 q 1329 897 1348 912 q 1303 882 1311 882 q 1302 884 1302 883 q 1315 905 1302 893 q 1353 932 1328 917 q 1396 944 1372 944 q 1452 932 1417 944 q 1485 923 1471 926 q 1508 919 1498 919 q 1557 944 1536 919 q 1564 939 1564 944 q 1553 918 1564 931 q 1517 890 1542 905 q 1485 880 1502 880 z "},"Œ":{"ha":2935,"x_min":-8,"x_max":2944,"o":"m 879 -69 q 715 -12 768 -69 q 663 131 663 46 q 709 310 663 214 q 843 489 756 406 q 949 572 888 531 q 1081 649 1010 614 q 1226 704 1151 683 q 1372 725 1301 725 q 1439 715 1407 725 q 1471 679 1471 704 q 1469 667 1471 671 q 1445 631 1463 644 q 1408 604 1428 617 q 1401 604 1407 603 q 1400 611 1396 606 l 1417 631 q 1428 663 1428 650 q 1357 694 1428 694 q 1228 669 1297 694 q 1090 603 1158 644 q 962 515 1021 563 q 864 424 903 468 q 742 245 779 325 q 704 107 704 165 q 753 -6 704 33 q 878 -44 801 -44 q 990 -26 925 -44 q 1130 26 1056 -8 q 1278 107 1204 60 q 1416 213 1351 154 q 1526 339 1481 271 q 1479 331 1496 331 q 1454 353 1454 331 q 1472 391 1456 367 q 1519 415 1489 415 q 1544 410 1533 415 q 1564 404 1553 407 q 1593 483 1583 443 q 1603 564 1603 522 q 1551 715 1603 654 q 1413 813 1500 775 q 1216 866 1326 850 q 986 882 1106 882 q 732 862 863 882 q 480 802 601 842 q 262 703 358 763 q 108 567 165 644 q 51 392 51 489 q 76 292 51 340 q 178 219 101 243 q 247 203 206 211 q 311 196 289 194 l 317 196 q 338 190 338 196 q 321 182 338 186 q 301 180 311 181 q 279 179 290 179 q 189 190 236 179 q 44 273 96 217 q -8 393 -8 329 q 49 565 -8 486 q 206 709 107 644 q 434 819 306 774 q 705 888 563 864 q 989 913 847 913 q 1121 908 1047 913 q 1272 892 1194 904 q 1421 856 1349 879 q 1551 794 1493 832 q 1644 703 1610 757 q 1678 572 1678 649 q 1658 451 1678 513 q 1864 597 1749 533 q 2107 705 1979 661 q 2365 774 2235 749 q 2613 803 2494 799 q 2685 801 2650 804 q 2744 785 2721 797 q 2767 749 2767 774 q 2756 714 2767 735 q 2722 667 2746 693 q 2688 635 2710 653 q 2645 601 2667 617 q 2611 576 2624 585 l 2607 576 q 2594 581 2600 576 q 2600 592 2589 585 q 2624 615 2607 597 q 2659 653 2642 633 q 2685 682 2676 672 q 2704 724 2704 706 q 2685 753 2704 743 q 2636 767 2665 764 q 2578 769 2607 771 q 2356 744 2476 769 q 2111 671 2235 718 q 1876 561 1988 624 q 1681 425 1764 499 q 1821 450 1738 438 q 1997 470 1904 463 q 2171 478 2089 478 q 2326 465 2264 478 q 2377 451 2358 458 q 2396 438 2396 443 q 2365 431 2396 431 q 2306 435 2346 431 q 2253 439 2282 438 q 2192 440 2224 440 q 2047 435 2124 440 q 1892 421 1969 431 q 1747 398 1815 411 q 1629 368 1679 385 q 1557 214 1557 272 q 1594 125 1557 161 q 1690 67 1631 89 q 1820 35 1750 44 q 1956 25 1890 25 q 1989 26 1972 25 q 2019 28 2006 26 q 2341 80 2178 39 q 2657 201 2504 121 q 2933 410 2810 282 q 2935 411 2935 411 q 2936 411 2936 411 q 2938 399 2944 411 q 2743 219 2853 296 q 2511 90 2633 142 q 2265 10 2389 38 q 2025 -24 2140 -18 q 1991 -25 2008 -25 q 1957 -25 1974 -25 q 1800 -13 1876 -25 q 1663 26 1724 -1 q 1567 101 1603 53 q 1532 222 1532 150 q 1532 233 1532 226 q 1533 246 1532 239 q 1388 117 1469 175 q 1218 17 1307 60 q 1042 -47 1129 -25 q 879 -69 954 -69 z "},"¦":{"ha":417,"x_min":164,"x_max":560,"o":"m 404 338 q 471 498 442 419 q 514 636 500 576 q 536 649 517 649 q 560 621 560 649 q 544 553 560 599 q 506 457 529 510 q 456 347 483 404 l 404 338 m 169 -133 q 164 -128 164 -133 q 171 -112 164 -124 q 215 -37 186 -89 q 280 83 243 14 q 354 231 317 153 l 401 238 q 323 88 363 160 q 251 -37 283 17 q 197 -115 218 -90 q 169 -133 182 -133 z "},"−":{"ha":696,"x_min":306,"x_max":653,"o":"m 394 210 q 335 215 358 210 q 313 228 319 218 q 306 249 306 239 q 313 267 306 260 q 331 271 319 274 q 426 260 372 264 q 535 256 481 256 q 594 257 565 256 q 649 261 624 258 q 653 254 653 261 q 650 242 653 249 q 644 235 647 236 q 524 222 593 233 q 394 210 456 210 z "},"×":{"ha":565,"x_min":225,"x_max":638,"o":"m 242 75 q 228 78 232 75 q 226 93 225 82 q 276 151 231 107 q 410 268 321 194 q 388 406 381 376 q 424 425 392 425 q 440 411 435 425 q 449 369 446 397 q 454 303 453 340 l 483 329 l 538 376 q 599 418 574 404 q 638 429 624 432 q 586 378 633 419 q 458 271 539 336 q 466 232 460 253 q 486 189 472 211 l 485 189 q 553 140 518 140 q 574 146 561 140 l 572 144 q 588 151 581 150 q 600 153 594 153 l 603 143 l 603 142 q 567 108 599 124 q 539 97 553 101 q 515 92 525 92 q 442 150 474 92 q 414 233 419 192 q 351 169 388 207 q 263 83 314 132 q 242 75 250 75 z "},"’":{"ha":103,"x_min":224,"x_max":369,"o":"m 229 532 q 224 536 224 532 q 238 554 224 542 q 271 587 247 563 q 304 633 294 611 q 297 653 303 643 q 290 675 290 663 q 300 704 290 689 q 349 733 319 733 q 369 711 369 733 q 350 656 369 690 q 299 588 331 621 q 240 536 268 554 q 229 532 235 532 z "},"‘":{"ha":90,"x_min":219,"x_max":365,"o":"m 240 549 q 219 571 219 549 q 239 626 219 592 q 290 694 258 661 q 349 746 321 728 q 360 750 356 750 q 365 746 365 750 q 351 728 365 740 q 319 695 342 719 q 285 649 296 671 q 293 629 288 639 q 299 607 299 619 q 289 578 299 593 q 240 549 269 549 z "},"“":{"ha":542,"x_min":231,"x_max":533,"o":"m 408 549 q 388 571 388 549 q 407 626 388 592 q 458 694 426 661 q 517 746 489 728 q 528 750 524 750 q 533 746 533 750 q 519 728 533 740 q 487 695 510 719 q 453 649 464 671 q 461 629 456 639 q 467 607 467 619 q 457 578 467 593 q 408 549 438 549 m 251 549 q 231 571 231 549 q 250 626 231 592 q 301 694 269 661 q 360 746 332 728 q 371 750 367 750 q 376 746 376 750 q 363 728 376 740 q 330 695 353 719 q 296 649 307 671 q 304 629 299 639 q 310 607 310 619 q 300 578 310 593 q 251 549 281 549 z "},"”":{"ha":197,"x_min":222,"x_max":525,"o":"m 385 532 q 379 536 379 532 q 393 554 379 542 q 426 587 403 563 q 460 633 450 611 q 452 653 458 643 q 446 675 446 663 q 456 704 446 689 q 504 733 475 733 q 525 711 525 733 q 506 656 525 690 q 455 588 486 621 q 396 536 424 554 q 385 532 390 532 m 228 532 q 222 536 222 532 q 236 554 222 542 q 269 587 246 563 q 303 633 293 611 q 295 653 301 643 q 289 675 289 663 q 299 704 289 689 q 347 733 318 733 q 368 711 368 733 q 349 656 368 690 q 298 588 329 621 q 239 536 267 554 q 228 532 233 532 z "},"™":{"ha":1049,"x_min":310,"x_max":1063,"o":"m 561 633 q 551 643 547 633 q 569 673 551 646 q 622 751 588 700 q 692 843 663 806 q 726 888 722 881 q 735 914 731 901 q 744 939 740 926 q 781 972 763 976 q 790 947 786 972 q 781 874 786 911 q 776 800 776 836 q 813 722 776 722 q 949 822 847 722 q 1056 928 1053 928 q 1063 915 1063 925 q 1062 907 1063 911 q 1060 897 1061 903 q 1056 883 1058 892 q 1046 864 1053 875 q 1033 838 1039 849 q 1028 824 1028 828 q 1000 738 1017 782 q 965 647 983 694 q 924 635 950 631 q 915 644 911 635 q 915 647 915 644 q 917 653 915 650 q 951 724 932 681 q 997 824 971 768 q 801 701 853 701 q 735 858 740 701 q 704 813 728 846 q 660 742 681 781 q 625 683 640 707 q 596 647 610 660 q 561 633 579 628 m 328 621 q 314 638 310 625 q 379 744 315 651 l 456 856 q 479 900 476 890 q 450 913 479 913 q 433 914 443 914 q 410 915 424 914 q 393 914 400 914 q 379 914 386 914 q 349 929 347 914 q 499 943 357 943 l 553 943 q 616 942 588 943 q 665 940 644 942 q 689 931 689 936 q 610 913 689 917 q 545 907 568 910 q 518 897 522 904 q 490 858 504 881 q 456 801 475 835 l 399 697 q 380 668 390 686 q 354 629 369 650 q 328 621 346 621 z "},"ﬂ":{"ha":1031,"x_min":-103,"x_max":1314,"o":"m 15 -617 q -76 -583 -50 -617 q -103 -493 -103 -549 q -85 -381 -103 -443 q -42 -257 -68 -319 q 13 -139 -15 -194 q 64 -46 42 -83 q 194 146 129 64 q 308 290 258 228 q 306 297 306 293 q 296 338 296 318 q 308 370 296 363 q 322 372 321 378 q 340 325 326 344 q 411 413 368 360 q 506 522 454 465 q 610 629 557 579 q 712 710 663 679 q 800 742 761 742 q 841 732 829 742 q 853 707 853 722 q 839 671 853 689 q 810 649 825 653 q 788 665 806 665 q 717 634 763 665 q 617 555 671 603 q 512 455 564 507 q 421 359 460 403 q 367 293 382 315 q 472 238 411 254 q 588 221 532 221 q 685 233 639 221 q 685 234 685 233 q 686 236 685 235 q 749 369 710 301 q 836 500 788 438 q 938 612 885 563 q 1044 690 992 661 q 1142 719 1096 719 q 1181 708 1169 719 q 1193 678 1193 696 q 1165 588 1193 635 q 1093 493 1138 540 q 996 403 1049 446 q 891 324 943 360 q 797 263 839 288 q 733 228 756 238 q 718 142 718 189 q 745 41 718 86 q 835 -4 772 -4 q 927 13 876 -4 q 1029 56 978 31 q 1144 122 1089 86 q 1242 189 1200 157 q 1304 239 1285 221 q 1313 244 1310 244 q 1314 242 1314 244 q 1303 218 1314 229 q 1176 108 1244 160 q 1031 19 1107 56 q 935 -13 985 -1 q 839 -25 885 -25 q 710 22 746 -25 q 675 140 675 68 q 676 174 675 157 q 681 210 678 192 q 619 199 651 203 q 556 196 588 196 q 422 213 483 196 q 424 207 422 208 q 431 166 429 189 q 433 117 433 143 q 420 -24 433 54 q 381 -185 407 -103 q 318 -344 354 -267 q 235 -483 282 -421 q 133 -581 188 -544 q 15 -617 78 -617 m 738 257 q 782 284 747 263 q 865 340 817 306 q 964 417 913 375 q 1060 504 1015 458 q 1133 595 1106 550 q 1161 679 1161 640 q 1149 692 1161 692 q 1103 674 1132 692 q 1040 628 1074 656 q 974 571 1006 600 q 921 519 942 542 q 823 401 874 468 q 738 257 772 333 m 28 -594 q 125 -557 78 -594 q 215 -456 172 -519 q 292 -313 257 -392 q 352 -151 326 -235 q 392 9 378 -68 q 406 144 406 86 q 403 186 406 167 q 396 221 401 206 q 340 250 363 232 q 233 110 292 190 q 104 -89 174 31 q 55 -181 82 -128 q 3 -292 28 -233 q -36 -406 -21 -350 q -51 -504 -51 -461 q -33 -569 -51 -544 q 28 -594 -15 -594 z "},"‰":{"ha":975,"x_min":154,"x_max":978,"o":"m 199 -39 q 187 -44 196 -44 q 182 -37 178 -44 q 272 120 211 42 q 409 274 332 199 q 560 419 486 349 l 599 453 q 522 443 564 447 q 435 440 479 439 q 382 365 421 397 q 295 314 343 332 q 203 296 247 296 q 166 309 178 296 q 154 340 154 322 q 171 382 154 357 q 211 428 188 407 q 256 453 235 449 q 274 447 260 453 q 288 438 288 440 q 295 426 299 432 q 288 425 292 421 q 267 421 282 429 q 239 400 253 413 q 217 379 225 388 q 198 355 207 369 q 189 329 189 340 q 211 314 189 314 q 218 314 214 314 q 226 315 222 314 q 282 339 246 319 q 353 386 318 358 q 408 442 389 414 q 322 454 363 444 q 254 481 282 464 q 249 489 249 485 q 258 500 249 496 q 274 503 267 504 l 285 499 q 338 518 308 511 q 389 525 368 525 q 426 514 411 524 q 442 481 442 504 q 440 465 442 471 q 472 463 456 464 q 503 463 488 463 q 567 467 536 463 q 629 481 599 471 l 657 503 q 671 507 661 507 l 676 507 q 699 504 688 507 q 710 496 710 501 q 707 494 708 494 q 704 490 706 493 q 669 459 690 479 q 618 414 647 439 q 466 276 547 351 q 313 122 385 201 q 199 -39 242 42 m 421 468 q 423 476 422 472 q 424 485 424 481 q 413 508 424 501 q 386 515 401 515 q 345 508 363 515 q 317 489 328 500 q 367 477 340 483 q 421 468 394 471 m 467 -25 q 431 -12 442 -25 q 419 18 419 1 q 435 60 419 35 q 475 107 451 86 q 519 132 499 128 q 538 126 525 132 q 551 117 551 119 q 559 106 563 111 q 553 104 556 100 q 532 100 546 108 q 504 79 518 92 q 482 57 490 67 q 463 33 472 47 q 454 8 454 19 q 476 -7 454 -7 q 483 -7 479 -7 q 492 -6 488 -7 q 543 15 511 -3 q 609 57 575 32 q 666 110 643 82 q 689 163 689 138 q 678 186 689 178 q 650 194 667 194 q 597 175 617 194 q 556 135 578 156 q 544 129 550 129 q 529 150 529 129 q 543 174 529 165 q 599 195 567 188 q 654 203 632 203 q 691 192 676 203 q 706 158 706 182 q 683 85 706 119 q 624 27 660 51 q 546 -11 588 3 q 467 -25 504 -25 m 739 -25 q 703 -12 714 -25 q 692 18 692 1 q 708 60 692 35 q 747 107 724 86 q 792 132 771 128 q 810 126 797 132 q 824 117 824 119 q 831 106 835 111 q 825 104 828 100 q 804 100 818 108 q 776 79 790 92 q 754 57 763 67 q 735 33 744 47 q 726 8 726 19 q 749 -7 726 -7 q 756 -7 751 -7 q 764 -6 760 -7 q 815 15 783 -3 q 881 57 847 32 q 938 110 915 82 q 961 163 961 138 q 950 186 961 178 q 922 194 939 194 q 869 175 889 194 q 828 135 850 156 q 817 129 822 129 q 801 150 801 129 q 815 174 801 165 q 872 195 839 188 q 926 203 904 203 q 963 192 949 203 q 978 158 978 182 q 955 85 978 119 q 896 27 932 51 q 818 -11 860 3 q 739 -25 776 -25 z "},"«":{"ha":756,"x_min":193,"x_max":751,"o":"m 628 74 q 618 85 624 74 q 571 165 601 121 q 506 251 540 208 q 442 325 471 293 q 442 333 439 328 q 474 368 444 340 q 558 447 503 396 q 649 525 607 492 q 710 575 690 558 q 739 589 728 589 q 751 578 751 589 q 746 565 751 571 q 696 519 729 550 q 625 453 663 489 q 558 387 588 418 q 518 339 529 356 q 567 236 542 282 q 613 163 593 190 q 633 129 632 135 q 638 103 638 117 q 635 83 638 92 q 628 74 632 74 m 382 74 q 372 85 378 74 q 325 165 356 121 q 260 251 294 208 q 196 325 225 293 q 196 333 193 328 q 228 368 199 340 q 313 447 257 396 q 403 525 361 492 q 464 575 444 558 q 493 589 482 589 q 506 578 506 589 q 500 565 506 571 q 450 519 483 550 q 379 453 417 489 q 313 387 342 418 q 272 339 283 356 q 322 236 296 282 q 367 163 347 190 q 388 129 386 135 q 392 103 392 117 q 389 83 392 92 q 382 74 386 74 z "},"»":{"ha":801,"x_min":203,"x_max":761,"o":"m 461 65 q 449 76 449 65 q 454 89 449 83 q 504 135 471 104 q 575 201 538 165 q 642 267 613 236 q 682 315 672 299 q 633 418 660 372 q 588 492 607 464 q 567 525 569 521 q 563 551 563 538 q 565 572 563 563 q 572 581 568 581 q 582 569 576 581 q 629 490 599 533 q 695 403 660 446 q 758 329 731 361 q 758 321 761 326 q 728 287 757 314 q 642 207 699 260 q 551 129 593 163 q 490 79 510 96 q 461 65 472 65 m 215 65 q 203 76 203 65 q 208 89 203 83 q 258 135 225 104 q 329 201 292 165 q 397 267 367 236 q 436 315 426 299 q 388 418 414 372 q 342 492 361 464 q 321 525 324 521 q 317 551 317 538 q 319 572 317 563 q 326 581 322 581 q 336 569 331 581 q 383 490 353 533 q 449 403 414 446 q 513 329 485 361 q 513 321 515 326 q 482 287 511 314 q 396 207 453 260 q 306 129 347 163 q 244 79 264 96 q 215 65 226 65 z "},"Æ":{"ha":2588,"x_min":-114,"x_max":2906,"o":"m -7 -299 q -62 -284 -31 -299 q -107 -233 -93 -269 q -114 -199 -114 -215 q -85 -111 -114 -158 q -8 -14 -56 -64 q 125 106 43 39 q 310 245 207 172 q 526 390 413 318 q 756 526 640 463 q 980 639 872 590 q 1178 714 1088 688 q 1332 736 1269 740 q 1420 689 1383 733 q 1457 575 1457 644 q 1442 468 1457 531 q 1401 336 1426 406 q 1635 491 1507 421 q 1906 614 1764 561 q 2196 697 2047 667 q 2492 731 2344 726 q 2609 717 2560 732 q 2658 656 2658 701 q 2638 585 2658 624 q 2585 517 2617 547 q 2519 481 2553 488 l 2515 481 q 2506 485 2506 481 q 2515 496 2506 490 q 2566 549 2547 517 q 2585 613 2585 582 q 2561 667 2585 644 q 2485 690 2538 690 q 2281 672 2392 690 q 2055 620 2171 654 q 1826 540 1939 586 q 1612 437 1713 493 q 1433 315 1511 381 q 1506 320 1449 318 q 1645 324 1564 322 q 1814 326 1726 326 q 2005 323 1913 326 q 2149 313 2097 319 q 2199 294 2199 304 q 2179 282 2199 288 q 2142 276 2160 276 q 2061 278 2107 276 q 1963 279 2015 279 q 1798 278 1885 279 q 1629 273 1711 276 q 1481 265 1547 269 q 1374 253 1414 260 q 1337 165 1349 206 q 1325 92 1325 125 q 1360 -12 1325 29 q 1455 -78 1396 -54 q 1588 -112 1514 -101 q 1739 -122 1663 -122 q 1785 -122 1763 -122 q 1829 -119 1807 -121 q 2204 -62 2014 -107 q 2573 70 2394 -18 q 2896 299 2751 158 q 2900 300 2897 300 q 2904 296 2903 300 q 2901 286 2906 292 q 2739 136 2829 203 q 2549 17 2649 69 q 2192 -120 2378 -72 q 1836 -175 2006 -168 q 1794 -176 1815 -176 q 1751 -176 1772 -176 q 1584 -167 1665 -176 q 1435 -133 1503 -157 q 1324 -68 1368 -110 q 1265 38 1279 -26 q 1229 -24 1247 6 q 1194 -76 1211 -53 q 1183 -86 1186 -86 q 1181 -79 1181 -86 q 1185 -61 1181 -71 q 1244 77 1211 -4 q 1308 244 1278 158 q 1181 235 1249 239 q 1047 231 1113 231 q 948 234 996 231 q 864 246 900 238 q 866 272 865 256 q 874 301 867 288 q 899 314 881 314 q 924 308 911 314 q 981 302 933 306 q 1092 297 1028 299 q 1215 296 1156 296 q 1278 297 1249 296 q 1328 299 1307 297 q 1381 469 1360 389 q 1401 597 1401 550 q 1370 678 1401 656 q 1290 701 1339 701 q 1117 671 1213 701 q 917 588 1022 640 q 703 467 811 535 q 490 324 594 399 q 295 176 386 250 q 132 38 204 103 q 15 -76 60 -28 q -32 -189 -32 -128 q -22 -236 -32 -214 q 11 -274 -11 -258 q 21 -287 21 -282 q -7 -299 21 -299 z "},"¨":{"ha":514,"x_min":146,"x_max":406,"o":"m 346 513 q 318 542 318 513 q 322 563 318 553 q 349 587 329 581 q 388 593 369 593 q 406 576 406 593 q 397 547 406 564 q 374 522 389 531 q 346 513 360 513 m 174 513 q 146 542 146 513 q 150 563 146 553 q 177 587 157 581 q 215 593 197 593 q 233 576 233 593 q 225 547 233 564 q 202 522 217 531 q 174 513 188 513 z "},"Ø":{"ha":1513,"x_min":-8,"x_max":1697,"o":"m 726 -119 q 719 -112 721 -119 q 718 -97 718 -106 q 719 -83 718 -86 q 746 -36 719 -74 q 683 34 704 -10 q 663 131 663 78 q 709 309 663 213 q 843 489 756 406 q 954 576 889 532 q 1095 655 1019 619 q 1250 710 1171 690 q 1401 724 1329 729 q 1445 712 1425 721 q 1469 686 1465 703 q 1498 709 1483 697 q 1531 735 1513 721 q 1392 821 1478 789 q 1203 867 1307 853 q 986 882 1099 882 q 732 862 863 882 q 480 802 601 842 q 262 703 358 763 q 108 567 165 644 q 51 392 51 489 q 76 292 51 340 q 178 219 101 243 q 247 203 206 211 q 311 196 289 194 l 317 196 q 338 190 338 196 q 321 182 338 186 q 301 180 311 181 q 279 179 290 179 q 189 190 236 179 q 44 273 96 217 q -8 393 -8 329 q 49 565 -8 486 q 206 709 107 644 q 434 819 306 774 q 705 888 563 864 q 989 913 847 913 q 1131 908 1051 913 q 1292 888 1210 903 q 1451 846 1375 874 q 1581 772 1526 818 l 1633 810 q 1660 815 1646 818 q 1690 792 1697 815 q 1685 785 1690 790 l 1619 735 q 1663 663 1647 703 q 1678 572 1678 622 q 1640 403 1678 485 q 1538 249 1603 321 q 1392 119 1474 178 q 1220 19 1310 61 q 1043 -47 1131 -24 q 879 -69 956 -69 q 825 -65 850 -69 q 779 -53 800 -60 q 763 -78 772 -64 q 743 -110 754 -92 q 726 -119 739 -119 m 763 -12 l 772 -1 q 1038 303 879 144 q 1426 650 1196 461 q 1428 661 1428 654 q 1412 685 1428 676 q 1357 694 1396 694 q 1228 669 1297 694 q 1090 603 1158 644 q 962 515 1021 563 q 864 424 903 468 q 742 245 779 325 q 704 107 704 165 q 720 37 704 67 q 763 -12 736 7 m 878 -44 q 1002 -23 929 -44 q 1157 39 1075 -1 q 1318 135 1239 79 q 1461 258 1397 190 q 1564 403 1525 325 q 1603 564 1603 481 q 1593 634 1603 601 q 1565 694 1583 667 l 1521 660 q 1075 279 1250 450 q 804 -19 900 108 l 796 -31 q 835 -40 814 -36 q 878 -44 856 -44 z "},"æ":{"ha":1182,"x_min":168,"x_max":1525,"o":"m 646 -17 q 569 5 599 -17 q 540 83 540 26 q 551 144 542 113 q 571 203 560 175 q 517 147 553 182 q 435 77 481 113 q 343 17 390 42 q 254 -8 296 -8 q 186 22 213 -8 q 168 75 168 42 q 194 160 168 114 q 262 249 219 206 q 353 328 304 293 q 450 378 403 363 q 553 399 515 399 q 612 377 593 399 q 636 315 631 356 l 636 311 q 631 295 636 301 q 622 289 626 289 q 615 300 615 289 q 613 320 615 307 q 601 345 611 333 q 565 357 590 357 q 486 338 531 357 q 396 285 442 318 q 310 215 350 253 q 243 139 269 176 q 213 72 217 101 q 211 64 211 68 q 211 57 211 60 q 222 22 211 32 q 249 13 232 13 q 306 28 274 13 q 367 63 339 43 q 406 92 394 82 q 506 174 450 129 q 604 258 561 219 q 619 263 611 263 q 651 253 639 263 q 656 242 656 249 q 652 224 656 235 q 643 201 649 214 q 613 127 624 161 q 601 68 601 93 q 665 8 601 8 q 774 33 706 8 l 843 61 q 838 100 838 78 q 838 112 838 106 q 839 124 838 118 q 885 256 847 193 q 978 358 924 318 q 1090 399 1033 399 q 1152 378 1133 399 q 1171 325 1171 357 q 1142 239 1171 283 q 1044 140 1108 186 q 906 60 979 94 q 943 24 918 35 q 1003 13 968 13 q 1111 31 1051 13 q 1226 78 1171 50 q 1340 146 1283 107 q 1444 223 1397 185 q 1517 286 1490 261 q 1522 289 1522 289 q 1525 285 1525 289 q 1519 269 1525 279 q 1474 219 1508 251 q 1394 151 1440 188 q 1301 84 1349 115 q 1217 36 1254 53 q 1112 1 1178 18 q 985 -17 1046 -17 q 908 -5 942 -17 q 854 36 874 7 q 735 -3 792 11 q 646 -17 679 -17 m 897 86 q 1015 157 954 115 q 1110 250 1075 199 q 1131 287 1121 265 q 1140 326 1140 308 q 1131 351 1140 342 q 1099 360 1122 360 q 1031 336 1065 360 q 969 276 997 313 q 921 199 940 240 q 897 125 901 158 q 897 86 896 103 z "},"ƒ":{"ha":464,"x_min":-529,"x_max":910,"o":"m -329 -510 q -378 -505 -353 -510 q -426 -490 -403 -500 q -492 -451 -458 -479 q -529 -385 -526 -422 q -513 -359 -522 -365 q -504 -360 -504 -353 q -503 -396 -506 -379 q -490 -424 -500 -412 q -439 -472 -468 -457 q -376 -486 -410 -486 q -287 -467 -333 -486 q -196 -420 -240 -449 q -113 -359 -151 -392 q -50 -300 -75 -326 q 75 -149 15 -231 q 187 15 135 -68 q 283 176 239 99 q 360 313 326 253 q 434 454 396 378 q 515 602 472 531 q 610 728 558 674 q 726 803 663 782 q 783 813 756 813 q 876 771 843 813 q 910 665 910 729 q 875 535 910 603 q 865 531 874 532 q 853 535 856 529 q 873 608 864 571 q 882 679 882 646 q 865 749 882 721 q 803 776 847 776 q 751 768 781 776 q 676 717 717 757 q 594 620 636 676 q 514 503 553 564 q 445 390 475 442 q 399 306 415 338 q 309 142 358 231 q 203 -38 260 53 q 85 -214 147 -129 q -45 -365 22 -299 q -184 -471 -112 -432 q -329 -510 -256 -510 z "},"¿":{"ha":694,"x_min":10,"x_max":597,"o":"m 521 365 q 508 382 508 368 q 517 411 508 394 q 540 437 525 428 q 568 446 554 446 q 589 438 581 446 q 597 417 597 429 q 596 406 597 411 q 592 396 594 401 q 562 371 585 378 q 521 365 539 364 m 156 -350 q 124 -349 140 -350 q 92 -347 108 -349 q 33 -326 57 -344 q 10 -274 10 -308 q 10 -265 10 -269 q 11 -254 10 -260 q 67 -153 21 -206 q 176 -49 113 -101 q 306 53 240 3 q 424 148 372 103 q 496 229 475 193 q 508 247 497 247 q 517 231 517 247 q 513 210 517 222 q 456 126 494 169 q 370 40 418 82 q 275 -39 322 -1 q 122 -180 181 -114 q 64 -282 64 -246 q 133 -328 64 -328 q 253 -312 196 -328 q 358 -272 311 -296 q 436 -227 406 -249 q 476 -194 467 -206 q 449 -167 463 -181 q 428 -137 436 -153 q 417 -99 417 -115 q 446 -72 417 -72 q 487 -85 465 -72 q 523 -118 508 -97 q 532 -167 538 -139 q 526 -188 531 -176 q 513 -207 522 -200 q 526 -218 519 -211 q 542 -233 532 -225 q 546 -240 546 -237 q 541 -246 546 -244 q 529 -242 536 -247 l 501 -217 q 469 -247 493 -225 q 402 -292 444 -268 q 299 -333 360 -315 q 156 -350 238 -350 m 489 -181 q 488 -153 489 -174 q 467 -110 486 -132 q 451 -100 457 -100 q 444 -112 444 -100 q 449 -132 444 -124 q 465 -156 456 -146 q 489 -181 475 -167 z "},"¡":{"ha":622,"x_min":125,"x_max":508,"o":"m 432 365 q 419 382 419 368 q 428 411 419 394 q 451 437 436 428 q 479 446 465 446 q 500 438 492 446 q 508 417 508 429 q 507 406 508 411 q 503 396 506 401 q 473 371 496 378 q 432 365 450 364 m 185 -229 q 151 -225 175 -232 q 125 -208 128 -218 q 258 -7 194 -110 q 376 203 321 96 q 394 218 383 218 q 403 210 403 218 q 388 175 403 207 q 351 94 374 143 q 301 -11 328 44 q 249 -115 274 -67 q 207 -196 225 -164 q 185 -229 189 -228 z "},"£":{"ha":675,"x_min":24,"x_max":1169,"o":"m 978 -271 q 946 -270 961 -271 q 919 -268 931 -269 q 778 -224 843 -258 q 649 -135 713 -189 q 513 -13 585 -81 q 349 126 440 54 q 312 65 335 104 q 264 -18 289 25 q 218 -94 239 -61 q 186 -133 197 -126 q 158 -130 176 -139 q 140 -114 139 -121 q 108 -55 124 -94 q 78 33 92 -15 q 53 131 64 82 q 35 220 42 181 q 26 279 28 260 q 38 351 24 332 q 67 369 53 369 q 160 315 100 369 q 313 182 219 261 q 371 294 342 236 q 424 400 400 351 q 461 474 447 449 l 263 474 q 251 483 251 474 q 276 494 251 494 l 474 494 q 594 701 535 617 q 704 835 653 786 q 865 928 800 928 q 931 900 907 928 q 947 849 947 879 q 947 838 947 843 q 946 828 947 833 q 794 658 928 718 q 781 654 786 654 q 774 660 774 654 q 782 672 776 665 q 799 686 788 679 q 832 710 814 694 q 892 778 871 742 q 914 858 914 815 q 882 896 914 896 q 863 892 874 896 q 669 721 776 865 q 617 635 649 692 q 536 494 585 578 l 781 494 q 788 486 788 494 q 756 474 788 474 l 522 474 q 441 312 479 397 q 358 147 403 226 q 513 17 444 76 q 642 -88 581 -42 q 769 -167 704 -135 q 911 -217 833 -199 q 1032 -232 981 -232 q 1120 -213 1088 -232 q 1153 -151 1153 -194 q 1151 -133 1153 -143 q 1147 -112 1150 -122 q 1145 -103 1146 -107 q 1144 -96 1144 -99 q 1149 -85 1144 -85 q 1160 -103 1154 -85 q 1169 -157 1169 -132 q 1139 -228 1169 -204 q 1064 -262 1108 -253 q 978 -271 1019 -271 m 153 -99 q 213 -5 174 -76 q 303 164 251 67 q 176 267 228 226 q 97 310 125 308 l 94 310 q 71 279 71 310 q 75 224 71 263 q 86 138 79 186 q 103 41 93 89 q 126 -45 114 -7 q 153 -99 139 -83 z "},"§":{"ha":722,"x_min":51,"x_max":1181,"o":"m 372 -269 q 236 -236 300 -269 q 125 -149 172 -203 q 56 -35 78 -94 q 53 -26 54 -31 q 51 -21 51 -22 q 54 -17 51 -17 q 75 -31 60 -17 q 215 -190 144 -144 q 336 -236 285 -236 q 393 -219 371 -236 q 418 -176 415 -203 q 419 -168 418 -172 q 419 -160 419 -164 q 408 -83 419 -125 q 381 -1 396 -42 q 356 69 365 39 q 318 172 339 119 q 283 278 297 225 q 272 378 269 331 q 319 489 275 444 q 428 560 364 533 q 419 609 422 585 q 418 657 417 633 q 460 765 421 721 q 562 834 500 808 q 693 872 624 860 q 825 883 763 883 q 949 872 886 883 q 1064 837 1011 860 q 1149 781 1117 814 q 1181 704 1181 747 q 1156 649 1181 674 q 1094 606 1132 624 q 1015 580 1056 589 q 942 571 974 571 q 924 578 924 571 q 935 582 924 582 q 1005 590 967 582 q 1077 615 1043 599 q 1133 652 1111 631 q 1156 700 1156 674 q 1124 764 1156 739 q 1041 803 1092 789 q 935 824 990 818 q 832 829 879 829 q 651 810 722 829 q 542 763 581 792 q 485 704 503 735 q 464 648 468 674 q 460 610 460 622 q 478 483 460 546 q 518 361 496 421 q 570 232 546 289 q 600 164 594 175 q 612 124 608 142 q 615 92 615 107 q 599 39 615 57 q 559 15 582 21 q 518 10 536 10 q 388 40 451 10 q 430 -61 411 -18 q 454 -115 449 -104 q 466 -155 463 -137 q 469 -187 469 -172 q 453 -240 469 -222 q 413 -264 436 -258 q 372 -269 390 -269 m 481 43 q 539 60 517 43 q 564 103 561 76 q 565 111 564 107 q 565 119 565 115 q 553 196 565 154 q 526 278 542 238 q 501 349 511 319 q 471 428 488 388 q 442 510 454 468 q 353 445 379 482 q 320 376 326 408 q 314 331 314 344 q 332 204 314 267 q 372 82 350 142 q 374 79 372 79 q 481 43 432 43 z "},"≤":{"ha":556,"x_min":188,"x_max":610,"o":"m 486 213 q 476 224 482 213 q 429 303 460 260 q 364 390 399 347 q 300 464 329 432 q 300 472 297 467 q 332 507 303 479 q 417 586 361 535 q 507 664 465 631 q 568 714 549 697 q 597 728 586 728 q 610 717 610 728 q 604 704 610 710 q 554 658 588 689 q 483 592 521 628 q 417 526 446 557 q 376 478 388 494 q 426 375 400 421 q 471 301 451 329 q 492 268 490 274 q 496 242 496 256 q 493 222 496 231 q 486 213 490 213 m 276 0 q 217 6 240 0 q 194 19 201 8 q 188 39 188 29 q 194 57 188 50 q 213 61 201 64 q 308 50 254 54 q 417 46 363 46 q 476 47 447 46 q 531 51 506 49 q 535 44 535 51 q 532 33 535 39 q 526 25 529 26 q 406 12 475 24 q 276 0 338 0 z "},"≥":{"ha":556,"x_min":229,"x_max":690,"o":"m 390 231 q 378 242 378 231 q 383 254 378 249 q 433 300 400 269 q 504 366 467 331 q 572 433 542 401 q 611 481 601 464 q 563 583 589 538 q 517 658 536 629 q 496 690 499 686 q 492 717 492 703 q 494 737 492 728 q 501 746 497 746 q 511 735 506 746 q 558 655 528 699 q 624 569 589 611 q 688 494 660 526 q 688 486 690 492 q 657 452 686 479 q 571 372 628 425 q 481 294 522 328 q 419 244 439 261 q 390 231 401 231 m 318 0 q 258 6 282 0 q 236 19 243 8 q 229 39 229 29 q 236 57 229 50 q 254 61 243 64 q 350 50 296 54 q 458 46 404 46 q 518 47 489 46 q 572 51 547 49 q 576 44 576 51 q 574 33 576 39 q 568 25 571 26 q 448 12 517 24 q 318 0 379 0 z "},"¥":{"ha":572,"x_min":332,"x_max":875,"o":"m 346 -21 q 333 -12 332 -21 q 350 45 336 8 q 383 124 364 82 q 417 197 401 165 q 367 194 390 196 q 347 193 344 193 q 336 201 343 193 q 332 217 332 210 l 333 219 q 369 222 339 221 q 429 225 399 224 q 442 256 433 236 q 461 303 451 275 q 421 299 453 303 q 382 294 399 294 q 372 306 379 294 q 365 318 365 315 l 365 321 q 402 325 376 324 q 469 326 428 326 q 478 373 475 342 q 481 443 481 404 q 478 522 481 482 q 472 593 475 563 q 503 606 469 606 q 533 532 533 606 q 532 498 533 517 q 528 457 531 479 q 517 384 524 417 q 500 326 511 351 l 504 326 q 583 406 542 363 q 681 494 625 450 q 804 588 757 560 q 865 617 851 617 q 875 615 872 617 l 871 606 q 689 473 771 542 q 538 325 607 404 q 597 321 565 324 q 633 315 628 318 q 636 313 636 313 q 631 308 636 308 q 580 308 614 308 q 518 306 546 307 q 494 263 503 285 q 474 219 485 240 l 526 219 q 570 219 554 219 q 593 214 586 218 q 596 211 596 214 q 589 204 596 204 q 532 201 563 204 q 461 194 501 197 q 422 97 443 153 q 386 -3 401 42 q 346 -21 381 -21 z "},"µ":{"ha":771,"x_min":-3,"x_max":1082,"o":"m 85 -386 q 67 -380 82 -386 q 35 -364 51 -374 q 11 -346 19 -354 q 0 -317 3 -335 q -3 -296 -3 -300 q 25 -167 -3 -239 q 96 -22 53 -96 q 187 119 139 53 q 278 235 235 186 q 346 306 321 285 q 337 307 342 307 q 328 307 332 307 l 315 307 q 300 315 300 307 q 320 343 300 326 q 369 374 340 360 q 421 388 397 388 q 444 382 435 388 l 440 343 q 378 290 424 336 q 279 174 333 243 q 235 69 239 110 q 233 60 233 64 q 233 51 233 56 q 264 11 233 11 q 316 28 286 11 q 373 67 346 46 q 411 97 400 88 q 504 177 456 135 q 597 258 553 219 q 613 263 604 263 q 635 254 626 263 q 639 243 639 250 q 622 192 639 225 q 586 122 604 158 q 568 54 568 85 q 584 16 568 26 q 622 6 600 6 q 682 15 650 6 q 732 32 714 25 q 879 108 806 60 q 1013 207 953 157 q 1041 230 1028 219 q 1068 254 1054 240 q 1081 264 1078 264 q 1082 261 1082 264 q 1078 251 1082 258 q 1072 239 1075 244 q 1026 186 1060 218 q 945 119 992 154 q 845 54 899 85 q 740 4 792 24 q 643 -15 688 -15 q 556 13 579 -15 q 532 82 532 42 q 542 143 532 111 q 563 203 551 175 q 510 147 543 182 q 436 77 476 113 q 353 17 396 42 q 275 -7 311 -7 q 240 1 257 -7 q 211 28 224 10 q 203 44 206 35 q 199 63 200 53 q 122 -66 157 0 q 66 -194 86 -132 q 49 -310 46 -257 q 51 -331 49 -317 q 61 -358 54 -346 q 82 -371 68 -371 q 99 -378 99 -371 q 85 -386 99 -386 z "},"∂":{"ha":789,"x_min":217,"x_max":871,"o":"m 299 11 q 265 20 281 11 q 238 43 249 29 q 222 69 226 54 q 217 100 217 85 q 242 183 217 139 q 305 268 267 226 q 387 342 343 310 q 468 392 431 375 q 532 404 500 404 q 611 381 576 404 q 631 363 622 372 q 642 339 640 353 q 728 487 689 408 q 792 645 768 565 q 817 796 817 725 q 790 894 817 861 q 719 926 763 926 q 665 915 693 926 q 618 878 638 903 q 603 865 608 865 q 600 881 596 865 q 646 933 608 908 q 728 957 683 957 q 799 934 767 957 q 851 872 832 911 q 871 785 871 833 q 839 614 871 701 q 755 442 807 526 q 641 285 703 358 q 518 157 579 211 q 444 91 485 125 q 366 34 404 57 q 299 11 328 11 m 281 33 q 309 40 293 33 q 339 56 325 46 q 424 113 382 82 q 506 178 465 143 q 564 237 533 201 q 625 315 594 272 l 621 322 q 600 356 614 339 q 554 374 586 374 q 462 344 511 374 q 367 271 413 315 q 292 178 322 226 q 256 93 261 131 q 254 82 254 88 q 254 71 254 76 q 281 33 254 33 z "},"‡":{"ha":694,"x_min":181,"x_max":733,"o":"m 226 15 q 224 24 222 15 q 228 33 224 24 q 246 77 232 43 q 290 185 260 111 q 372 388 319 258 l 278 383 q 217 379 214 379 q 194 390 210 379 q 181 411 181 403 q 186 414 183 414 q 270 420 219 418 q 386 424 321 422 l 443 560 q 386 558 414 558 q 331 554 358 557 q 269 550 267 550 q 247 561 263 550 q 233 582 233 574 q 239 585 236 585 q 329 591 275 589 q 456 594 383 593 q 499 711 476 649 q 544 844 521 774 q 563 860 547 851 q 592 868 578 868 q 608 853 608 868 q 569 747 594 814 q 508 594 544 681 q 728 578 661 593 q 733 574 733 576 q 715 567 731 567 q 615 565 669 567 q 494 561 560 564 q 462 490 476 525 q 432 424 447 456 q 622 407 561 419 q 628 403 628 406 q 610 396 625 396 q 521 394 568 396 q 417 390 474 393 q 334 202 372 289 q 251 35 296 115 q 240 24 250 33 q 226 15 229 15 z "},"‹":{"ha":554,"x_min":267,"x_max":579,"o":"m 456 74 q 446 85 451 74 q 399 165 429 121 q 333 251 368 208 q 269 325 299 293 q 269 333 267 328 q 301 368 272 340 q 386 447 331 396 q 476 525 435 492 q 538 575 518 558 q 567 589 556 589 q 579 578 579 589 q 574 565 579 571 q 524 519 557 550 q 453 453 490 489 q 386 387 415 418 q 346 339 357 356 q 395 236 369 282 q 440 163 421 190 q 461 129 460 135 q 465 103 465 117 q 463 83 465 92 q 456 74 460 74 z "},"›":{"ha":799,"x_min":382,"x_max":694,"o":"m 394 65 q 382 76 382 65 q 388 89 382 83 q 438 135 404 104 q 508 201 471 165 q 576 267 546 236 q 615 315 606 299 q 567 418 593 372 q 522 492 540 464 q 500 525 503 521 q 496 551 496 538 q 499 572 496 563 q 506 581 501 581 q 515 569 510 581 q 563 490 532 533 q 628 403 593 446 q 692 329 664 361 q 692 321 694 326 q 661 287 690 314 q 575 207 632 260 q 485 129 526 163 q 424 79 443 96 q 394 65 406 65 z "},"Ð":{"ha":2796,"x_min":19,"x_max":2776,"o":"m 1851 -132 q 1658 -115 1749 -132 q 1503 -62 1568 -97 q 1481 -43 1481 -50 q 1485 -40 1481 -40 q 1495 -42 1489 -40 q 1511 -46 1501 -43 q 1683 -78 1601 -69 q 1844 -86 1764 -87 q 1957 -76 1889 -85 q 2107 -52 2025 -68 q 2275 -12 2189 -36 q 2442 43 2361 11 q 2588 115 2524 75 q 2696 208 2653 156 q 2739 317 2739 260 q 2701 417 2739 365 q 2578 521 2664 469 q 2368 608 2490 575 q 2101 656 2246 640 q 1796 671 1956 671 q 1457 656 1631 671 q 1114 615 1283 642 q 789 553 944 589 q 501 474 633 517 q 271 383 369 431 q 117 288 172 336 q 61 190 61 239 q 85 138 61 161 q 146 100 108 115 q 225 77 183 85 q 301 69 267 69 q 328 68 307 69 q 371 68 350 67 l 374 68 q 393 65 385 68 q 401 56 401 61 q 389 44 401 49 q 351 37 374 39 q 306 35 328 35 q 212 49 261 35 q 119 88 163 63 q 47 145 75 113 q 19 214 19 178 q 91 344 19 282 q 290 463 163 407 q 583 563 417 518 q 942 641 750 608 q 1334 691 1133 674 q 1729 708 1535 708 q 2077 691 1911 708 q 2378 637 2243 674 q 2604 542 2514 600 q 2729 425 2682 492 q 2776 271 2776 358 q 2738 151 2776 204 q 2632 56 2699 97 q 2481 -17 2565 14 q 2307 -71 2397 -49 q 2130 -106 2217 -93 q 1971 -126 2043 -119 q 1851 -132 1899 -132 m 1240 -143 q 1206 -116 1222 -136 q 1190 -81 1190 -96 q 1201 -41 1190 -65 q 1229 9 1213 -17 q 1261 57 1246 35 q 1285 90 1276 79 l 1342 164 q 1289 163 1315 163 q 1239 163 1263 163 q 1225 172 1225 163 q 1235 187 1225 179 q 1268 200 1246 194 q 1315 205 1283 203 q 1374 207 1347 207 q 1440 289 1406 247 q 1504 367 1474 331 q 1510 376 1511 375 q 1503 383 1510 378 q 1500 390 1500 385 q 1507 407 1500 400 q 1572 461 1539 440 q 1608 482 1606 482 q 1635 463 1619 482 q 1651 433 1651 444 q 1638 415 1651 432 q 1601 372 1624 397 q 1553 318 1578 346 q 1508 267 1529 290 q 1482 238 1494 253 q 1457 208 1469 224 q 1504 206 1479 208 q 1557 197 1529 204 q 1589 185 1589 189 q 1580 180 1589 182 q 1557 176 1571 178 l 1422 168 q 1335 56 1376 113 q 1261 -51 1293 0 q 1247 -81 1247 -74 q 1251 -85 1247 -85 q 1282 -71 1258 -85 q 1326 -49 1294 -64 q 1393 -13 1357 -33 q 1454 24 1429 7 q 1465 25 1463 28 q 1460 15 1467 22 q 1431 -7 1450 6 q 1392 -33 1413 -19 q 1358 -58 1381 -40 q 1310 -96 1335 -75 q 1268 -135 1285 -117 q 1251 -144 1260 -144 q 1240 -143 1243 -144 z "},"ð":{"ha":789,"x_min":217,"x_max":994,"o":"m 299 11 q 265 20 281 11 q 238 43 249 29 q 222 69 226 54 q 217 100 217 85 q 242 183 217 139 q 305 268 267 226 q 387 342 343 310 q 468 392 431 375 q 532 404 500 404 q 611 381 576 404 q 631 363 622 372 q 642 339 640 353 q 728 486 688 407 q 792 643 768 565 q 722 621 757 632 q 653 600 686 610 q 650 599 651 600 q 646 599 649 599 q 635 610 635 599 q 669 646 635 626 q 718 665 685 654 q 779 685 751 676 l 804 692 q 813 745 810 719 q 817 796 817 771 q 790 894 817 861 q 719 926 763 926 q 665 915 693 926 q 618 878 638 903 q 603 865 608 865 q 600 881 596 865 q 646 933 608 908 q 728 957 683 957 q 799 934 767 957 q 851 872 832 911 q 871 785 871 833 q 869 747 871 767 q 864 708 867 728 q 908 718 883 714 q 958 724 932 722 l 971 724 q 994 718 994 724 q 965 703 994 710 q 911 683 939 693 q 853 664 883 674 q 774 475 828 569 q 652 299 719 381 q 518 157 585 217 q 444 91 485 125 q 366 34 404 57 q 299 11 328 11 m 281 33 q 309 40 293 33 q 339 56 325 46 q 424 113 382 82 q 506 178 465 143 q 564 237 533 201 q 625 315 594 272 l 621 322 q 600 356 614 339 q 554 374 586 374 q 462 344 511 374 q 367 271 413 315 q 292 178 322 226 q 256 93 261 131 q 254 82 254 88 q 254 71 254 76 q 281 33 254 33 z "},"Ł":{"ha":713,"x_min":24,"x_max":1421,"o":"m 1215 -358 q 1160 -356 1188 -358 q 1104 -349 1132 -353 q 913 -285 1008 -332 q 720 -171 817 -237 q 530 -28 624 -104 q 344 119 436 47 q 317 63 335 103 q 274 -22 299 22 q 224 -99 250 -67 q 172 -131 197 -131 q 140 -114 156 -131 q 108 -55 124 -94 q 78 33 92 -15 q 53 131 64 82 q 35 220 42 181 q 26 279 28 260 q 38 351 24 332 q 67 369 53 369 q 160 315 100 369 q 313 182 219 261 l 376 303 q 306 301 339 301 q 251 300 274 300 q 242 308 242 300 q 271 331 242 322 q 299 333 278 332 q 347 335 321 335 q 393 336 374 336 l 425 399 q 406 410 422 401 q 368 435 389 418 q 331 478 347 451 q 315 542 315 504 q 316 554 315 547 q 318 567 317 561 q 331 588 322 588 q 338 575 338 588 q 337 563 338 568 q 336 551 336 557 q 350 492 336 515 q 383 454 364 468 q 417 434 401 440 q 436 425 432 428 q 554 647 496 546 q 676 823 613 749 q 817 938 740 897 q 993 979 894 979 q 1096 944 1065 979 q 1126 857 1126 908 q 1109 769 1126 815 q 1063 685 1092 724 q 912 539 1004 607 q 709 431 819 471 q 483 393 599 390 l 456 338 q 503 336 478 338 q 560 328 529 335 q 588 318 588 322 q 579 314 588 315 q 560 311 571 313 q 505 308 536 310 q 439 306 474 307 q 393 213 417 260 q 358 147 369 165 q 593 -35 474 53 q 838 -187 713 -122 q 1094 -283 964 -253 q 1166 -297 1131 -292 q 1233 -301 1201 -301 q 1350 -276 1303 -301 q 1397 -194 1397 -251 q 1390 -151 1397 -176 q 1386 -129 1386 -139 q 1392 -115 1386 -115 q 1406 -139 1397 -115 q 1421 -219 1421 -187 q 1392 -303 1421 -272 q 1316 -346 1363 -333 q 1215 -358 1269 -358 m 493 414 q 691 456 604 425 q 840 526 778 488 q 936 601 901 565 q 1042 741 1004 671 q 1079 861 1079 811 q 1060 917 1079 896 q 999 938 1040 938 q 863 897 929 938 q 738 791 797 856 q 629 654 678 726 q 545 517 581 582 q 493 414 510 453 m 154 -58 q 210 -1 174 -61 q 299 157 247 60 q 174 264 224 219 q 97 310 125 308 l 94 310 q 71 279 71 310 q 77 211 71 258 q 94 109 83 164 q 121 8 106 54 q 154 -58 136 -39 z "},"ł":{"ha":622,"x_min":163,"x_max":917,"o":"m 442 -25 q 343 -4 386 -25 q 282 65 300 17 q 230 49 256 57 q 181 35 204 42 q 178 34 179 35 q 174 33 176 33 q 163 44 163 33 q 197 81 163 61 q 229 94 208 86 q 272 108 250 101 q 271 119 271 114 q 271 129 271 124 q 274 167 271 143 q 279 207 276 190 q 271 206 276 206 q 260 214 260 206 q 265 224 260 218 q 297 254 292 240 q 357 378 319 314 q 442 504 394 443 q 542 614 489 565 q 647 691 594 663 q 744 719 699 719 q 785 707 774 719 q 797 675 797 694 q 791 643 797 660 q 776 613 785 626 q 662 466 735 538 q 503 333 589 394 q 331 226 417 272 q 318 177 321 204 q 317 122 315 150 q 390 143 349 131 q 486 158 431 156 l 499 158 q 522 153 522 158 q 493 138 522 144 l 326 81 q 365 20 338 44 q 438 -4 392 -4 q 530 13 479 -4 q 632 56 581 31 q 747 122 692 86 q 845 189 803 157 q 907 239 888 221 q 915 244 913 244 q 917 242 917 244 q 906 218 917 229 q 778 108 847 160 q 633 19 710 56 q 537 -13 586 -1 q 442 -25 488 -25 m 340 257 q 458 335 394 290 q 581 432 521 379 q 692 546 642 485 q 772 675 743 607 q 756 693 772 693 q 710 676 739 693 q 647 634 681 660 q 581 580 613 608 q 528 528 549 551 q 431 417 481 476 q 340 257 381 357 z "},"Š":{"ha":760,"x_min":-96,"x_max":1250,"o":"m 443 -182 q 259 -134 343 -182 q 119 -10 175 -86 q 43 151 63 67 q -52 178 -11 158 q -96 219 -93 197 q -88 240 -96 232 q -58 249 -81 249 q -15 243 -39 249 q 28 222 14 238 q 47 192 43 206 q 216 176 110 185 q 446 165 322 168 q 443 174 444 169 q 440 182 442 178 q 428 219 433 201 q 417 250 422 236 q 358 437 386 340 q 335 619 331 533 q 385 749 339 696 q 504 834 432 801 q 658 881 576 867 q 814 896 740 896 q 974 883 896 896 q 1114 843 1051 869 q 1213 777 1176 817 q 1250 685 1250 738 q 1219 615 1250 647 q 1139 557 1188 582 q 1040 518 1090 532 q 949 504 989 504 q 936 509 940 504 q 932 519 932 514 q 949 535 932 535 q 1033 545 988 535 q 1122 575 1079 556 q 1191 621 1164 594 q 1218 681 1218 647 q 1178 758 1218 728 q 1077 806 1139 789 q 947 831 1015 824 q 822 838 879 838 q 601 814 686 838 q 467 754 515 790 q 399 678 419 718 q 374 604 378 638 q 369 553 369 571 q 392 397 369 475 q 440 249 414 319 q 454 216 446 235 q 468 181 463 197 l 474 165 l 518 165 q 724 172 622 165 q 915 198 826 179 q 1068 249 1004 217 q 1075 250 1071 250 q 1078 247 1078 250 q 1064 229 1078 240 q 929 177 1019 199 q 724 144 839 156 q 489 131 610 133 q 535 24 511 83 q 558 -86 558 -36 q 533 -155 558 -128 q 443 -182 508 -182 m 404 -128 q 469 -107 446 -128 q 493 -46 493 -86 q 483 38 493 -8 q 458 129 474 83 q 243 133 347 128 q 61 151 139 139 q 157 -2 101 57 q 273 -90 213 -61 q 385 -126 333 -119 q 395 -128 390 -128 q 404 -128 400 -128 m 807 972 q 742 1040 793 974 q 706 1092 717 1072 q 694 1119 694 1113 q 708 1132 701 1132 q 807 1022 726 1132 q 847 1053 821 1036 q 910 1090 872 1069 q 976 1125 950 1114 q 1014 1138 1003 1136 q 1018 1131 1018 1136 q 1006 1115 1018 1124 q 894 1039 942 1074 q 814 976 846 1004 l 807 972 z "},"š":{"ha":643,"x_min":39,"x_max":964,"o":"m 360 -76 q 275 -40 314 -76 q 210 58 236 -3 q 195 95 200 78 q 185 126 190 113 q 108 72 144 96 q 46 38 71 49 q 39 47 39 38 q 43 60 39 53 q 57 72 47 67 q 110 106 82 88 q 165 143 138 124 q 144 158 154 150 q 129 175 135 165 q 126 189 126 179 q 140 228 126 208 q 165 249 153 249 q 182 228 178 249 l 190 190 l 193 188 q 198 179 196 183 q 203 171 200 175 q 330 274 268 219 q 438 375 392 328 q 438 376 438 375 q 439 378 439 376 q 487 458 451 419 q 569 496 522 496 q 603 490 588 496 q 615 472 615 485 q 603 449 615 460 q 571 443 592 439 q 561 444 565 444 q 553 444 557 444 q 519 437 533 444 q 492 415 506 429 q 460 340 467 389 q 453 232 453 290 q 453 179 453 206 q 454 126 454 153 q 453 72 454 99 q 447 21 451 44 q 462 20 454 21 q 478 19 469 19 q 567 28 522 19 q 651 53 613 36 q 755 109 704 76 q 860 181 806 142 q 906 219 876 193 q 951 257 935 244 q 957 258 954 258 q 964 251 964 258 q 958 240 964 246 q 822 122 900 183 q 651 21 744 61 q 546 -6 600 3 q 439 -12 492 -15 q 410 -59 429 -42 q 360 -76 392 -76 m 376 33 q 398 121 390 69 q 413 230 406 172 q 429 338 419 288 q 329 246 386 296 q 215 150 272 196 q 285 79 246 110 q 376 33 325 49 m 322 -18 q 361 3 343 -18 q 282 44 318 18 q 217 114 246 71 q 263 24 236 65 q 322 -18 290 -18 m 563 572 q 497 640 549 574 q 461 692 472 672 q 450 719 450 713 q 464 732 457 732 q 563 622 482 732 q 602 653 576 636 q 665 690 628 669 q 732 725 706 714 q 769 738 758 736 q 774 731 774 736 q 761 715 774 724 q 649 639 697 674 q 569 576 601 604 l 563 572 z "},"Ý":{"ha":1151,"x_min":14,"x_max":1338,"o":"m 238 -772 q 156 -760 196 -772 q 89 -719 115 -747 q 63 -644 63 -692 q 63 -631 63 -637 q 65 -615 64 -624 q 133 -470 79 -539 q 269 -341 188 -401 q 445 -230 350 -281 q 637 -140 540 -179 q 819 -72 733 -100 q 965 -28 904 -43 q 1008 -19 988 -22 q 1051 -14 1029 -15 q 1054 -8 1051 -11 q 1103 101 1079 35 q 1149 243 1128 168 q 1182 388 1169 318 q 1194 508 1194 458 q 1193 537 1194 524 q 1189 560 1192 550 q 1022 351 1103 444 q 858 167 940 257 q 730 33 794 94 q 604 -67 665 -29 q 514 -94 561 -94 q 440 -65 471 -94 q 410 31 410 -35 q 422 128 410 68 q 452 253 433 189 q 492 368 471 318 l 533 481 l 558 528 q 408 419 488 468 q 253 340 328 369 q 121 311 178 311 q 38 332 63 311 q 14 383 14 353 q 38 460 14 418 q 101 540 63 501 q 182 603 140 579 q 206 611 193 610 q 213 608 219 613 q 154 553 185 586 q 101 483 124 521 q 74 407 79 446 q 85 359 72 376 q 135 343 97 342 q 294 390 210 347 q 462 499 379 433 q 614 633 544 564 l 621 640 q 669 720 644 682 q 714 782 693 758 q 747 806 735 806 q 774 799 757 806 q 805 784 792 793 q 813 767 818 775 q 752 679 790 736 q 670 549 714 622 q 585 392 626 475 q 517 226 544 310 q 498 169 510 207 q 477 88 486 131 q 468 8 468 44 q 478 -42 468 -22 q 511 -61 488 -61 q 546 -53 526 -61 q 592 -26 565 -44 q 697 61 632 0 q 832 194 761 122 q 1008 380 921 283 q 1171 583 1094 476 l 1157 590 q 1143 610 1143 596 q 1155 628 1143 619 q 1197 636 1167 636 q 1263 595 1240 636 q 1282 485 1285 554 q 1266 393 1281 451 q 1228 264 1251 335 q 1177 121 1206 193 q 1119 -11 1149 49 q 1156 -12 1138 -11 q 1192 -14 1174 -12 q 1283 -33 1240 -19 q 1336 -72 1326 -46 q 1338 -74 1338 -74 q 1338 -75 1338 -75 q 1331 -83 1338 -81 q 1322 -81 1324 -86 q 1273 -51 1313 -61 q 1186 -39 1233 -40 q 1166 -38 1176 -39 q 1144 -37 1156 -37 q 1125 -38 1135 -37 q 1104 -39 1115 -39 q 922 -326 1022 -193 q 710 -559 822 -458 q 478 -716 597 -660 q 238 -772 358 -772 m 235 -747 q 417 -701 326 -743 q 594 -587 508 -658 q 760 -428 681 -517 q 908 -241 839 -339 q 1032 -46 976 -143 q 995 -53 1014 -49 q 957 -61 976 -57 q 735 -131 853 -83 q 502 -243 618 -178 q 283 -385 386 -308 q 137 -528 182 -461 q 92 -643 92 -594 q 131 -721 92 -693 q 235 -747 171 -749 m 969 767 q 964 769 964 767 q 988 787 964 774 q 1057 831 1023 807 q 1113 872 1091 854 q 1140 862 1126 874 q 1150 845 1153 851 q 1107 822 1133 835 q 1053 797 1081 809 q 1004 775 1026 785 q 986 770 997 773 q 969 767 975 767 z "},"ý":{"ha":593,"x_min":-339,"x_max":794,"o":"m -171 -686 q -249 -675 -210 -686 q -313 -638 -287 -664 q -339 -569 -339 -612 q -339 -558 -339 -564 q -337 -547 -339 -553 q -279 -424 -326 -482 q -160 -316 -232 -367 q -5 -223 -89 -265 q 165 -148 79 -181 q 328 -92 251 -115 q 458 -58 404 -69 q 497 -51 478 -54 q 535 -47 517 -49 q 582 67 564 7 q 600 171 600 128 q 582 228 600 214 l 578 224 q 513 152 556 201 q 421 63 469 103 q 346 13 383 32 q 276 -7 308 -7 q 240 1 257 -7 q 210 28 222 10 q 196 74 196 47 q 228 169 196 118 q 308 268 261 221 q 324 284 313 274 q 344 300 336 294 q 350 321 339 304 q 380 351 361 338 q 413 357 399 365 q 434 342 425 350 q 443 326 443 335 q 431 306 443 318 l 401 278 q 328 205 365 243 q 264 131 290 167 q 233 69 238 96 q 232 60 232 64 q 232 51 232 56 q 263 11 232 11 q 315 28 285 11 q 372 67 344 46 q 410 97 399 88 q 488 168 450 131 q 564 240 526 206 q 572 262 563 249 q 615 275 582 275 q 667 196 667 275 q 652 101 667 157 q 607 -22 638 44 q 601 -33 604 -28 q 596 -46 599 -39 q 661 -50 628 -46 q 744 -67 706 -56 q 793 -103 783 -79 q 794 -105 793 -104 q 794 -106 794 -106 q 789 -113 794 -111 q 781 -110 783 -115 q 736 -83 772 -92 q 658 -71 700 -74 q 621 -68 639 -68 q 583 -69 603 -68 q 477 -240 540 -153 q 338 -406 414 -326 q 176 -549 261 -486 q 3 -649 92 -612 q -171 -686 -85 -686 m -186 -664 q -17 -626 -101 -664 q 147 -524 67 -587 q 297 -382 226 -460 q 424 -224 367 -304 q 519 -75 481 -144 q 486 -79 503 -76 q 451 -86 469 -82 q 253 -143 358 -104 q 47 -236 149 -182 q -146 -354 -56 -290 q -274 -472 -235 -417 q -312 -569 -312 -528 q -277 -638 -312 -612 q -186 -664 -242 -664 m 494 420 q 489 422 489 420 q 513 440 489 427 q 582 483 548 460 q 638 525 616 507 q 665 515 651 527 q 675 498 678 503 q 632 475 658 488 q 578 450 606 462 q 529 428 551 437 q 511 423 522 426 q 494 420 500 420 z "},"Þ":{"ha":786,"x_min":122,"x_max":919,"o":"m 210 -192 q 192 -185 207 -192 q 160 -169 176 -179 q 136 -151 144 -160 q 126 -125 129 -142 q 122 -103 122 -108 q 149 27 122 -44 q 220 173 176 99 q 311 313 264 247 q 421 470 374 400 q 506 603 468 540 q 577 728 543 665 q 649 866 611 792 q 733 1033 686 940 q 750 1023 738 1042 q 763 974 763 1004 q 757 942 763 957 q 722 867 746 913 q 671 774 699 822 q 618 681 643 725 q 579 608 593 636 q 569 576 565 579 q 615 583 583 579 q 688 588 647 588 q 781 578 732 588 q 871 538 831 568 q 901 501 886 526 q 918 453 917 476 q 889 356 919 399 q 808 283 858 314 q 701 231 758 251 q 589 201 643 211 q 496 192 535 192 q 422 206 454 192 q 390 247 390 221 q 397 271 390 258 q 419 297 404 283 q 495 339 443 317 q 619 382 547 361 q 700 404 672 397 q 736 411 728 411 q 727 401 746 411 q 674 375 708 390 q 603 343 640 360 q 535 314 565 326 q 496 296 506 301 q 454 270 467 282 q 442 251 442 258 q 489 235 442 235 q 581 246 526 235 q 686 279 636 257 q 787 336 742 303 q 859 405 832 369 q 886 471 886 440 q 861 523 886 504 q 798 549 836 542 q 717 557 760 557 q 630 551 671 557 q 565 538 589 544 q 517 497 551 532 q 438 408 483 463 q 344 287 392 354 q 257 148 297 219 q 194 8 217 76 q 174 -115 171 -60 q 176 -137 174 -122 q 186 -164 179 -151 q 207 -176 193 -176 q 224 -183 224 -176 q 210 -192 224 -192 z "},"þ":{"ha":417,"x_min":-50,"x_max":1056,"o":"m -44 -404 q -50 -399 -50 -404 q -43 -383 -50 -392 q 0 -310 -28 -360 q 63 -191 28 -260 q 136 -44 99 -122 q 207 110 174 33 q 219 137 213 124 q 232 164 225 150 q 354 361 281 261 q 517 551 428 461 q 697 706 606 640 q 713 715 704 711 q 732 719 722 719 q 767 693 751 719 q 781 649 782 667 q 777 635 781 644 q 768 626 774 626 q 764 632 767 626 q 760 639 761 638 q 739 650 751 650 q 732 649 735 650 q 594 560 660 617 q 469 435 528 504 q 365 297 411 367 q 287 168 319 228 q 239 71 254 108 q 322 160 272 115 q 431 242 371 204 q 553 302 490 279 q 675 325 617 325 q 753 303 728 325 q 782 258 778 281 q 888 273 836 268 q 981 281 940 278 q 1038 283 1021 283 q 1048 281 1040 283 q 1056 275 1056 278 q 1038 271 1056 271 q 905 261 969 269 q 783 240 840 253 q 745 145 783 189 q 649 68 707 101 q 531 16 592 35 q 422 -3 469 -3 q 369 10 389 -3 q 350 46 350 24 q 378 103 350 71 q 500 179 407 135 q 738 251 593 224 q 716 294 736 283 q 676 304 696 304 q 615 296 649 304 q 554 276 582 288 q 448 219 506 257 q 340 135 390 182 q 261 44 289 89 l 229 -7 q 215 -17 225 -17 q 200 -10 207 -17 q 117 -168 160 -92 q 40 -302 75 -244 q -17 -386 4 -360 q -44 -404 -32 -404 m 431 26 q 503 39 461 26 q 583 75 544 51 q 684 159 644 115 q 733 229 724 203 q 540 167 621 203 q 422 104 458 132 q 382 51 382 72 q 395 33 382 39 q 431 26 408 26 z "},"Ž":{"ha":886,"x_min":36,"x_max":1469,"o":"m 1289 -467 q 1267 -466 1278 -467 q 1246 -464 1257 -465 q 1213 -460 1236 -462 q 1166 -453 1190 -457 q 1126 -444 1142 -449 q 1115 -436 1115 -440 q 1124 -432 1115 -433 q 1142 -432 1132 -431 q 1240 -440 1192 -440 q 1352 -424 1304 -440 q 1407 -369 1400 -407 q 1408 -359 1408 -364 q 1408 -349 1408 -354 q 1356 -233 1408 -292 q 1213 -119 1303 -174 q 1013 -19 1124 -64 q 786 55 903 25 q 563 92 669 85 q 537 94 550 93 q 510 94 524 94 q 397 -1 456 43 q 281 -73 338 -46 q 172 -100 224 -100 q 138 -92 151 -100 q 128 -75 124 -83 q 144 -77 131 -72 q 183 -79 157 -82 q 258 -49 211 -75 q 356 16 304 -22 q 453 93 408 54 q 292 67 372 89 q 151 6 211 46 q 72 -97 90 -35 q 53 -122 64 -122 q 36 -83 36 -122 q 43 -42 36 -67 q 115 28 56 -6 q 269 86 175 63 q 474 113 363 110 q 594 230 531 164 q 724 365 657 296 q 857 498 790 433 q 988 613 924 563 q 1110 692 1051 664 q 1042 713 1078 703 q 969 728 1007 722 q 904 735 939 732 q 831 738 869 738 q 678 728 757 738 q 528 697 599 718 q 406 643 457 676 q 335 563 354 610 q 325 538 329 550 q 321 514 321 525 q 342 483 321 493 q 351 475 351 478 q 347 470 351 472 q 338 469 342 468 q 306 494 315 476 q 296 535 296 513 q 300 564 296 550 q 397 689 328 643 q 558 754 465 735 q 746 774 650 774 q 905 763 828 774 q 1042 733 982 751 l 1140 704 q 1167 703 1151 707 q 1192 701 1182 700 q 1204 703 1196 703 q 1229 689 1229 703 q 1206 667 1229 676 q 1231 653 1219 661 q 1253 635 1243 644 q 1257 625 1257 631 q 1253 617 1257 619 q 1240 619 1249 614 q 1176 654 1215 638 q 1037 565 1115 624 q 871 431 958 507 q 695 273 783 356 q 528 113 607 190 l 594 110 q 832 78 710 106 q 1068 4 954 50 q 1272 -99 1182 -42 q 1416 -222 1363 -157 q 1469 -356 1469 -287 q 1469 -368 1469 -361 q 1467 -382 1468 -375 q 1403 -446 1457 -425 q 1289 -467 1350 -467 m 861 853 q 796 921 847 854 q 760 973 771 953 q 749 1000 749 993 q 763 1013 756 1013 q 861 903 781 1013 q 901 933 875 917 q 964 971 926 950 q 1031 1006 1004 994 q 1068 1018 1057 1017 q 1072 1011 1072 1017 q 1060 996 1072 1004 q 948 919 996 954 q 868 857 900 885 l 861 853 z "},"ž":{"ha":692,"x_min":174,"x_max":864,"o":"m 815 -107 q 813 -104 813 -107 q 817 -93 813 -101 q 838 -32 838 -57 q 787 28 838 13 q 661 44 736 44 q 533 37 601 44 q 398 17 464 29 q 280 -6 332 6 q 200 -25 228 -18 l 197 -25 q 181 -18 188 -25 q 174 -3 174 -11 q 197 24 174 15 q 203 24 200 24 q 207 25 206 25 l 211 29 q 291 65 251 49 q 369 100 331 82 q 415 124 382 106 q 491 167 449 142 q 573 218 533 192 q 638 269 613 244 q 664 310 664 293 q 647 326 664 321 q 604 331 631 331 q 516 324 565 331 q 426 308 467 317 q 374 293 386 299 q 352 285 364 289 q 328 269 340 281 q 319 260 324 267 q 315 244 315 253 q 318 229 315 235 q 315 226 318 226 q 306 232 307 226 q 288 256 300 240 q 276 290 276 272 q 319 331 276 313 q 435 358 363 349 q 594 365 507 368 q 642 360 613 365 q 697 343 672 354 q 721 313 721 332 q 713 291 721 303 q 686 264 706 279 q 611 210 656 239 q 516 154 567 182 q 419 103 465 126 q 338 65 372 81 l 275 39 q 460 71 367 57 q 646 85 554 85 q 715 83 681 85 q 782 74 749 81 q 837 49 810 68 q 864 -10 864 29 q 856 -48 864 -26 q 831 -94 849 -69 q 815 -107 824 -107 m 493 447 q 428 515 479 449 q 392 567 403 547 q 381 594 381 588 q 394 607 388 607 q 493 497 413 607 q 533 528 507 511 q 596 565 558 544 q 663 600 636 589 q 700 613 689 611 q 704 606 704 611 q 692 590 704 599 q 580 514 628 549 q 500 451 532 479 l 493 447 z "},"½":{"ha":1231,"x_min":33,"x_max":1217,"o":"m 67 433 q 56 432 63 432 q 33 456 33 432 q 41 476 33 465 q 67 492 49 486 q 142 508 100 503 q 226 514 183 513 l 226 515 q 228 524 226 519 q 286 654 257 582 q 342 797 315 726 q 389 917 368 867 q 371 904 388 917 q 330 874 354 892 q 281 837 306 856 q 238 805 256 818 q 218 790 221 792 q 200 781 208 781 q 194 788 194 781 q 204 806 194 794 q 235 833 211 813 q 293 880 260 853 q 360 935 326 907 q 424 988 394 964 q 467 1024 453 1011 q 475 1025 468 1025 q 515 986 514 1025 q 420 840 468 921 q 329 674 372 758 q 251 515 286 590 q 358 517 306 517 q 451 522 410 517 q 460 515 458 522 q 454 510 461 508 q 327 494 397 506 q 188 467 257 482 q 67 433 119 451 m 289 121 q 276 125 283 121 q 269 135 268 129 q 311 199 272 147 q 853 735 482 433 q 912 782 876 754 q 996 844 947 810 q 1017 849 1007 851 q 1040 831 1044 849 q 1036 825 1040 829 l 908 728 q 561 431 697 564 q 350 199 425 299 q 332 173 344 190 q 303 128 319 156 q 289 121 299 121 m 1168 -119 q 1165 -117 1165 -119 q 1169 -106 1165 -114 q 1190 -44 1190 -69 q 1140 16 1190 0 q 1014 32 1089 32 q 885 24 954 32 q 751 5 817 17 q 633 -19 685 -7 q 553 -37 581 -31 l 550 -37 q 533 -31 540 -37 q 526 -15 526 -24 q 550 11 526 3 l 604 21 q 667 53 632 31 q 736 94 701 76 q 844 165 792 126 q 958 253 897 203 q 1139 458 1126 386 q 1074 513 1146 513 q 959 497 1014 513 q 860 458 904 481 q 785 415 815 436 q 747 383 756 394 q 774 358 761 371 q 793 329 786 344 q 804 292 804 308 q 796 272 804 278 q 776 265 788 265 q 738 277 758 265 q 703 310 717 289 q 694 357 690 331 q 701 378 697 367 q 713 396 704 389 q 701 406 707 400 q 685 421 694 413 q 681 428 681 425 q 686 433 681 432 q 697 429 692 435 q 711 415 704 422 q 724 406 718 408 q 760 438 732 414 q 836 487 788 461 q 954 525 885 513 q 1003 532 974 528 q 1063 536 1032 536 q 1128 528 1097 536 q 1176 501 1158 521 q 1190 442 1194 481 q 1140 351 1181 396 q 1042 265 1100 307 q 919 183 985 222 q 792 106 854 143 q 685 36 731 69 q 844 61 764 51 q 1001 71 924 71 q 1069 69 1036 71 q 1135 61 1103 67 q 1190 36 1163 56 q 1217 -22 1217 17 q 1209 -60 1217 -39 q 1183 -107 1201 -82 q 1168 -119 1176 -119 m 771 293 q 778 304 778 293 q 774 324 778 315 q 735 369 761 347 q 737 344 735 364 q 757 301 739 324 q 771 293 765 293 z "},"¼":{"ha":1272,"x_min":33,"x_max":1250,"o":"m 67 433 q 56 432 63 432 q 33 456 33 432 q 41 476 33 465 q 67 492 49 486 q 142 508 100 503 q 226 514 183 513 l 226 515 q 228 524 226 519 q 286 654 257 582 q 342 797 315 726 q 389 917 368 867 q 371 904 388 917 q 330 874 354 892 q 281 837 306 856 q 238 805 256 818 q 218 790 221 792 q 200 781 208 781 q 194 788 194 781 q 204 806 194 794 q 235 833 211 813 q 293 880 260 853 q 360 935 326 907 q 424 988 394 964 q 467 1024 453 1011 q 475 1025 468 1025 q 515 986 514 1025 q 420 840 468 921 q 329 674 372 758 q 251 515 286 590 q 358 517 306 517 q 451 522 410 517 q 460 515 458 522 q 454 510 461 508 q 327 494 397 506 q 188 467 257 482 q 67 433 119 451 m 289 121 q 276 125 283 121 q 269 135 268 129 q 311 199 272 147 q 853 735 482 433 q 912 782 876 754 q 996 844 947 810 q 1017 849 1007 851 q 1040 831 1044 849 q 1036 825 1040 829 l 908 728 q 561 431 697 564 q 350 199 425 299 q 332 173 344 190 q 303 128 319 156 q 289 121 299 121 m 758 -86 q 751 -76 751 -86 q 761 -44 751 -65 q 798 37 779 -6 q 835 122 817 79 q 726 142 776 129 q 636 160 676 154 q 601 134 619 142 q 565 126 583 126 q 520 138 539 126 q 501 161 501 150 q 510 174 501 169 q 542 185 525 182 q 578 188 560 188 q 633 183 604 188 q 697 238 657 203 q 786 317 738 274 q 884 405 835 360 q 976 491 933 450 q 1047 561 1019 532 q 1056 563 1049 563 q 1078 555 1064 563 q 1100 538 1092 547 q 1099 518 1108 528 q 987 348 1043 446 q 882 150 931 250 q 1024 169 953 153 q 1150 219 1096 186 q 1222 304 1204 253 q 1229 326 1226 315 q 1232 347 1232 338 q 1215 375 1232 368 q 1210 382 1210 379 q 1219 388 1210 390 q 1243 365 1236 382 q 1250 329 1250 349 q 1250 316 1250 322 q 1247 303 1250 310 q 1147 174 1221 215 q 982 121 1072 132 q 949 119 965 119 q 918 118 933 118 q 893 118 906 118 q 868 119 881 118 q 825 27 846 72 q 786 -58 804 -18 q 758 -86 775 -86 m 847 149 q 912 299 881 225 q 967 432 943 372 q 894 367 939 404 q 799 290 849 329 q 711 221 750 251 q 657 178 672 190 q 705 167 682 172 q 749 157 728 161 q 847 149 790 149 z "},"¹":{"ha":508,"x_min":33,"x_max":515,"o":"m 67 433 q 56 432 63 432 q 33 456 33 432 q 41 476 33 465 q 67 492 49 486 q 142 508 100 503 q 226 514 183 513 l 226 515 q 228 524 226 519 q 286 654 257 582 q 342 797 315 726 q 389 917 368 867 q 371 904 388 917 q 330 874 354 892 q 281 837 306 856 q 238 805 256 818 q 218 790 221 792 q 200 781 208 781 q 194 788 194 781 q 204 806 194 794 q 235 833 211 813 q 293 880 260 853 q 360 935 326 907 q 424 988 394 964 q 467 1024 453 1011 q 475 1025 468 1025 q 515 986 514 1025 q 420 840 468 921 q 329 674 372 758 q 251 515 286 590 q 358 517 306 517 q 451 522 410 517 q 460 515 458 522 q 454 510 461 508 q 327 494 397 506 q 188 467 257 482 q 67 433 119 451 z "},"¾":{"ha":1363,"x_min":58,"x_max":1307,"o":"m 224 424 q 108 447 157 424 q 58 525 58 469 q 94 610 58 569 q 181 681 131 650 q 278 726 232 713 q 285 728 281 728 q 290 724 290 728 q 279 713 290 717 q 203 669 243 699 q 135 601 163 640 q 108 519 108 563 q 139 460 108 476 q 213 444 169 444 q 284 452 247 444 q 354 469 321 460 q 514 551 453 501 q 603 652 575 601 q 631 736 631 703 q 601 804 631 779 q 507 824 572 829 l 506 824 q 458 816 471 818 q 436 813 446 814 q 413 808 422 808 q 396 818 396 808 q 432 840 396 844 q 438 839 435 839 q 447 836 442 839 q 463 835 458 836 q 507 843 488 836 q 560 872 526 850 q 616 919 600 897 q 632 958 632 942 q 619 985 632 975 q 585 997 606 996 q 565 999 575 999 q 546 1000 556 1000 q 447 983 493 1000 q 376 938 401 967 q 367 932 371 932 q 363 938 363 932 q 374 960 363 949 q 477 1022 419 1007 q 582 1036 535 1036 q 610 1035 597 1036 q 633 1033 624 1035 q 681 1012 660 1031 q 699 965 701 993 q 671 908 696 933 q 610 863 646 882 q 538 832 575 844 q 620 822 578 833 q 676 774 663 811 q 685 728 685 751 q 656 636 685 681 q 582 555 626 592 q 490 492 538 518 q 404 453 442 465 q 317 432 365 440 q 224 424 269 424 m 392 121 q 378 125 386 121 q 372 135 371 129 q 414 199 375 147 q 956 735 585 433 q 1015 782 979 754 q 1099 844 1050 810 q 1119 849 1110 851 q 1143 831 1147 849 q 1139 825 1143 829 l 1011 728 q 664 431 800 564 q 453 199 528 299 q 435 173 447 190 q 406 128 422 156 q 392 121 401 121 m 815 -86 q 808 -76 808 -86 q 818 -44 808 -65 q 855 37 836 -6 q 892 122 874 79 q 783 142 833 129 q 693 160 733 154 q 658 134 676 142 q 622 126 640 126 q 577 138 596 126 q 558 161 558 150 q 567 174 558 169 q 599 185 582 182 q 635 188 617 188 q 690 183 661 188 q 754 238 714 203 q 843 317 794 274 q 941 405 892 360 q 1033 491 990 450 q 1104 561 1076 532 q 1113 563 1106 563 q 1135 555 1121 563 q 1157 538 1149 547 q 1156 518 1165 528 q 1044 348 1100 446 q 939 150 988 250 q 1081 169 1010 153 q 1207 219 1153 186 q 1279 304 1261 253 q 1286 326 1283 315 q 1289 347 1289 338 q 1272 375 1289 368 q 1267 382 1267 379 q 1276 388 1267 390 q 1300 365 1293 382 q 1307 329 1307 349 q 1307 316 1307 322 q 1304 303 1307 310 q 1203 174 1278 215 q 1039 121 1129 132 q 1006 119 1022 119 q 975 118 990 118 q 950 118 963 118 q 925 119 938 118 q 882 27 903 72 q 843 -58 861 -18 q 815 -86 832 -86 m 904 149 q 969 299 938 225 q 1024 432 1000 372 q 951 367 996 404 q 856 290 906 329 q 768 221 807 251 q 714 178 729 190 q 762 167 739 172 q 806 157 785 161 q 904 149 847 149 z "},"³":{"ha":733,"x_min":58,"x_max":701,"o":"m 224 424 q 108 447 157 424 q 58 525 58 469 q 94 610 58 569 q 181 681 131 650 q 278 726 232 713 q 285 728 281 728 q 290 724 290 728 q 279 713 290 717 q 203 669 243 699 q 135 601 163 640 q 108 519 108 563 q 139 460 108 476 q 213 444 169 444 q 284 452 247 444 q 354 469 321 460 q 514 551 453 501 q 603 652 575 601 q 631 736 631 703 q 601 804 631 779 q 507 824 572 829 l 506 824 q 458 816 471 818 q 436 813 446 814 q 413 808 422 808 q 396 818 396 808 q 432 840 396 844 q 438 839 435 839 q 447 836 442 839 q 463 835 458 836 q 507 843 488 836 q 560 872 526 850 q 616 919 600 897 q 632 958 632 942 q 619 985 632 975 q 585 997 606 996 q 565 999 575 999 q 546 1000 556 1000 q 447 983 493 1000 q 376 938 401 967 q 367 932 371 932 q 363 938 363 932 q 374 960 363 949 q 477 1022 419 1007 q 582 1036 535 1036 q 610 1035 597 1036 q 633 1033 624 1035 q 681 1012 660 1031 q 699 965 701 993 q 671 908 696 933 q 610 863 646 882 q 538 832 575 844 q 620 822 578 833 q 676 774 663 811 q 685 728 685 751 q 656 636 685 681 q 582 555 626 592 q 490 492 538 518 q 404 453 442 465 q 317 432 365 440 q 224 424 269 424 z "},"²":{"ha":778,"x_min":36,"x_max":726,"o":"m 678 389 q 675 392 675 389 q 679 403 675 394 q 700 464 700 439 q 649 524 700 508 q 524 540 599 540 q 395 533 464 540 q 260 513 326 525 q 142 490 194 501 q 63 471 90 478 l 60 471 q 43 478 50 471 q 36 493 36 485 q 60 519 36 511 l 114 529 q 176 562 142 539 q 246 603 211 585 q 354 673 301 635 q 468 761 407 711 q 649 967 636 894 q 583 1021 656 1021 q 469 1005 524 1021 q 369 967 414 989 q 295 924 325 944 q 257 892 265 903 q 283 866 271 879 q 303 838 296 853 q 314 800 314 817 q 306 780 314 786 q 286 774 297 774 q 247 785 268 774 q 213 818 226 797 q 204 865 200 839 q 210 886 207 875 q 222 904 214 897 q 210 915 217 908 q 194 929 204 921 q 190 936 190 933 q 196 942 190 940 q 207 938 201 943 q 221 924 214 931 q 233 914 228 917 q 269 946 242 922 q 346 995 297 969 q 464 1033 394 1021 q 513 1040 483 1036 q 572 1044 542 1044 q 638 1037 607 1044 q 686 1009 668 1029 q 700 950 704 989 q 650 860 690 904 q 552 773 610 815 q 429 691 494 731 q 302 615 364 651 q 194 544 240 578 q 353 569 274 560 q 511 579 433 579 q 579 577 546 579 q 644 569 613 575 q 699 544 672 564 q 726 486 726 525 q 719 448 726 469 q 693 401 711 426 q 678 389 686 389 m 281 801 q 288 813 288 801 q 283 832 288 824 q 244 878 271 856 q 247 852 244 872 q 267 810 249 832 q 281 801 275 801 z "},"Ä":{"ha":1397,"x_min":-114,"x_max":1563,"o":"m -7 -299 q -62 -284 -31 -299 q -107 -233 -93 -269 q -114 -199 -114 -215 q -85 -111 -114 -158 q -8 -14 -56 -64 q 125 106 43 39 q 310 245 207 172 q 526 390 413 318 q 756 526 640 463 q 980 639 872 590 q 1178 714 1088 688 q 1332 736 1269 740 q 1420 689 1383 733 q 1457 575 1457 644 q 1438 448 1457 518 q 1390 304 1419 378 q 1324 165 1360 231 q 1433 185 1381 172 q 1517 222 1485 199 q 1547 278 1550 244 l 1547 281 q 1553 293 1547 293 q 1563 271 1563 293 q 1526 207 1563 233 q 1432 165 1489 181 q 1314 142 1375 150 q 1293 89 1306 124 q 1276 29 1281 54 q 1275 20 1275 25 q 1275 10 1275 15 q 1277 -15 1275 -4 q 1279 -31 1279 -26 q 1266 -64 1282 -50 q 1235 -78 1250 -78 q 1214 -60 1215 -78 q 1213 -44 1213 -57 q 1190 3 1206 -25 q 1156 60 1174 32 q 1123 108 1139 88 q 1100 129 1107 128 q 1035 142 1090 132 q 945 157 1000 149 q 838 178 890 165 q 754 210 786 192 q 715 258 715 232 q 722 279 715 271 q 755 301 735 294 q 801 308 775 308 q 890 294 842 308 q 984 258 938 281 q 1069 210 1031 236 q 1126 160 1107 185 q 1154 158 1138 158 q 1192 157 1171 157 q 1283 161 1233 157 q 1340 313 1313 232 q 1384 470 1367 394 q 1401 597 1401 546 q 1370 678 1401 656 q 1290 701 1339 701 q 1117 671 1213 701 q 917 588 1022 640 q 703 467 811 535 q 490 324 594 399 q 295 176 386 250 q 132 38 204 103 q 15 -76 60 -28 q -32 -189 -32 -128 q -22 -236 -32 -214 q 11 -274 -11 -258 q 21 -287 21 -282 q -7 -299 21 -299 m 1057 168 q 999 203 1036 183 q 919 238 961 222 q 836 256 876 253 l 821 256 q 790 244 790 256 q 802 228 790 238 q 825 215 814 219 q 897 195 853 206 q 987 177 942 185 q 1057 168 1032 169 m 1231 6 q 1233 22 1232 14 q 1236 40 1235 31 q 1248 89 1242 64 q 1263 136 1254 114 q 1197 133 1228 135 q 1146 133 1167 132 q 1190 76 1165 111 q 1231 6 1214 42 m 1424 819 q 1396 849 1396 819 q 1400 869 1396 860 q 1427 894 1407 888 q 1465 900 1447 900 q 1483 883 1483 900 q 1475 854 1483 871 q 1452 828 1467 838 q 1424 819 1438 819 m 1251 819 q 1224 849 1224 819 q 1228 869 1224 860 q 1255 894 1235 888 q 1293 900 1275 900 q 1311 883 1311 900 q 1303 854 1311 871 q 1280 828 1294 838 q 1251 819 1265 819 z "},"Å":{"ha":1397,"x_min":-114,"x_max":1563,"o":"m -7 -299 q -62 -284 -31 -299 q -107 -233 -93 -269 q -114 -199 -114 -215 q -85 -111 -114 -158 q -8 -14 -56 -64 q 125 106 43 39 q 310 245 207 172 q 526 390 413 318 q 756 526 640 463 q 980 639 872 590 q 1178 714 1088 688 q 1332 736 1269 740 q 1420 689 1383 733 q 1457 575 1457 644 q 1438 448 1457 518 q 1390 304 1419 378 q 1324 165 1360 231 q 1433 185 1381 172 q 1517 222 1485 199 q 1547 278 1550 244 l 1547 281 q 1553 293 1547 293 q 1563 271 1563 293 q 1526 207 1563 233 q 1432 165 1489 181 q 1314 142 1375 150 q 1293 89 1306 124 q 1276 29 1281 54 q 1275 20 1275 25 q 1275 10 1275 15 q 1277 -15 1275 -4 q 1279 -31 1279 -26 q 1266 -64 1282 -50 q 1235 -78 1250 -78 q 1214 -60 1215 -78 q 1213 -44 1213 -57 q 1190 3 1206 -25 q 1156 60 1174 32 q 1123 108 1139 88 q 1100 129 1107 128 q 1035 142 1090 132 q 945 157 1000 149 q 838 178 890 165 q 754 210 786 192 q 715 258 715 232 q 722 279 715 271 q 755 301 735 294 q 801 308 775 308 q 890 294 842 308 q 984 258 938 281 q 1069 210 1031 236 q 1126 160 1107 185 q 1154 158 1138 158 q 1192 157 1171 157 q 1283 161 1233 157 q 1340 313 1313 232 q 1384 470 1367 394 q 1401 597 1401 546 q 1370 678 1401 656 q 1290 701 1339 701 q 1117 671 1213 701 q 917 588 1022 640 q 703 467 811 535 q 490 324 594 399 q 295 176 386 250 q 132 38 204 103 q 15 -76 60 -28 q -32 -189 -32 -128 q -22 -236 -32 -214 q 11 -274 -11 -258 q 21 -287 21 -282 q -7 -299 21 -299 m 1057 168 q 999 203 1036 183 q 919 238 961 222 q 836 256 876 253 l 821 256 q 790 244 790 256 q 802 228 790 238 q 825 215 814 219 q 897 195 853 206 q 987 177 942 185 q 1057 168 1032 169 m 1231 6 q 1233 22 1232 14 q 1236 40 1235 31 q 1248 89 1242 64 q 1263 136 1254 114 q 1197 133 1228 135 q 1146 133 1167 132 q 1190 76 1165 111 q 1231 6 1214 42 m 1340 811 q 1287 830 1303 811 q 1271 875 1271 849 q 1288 942 1271 911 q 1333 994 1304 974 q 1396 1014 1361 1014 q 1439 993 1422 1014 q 1456 942 1456 971 q 1438 874 1456 904 q 1394 828 1421 844 q 1340 811 1368 811 m 1343 838 q 1399 871 1376 838 q 1422 939 1422 906 q 1392 989 1422 989 q 1361 972 1378 989 q 1333 928 1344 954 q 1322 874 1322 901 q 1343 838 1322 838 z "},"É":{"ha":1493,"x_min":35,"x_max":1813,"o":"m 761 -156 q 474 -122 590 -156 q 298 -30 357 -87 q 239 100 239 28 q 276 240 239 174 q 210 241 240 240 q 161 242 181 242 q 108 253 122 242 q 92 279 94 264 q 107 301 90 294 q 150 307 124 307 q 244 292 192 307 q 271 289 256 290 q 306 285 286 288 q 454 417 361 358 q 663 519 547 476 q 900 589 778 563 q 843 607 871 599 q 789 625 815 615 q 638 669 724 647 q 463 706 553 690 q 294 721 374 721 q 153 700 214 721 q 69 629 92 679 q 64 600 64 617 q 74 563 64 582 q 107 519 83 543 q 177 463 133 492 q 260 415 221 435 q 281 404 269 413 q 297 391 292 396 q 290 389 301 386 q 229 413 271 393 q 145 459 188 432 q 79 513 103 486 q 46 570 57 542 q 35 622 35 599 q 42 658 35 644 q 135 740 68 717 q 290 764 203 764 q 453 749 368 764 q 622 712 539 735 q 772 664 704 689 q 858 634 808 650 q 963 600 907 618 q 1106 619 1035 613 q 1242 626 1176 626 q 1268 626 1256 626 q 1293 625 1281 625 q 1498 587 1418 619 q 1604 513 1578 554 q 1613 483 1613 500 q 1598 449 1613 465 q 1546 433 1583 433 q 1531 434 1539 433 q 1514 436 1524 435 q 1259 486 1397 451 q 992 560 1121 521 q 758 503 876 540 q 541 410 640 465 q 382 281 442 356 q 525 276 447 278 q 679 275 603 275 q 811 276 749 275 q 914 282 874 278 l 925 282 q 940 278 940 282 q 926 270 940 275 q 876 258 911 265 q 767 246 833 250 q 622 240 700 242 q 468 239 544 239 l 354 239 q 315 100 315 174 q 371 -15 315 36 q 557 -90 426 -65 q 664 -104 606 -100 q 790 -108 722 -108 q 1045 -87 911 -108 q 1315 -21 1179 -65 q 1575 93 1450 24 q 1803 257 1700 163 q 1807 258 1804 258 q 1811 254 1810 258 q 1808 246 1813 250 q 1660 116 1743 174 q 1483 13 1576 58 q 1260 -76 1375 -40 q 1031 -132 1144 -112 q 817 -154 918 -151 q 789 -155 803 -154 q 761 -156 775 -156 m 1510 463 q 1549 474 1538 463 q 1560 497 1560 485 q 1556 514 1560 508 q 1455 568 1532 550 q 1275 586 1378 586 q 1175 582 1229 586 q 1060 571 1121 578 q 1217 526 1139 547 q 1365 488 1296 504 q 1482 465 1433 472 q 1497 463 1489 464 q 1510 463 1504 463 m 1222 709 q 1217 711 1217 709 q 1241 729 1217 716 q 1310 772 1276 749 q 1366 814 1343 796 q 1392 804 1379 816 q 1402 786 1406 792 q 1360 764 1386 777 q 1306 739 1334 751 q 1257 717 1278 726 q 1239 711 1250 714 q 1222 709 1228 709 z "},"Ö":{"ha":1513,"x_min":-8,"x_max":1678,"o":"m 879 -69 q 715 -12 768 -69 q 663 131 663 46 q 709 310 663 214 q 843 489 756 406 q 949 572 888 531 q 1081 649 1010 614 q 1226 704 1151 683 q 1372 725 1301 725 q 1439 715 1407 725 q 1471 679 1471 704 q 1469 667 1471 671 q 1445 631 1463 644 q 1408 604 1428 617 q 1401 604 1407 603 q 1400 611 1394 606 l 1417 631 q 1428 663 1428 650 q 1357 694 1428 694 q 1228 669 1297 694 q 1090 603 1158 644 q 962 515 1021 563 q 864 424 903 468 q 742 245 779 325 q 704 107 704 165 q 753 -6 704 33 q 878 -44 801 -44 q 1002 -23 929 -44 q 1157 39 1075 -1 q 1318 135 1239 79 q 1461 258 1397 190 q 1564 403 1525 325 q 1603 564 1603 481 q 1551 715 1603 654 q 1413 813 1500 775 q 1216 866 1326 850 q 986 882 1106 882 q 732 862 863 882 q 480 802 601 842 q 262 703 358 763 q 108 567 165 644 q 51 392 51 489 q 76 292 51 340 q 178 219 101 243 q 247 203 206 211 q 311 196 289 194 l 317 196 q 338 190 338 196 q 321 182 338 186 q 301 180 311 181 q 279 179 290 179 q 189 190 236 179 q 44 273 96 217 q -8 393 -8 329 q 49 565 -8 486 q 206 709 107 644 q 434 819 306 774 q 705 888 563 864 q 989 913 847 913 q 1121 908 1047 913 q 1272 892 1194 904 q 1421 856 1349 879 q 1551 794 1493 832 q 1644 703 1610 757 q 1678 572 1678 649 q 1640 403 1678 485 q 1538 249 1603 321 q 1392 119 1474 178 q 1220 19 1310 61 q 1043 -47 1131 -24 q 879 -69 956 -69 m 1603 924 q 1575 953 1575 924 q 1579 974 1575 964 q 1606 998 1586 992 q 1644 1004 1626 1004 q 1663 988 1663 1004 q 1654 958 1663 975 q 1631 933 1646 942 q 1603 924 1617 924 m 1431 924 q 1403 953 1403 924 q 1407 974 1403 964 q 1434 998 1414 992 q 1472 1004 1454 1004 q 1490 988 1490 1004 q 1482 958 1490 975 q 1459 933 1474 942 q 1431 924 1444 924 z "},"Ü":{"ha":1733,"x_min":39,"x_max":1854,"o":"m 1621 -149 q 1561 -131 1583 -149 q 1528 -86 1539 -112 q 1515 -33 1518 -60 q 1513 11 1513 -6 q 1526 135 1513 71 q 1560 260 1539 199 q 1604 372 1582 322 q 1615 398 1610 385 q 1626 424 1621 411 q 1553 339 1597 389 q 1456 235 1508 289 q 1347 132 1403 182 q 1242 46 1292 82 q 1156 -1 1200 15 q 1076 -17 1113 -17 q 1024 -2 1044 -17 q 1003 43 1003 13 q 1021 111 1003 71 q 1082 207 1039 151 q 1139 278 1103 235 q 1217 376 1175 322 q 1296 486 1258 429 q 1357 598 1333 543 q 1381 699 1381 653 q 1338 785 1381 751 q 1188 819 1294 819 q 926 787 1058 819 q 672 697 794 754 q 442 565 549 639 q 256 409 336 492 q 131 242 176 326 q 86 82 86 158 q 111 -2 86 19 q 172 -24 136 -24 q 225 -17 197 -24 q 275 -4 253 -10 q 285 -3 278 -3 q 301 -11 301 -3 q 292 -21 301 -17 q 236 -36 265 -31 q 179 -42 207 -42 q 80 -11 121 -42 q 39 99 39 19 q 85 261 39 176 q 213 429 131 346 q 406 587 296 513 q 645 718 517 661 q 913 808 774 775 q 1190 842 1051 842 q 1389 806 1318 842 q 1460 703 1460 769 q 1450 651 1460 676 q 1394 547 1433 606 q 1308 427 1356 489 q 1218 309 1261 365 q 1149 213 1175 253 q 1092 112 1110 153 q 1074 47 1074 71 q 1104 17 1074 17 q 1197 52 1136 17 q 1331 149 1258 88 q 1392 205 1351 167 q 1482 296 1432 243 q 1583 410 1532 349 q 1675 536 1633 472 q 1729 619 1707 588 q 1786 650 1751 650 q 1813 644 1796 650 q 1842 629 1829 638 q 1849 611 1854 621 q 1828 581 1842 599 q 1801 549 1814 563 q 1781 532 1788 535 q 1691 408 1733 481 q 1617 251 1649 335 q 1568 85 1585 168 q 1558 35 1565 68 q 1550 -31 1550 3 q 1569 -99 1550 -69 q 1644 -122 1589 -129 q 1719 -104 1689 -115 q 1763 -83 1749 -93 q 1775 -78 1769 -78 q 1781 -82 1781 -78 q 1761 -101 1781 -90 q 1695 -135 1728 -122 q 1621 -149 1663 -149 m 1715 829 q 1688 858 1688 829 q 1692 879 1688 869 q 1719 903 1699 897 q 1757 910 1739 910 q 1775 893 1775 910 q 1767 864 1775 881 q 1744 838 1758 847 q 1715 829 1729 829 m 1543 829 q 1515 858 1515 829 q 1519 879 1515 869 q 1547 903 1526 897 q 1585 910 1567 910 q 1603 893 1603 910 q 1594 864 1603 881 q 1572 838 1586 847 q 1543 829 1557 829 z "},"á":{"ha":774,"x_min":168,"x_max":1083,"o":"m 644 -15 q 572 6 603 -15 q 540 83 540 26 q 551 144 542 113 q 571 203 560 175 q 517 147 553 182 q 435 77 481 113 q 343 17 390 42 q 254 -8 296 -8 q 186 22 213 -8 q 168 75 168 42 q 194 160 168 114 q 262 249 219 206 q 353 328 304 293 q 450 378 403 363 q 553 399 515 399 q 612 377 593 399 q 636 315 631 356 l 636 311 q 631 295 636 301 q 622 289 626 289 q 615 300 615 289 q 613 320 615 307 q 601 345 611 333 q 565 357 590 357 q 486 338 531 357 q 396 285 442 318 q 310 215 350 253 q 243 139 269 176 q 213 72 217 101 q 211 64 211 68 q 211 57 211 60 q 222 22 211 32 q 249 13 232 13 q 306 28 274 13 q 367 63 339 43 q 406 92 394 82 q 506 174 450 129 q 604 258 561 219 q 619 263 611 263 q 651 253 639 263 q 656 242 656 249 q 652 224 656 235 q 643 201 649 214 q 604 114 619 153 q 589 49 589 75 q 635 7 589 7 q 738 32 669 7 q 885 108 811 60 q 1018 207 958 157 q 1046 228 1033 219 q 1072 250 1058 236 q 1079 251 1075 251 q 1083 247 1083 251 q 1078 236 1083 243 q 1038 195 1069 225 q 958 128 1006 165 q 856 58 911 92 q 746 4 801 24 q 698 -9 725 -3 q 644 -15 671 -15 m 500 479 q 495 482 495 479 q 518 499 495 486 q 587 543 554 519 q 644 584 621 567 q 670 575 657 587 q 680 557 684 563 q 638 535 664 548 q 584 509 612 522 q 535 488 556 497 q 517 482 528 485 q 500 479 505 479 z "},"à":{"ha":774,"x_min":168,"x_max":1083,"o":"m 644 -15 q 572 6 603 -15 q 540 83 540 26 q 551 144 542 113 q 571 203 560 175 q 517 147 553 182 q 435 77 481 113 q 343 17 390 42 q 254 -8 296 -8 q 186 22 213 -8 q 168 75 168 42 q 194 160 168 114 q 262 249 219 206 q 353 328 304 293 q 450 378 403 363 q 553 399 515 399 q 612 377 593 399 q 636 315 631 356 l 636 311 q 631 295 636 301 q 622 289 626 289 q 615 300 615 289 q 613 320 615 307 q 601 345 611 333 q 565 357 590 357 q 486 338 531 357 q 396 285 442 318 q 310 215 350 253 q 243 139 269 176 q 213 72 217 101 q 211 64 211 68 q 211 57 211 60 q 222 22 211 32 q 249 13 232 13 q 306 28 274 13 q 367 63 339 43 q 406 92 394 82 q 506 174 450 129 q 604 258 561 219 q 619 263 611 263 q 651 253 639 263 q 656 242 656 249 q 652 224 656 235 q 643 201 649 214 q 604 114 619 153 q 589 49 589 75 q 635 7 589 7 q 738 32 669 7 q 885 108 811 60 q 1018 207 958 157 q 1046 228 1033 219 q 1072 250 1058 236 q 1079 251 1075 251 q 1083 247 1083 251 q 1078 236 1083 243 q 1038 195 1069 225 q 958 128 1006 165 q 856 58 911 92 q 746 4 801 24 q 698 -9 725 -3 q 644 -15 671 -15 m 630 480 q 615 479 630 475 q 590 487 600 482 q 541 509 569 496 q 487 534 513 521 q 445 557 461 547 q 456 574 441 563 q 482 584 470 586 q 538 543 504 566 q 607 499 571 520 q 630 480 630 485 z "},"â":{"ha":774,"x_min":168,"x_max":1083,"o":"m 644 -15 q 572 6 603 -15 q 540 83 540 26 q 551 144 542 113 q 571 203 560 175 q 517 147 553 182 q 435 77 481 113 q 343 17 390 42 q 254 -8 296 -8 q 186 22 213 -8 q 168 75 168 42 q 194 160 168 114 q 262 249 219 206 q 353 328 304 293 q 450 378 403 363 q 553 399 515 399 q 612 377 593 399 q 636 315 631 356 l 636 311 q 631 295 636 301 q 622 289 626 289 q 615 300 615 289 q 613 320 615 307 q 601 345 611 333 q 565 357 590 357 q 486 338 531 357 q 396 285 442 318 q 310 215 350 253 q 243 139 269 176 q 213 72 217 101 q 211 64 211 68 q 211 57 211 60 q 222 22 211 32 q 249 13 232 13 q 306 28 274 13 q 367 63 339 43 q 406 92 394 82 q 506 174 450 129 q 604 258 561 219 q 619 263 611 263 q 651 253 639 263 q 656 242 656 249 q 652 224 656 235 q 643 201 649 214 q 604 114 619 153 q 589 49 589 75 q 635 7 589 7 q 738 32 669 7 q 885 108 811 60 q 1018 207 958 157 q 1046 228 1033 219 q 1072 250 1058 236 q 1079 251 1075 251 q 1083 247 1083 251 q 1078 236 1083 243 q 1038 195 1069 225 q 958 128 1006 165 q 856 58 911 92 q 746 4 801 24 q 698 -9 725 -3 q 644 -15 671 -15 m 319 490 q 314 494 314 489 q 325 510 314 501 q 371 555 342 528 q 433 612 400 583 q 494 667 465 642 q 549 621 505 668 q 573 592 562 606 q 588 569 583 577 q 593 556 593 564 q 589 546 593 550 q 582 545 584 542 q 551 575 570 558 q 517 606 532 591 q 494 625 501 620 q 458 594 481 614 q 406 548 436 573 q 351 507 373 520 q 322 491 328 493 l 319 490 z "}}}
